M48
; DRILL file {KiCad 9.0.0} date 2026-01-22T23:36:38+0100
; FORMAT={-:-/ absolute / metric / decimal}
; #@! TF.CreationDate,2026-01-22T23:36:38+01:00
; #@! TF.GenerationSoftware,Kicad,Pcbnew,9.0.0
; #@! TF.FileFunction,MixedPlating,1,2
FMAT,2
METRIC
; #@! TA.AperFunction,Plated,PTH,ComponentDrill
T1C0.200
; #@! TA.AperFunction,Plated,PTH,ComponentDrill
T2C0.600
; #@! TA.AperFunction,Plated,PTH,ComponentDrill
T3C1.000
; #@! TA.AperFunction,Plated,PTH,ComponentDrill
T4C1.020
; #@! TA.AperFunction,NonPlated,NPTH,ComponentDrill
T5C0.600
; #@! TA.AperFunction,NonPlated,NPTH,ComponentDrill
T6C1.100
%
G90
G05
T1
X96.475Y-62.07
X96.475Y-63.47
X97.175Y-61.37
X97.175Y-62.77
X97.175Y-64.17
X97.875Y-62.07
X97.875Y-63.47
X98.575Y-61.37
X98.575Y-62.77
X98.575Y-64.17
X99.275Y-62.07
X99.275Y-63.47
T3
X126.225Y-34.36
X126.225Y-36.9
X126.225Y-39.44
X126.225Y-41.98
X126.225Y-44.52
X126.225Y-47.06
X126.225Y-49.6
X126.225Y-52.14
X126.225Y-54.68
X126.225Y-57.22
X126.225Y-59.76
X126.225Y-62.3
X126.225Y-64.84
X126.225Y-67.38
X126.225Y-69.92
X130.875Y-34.36
X130.875Y-36.9
X130.875Y-39.44
X130.875Y-41.98
X130.875Y-44.52
X130.875Y-47.06
X130.875Y-49.6
X130.875Y-52.14
X130.875Y-54.68
X130.875Y-57.22
X130.875Y-59.76
X130.875Y-62.3
X130.875Y-64.84
X130.875Y-67.38
T4
X114.315Y-88.08
X116.855Y-88.08
X119.395Y-88.08
X121.935Y-88.08
T5
X115.213Y-77.305
X120.993Y-77.305
T6
X119.395Y-85.92
T2
G00X113.778Y-76.265
M15
G01X113.778Y-77.365
M16
G05
G00X113.778Y-80.585
M15
G01X113.778Y-81.385
M16
G05
G00X122.428Y-76.265
M15
G01X122.428Y-77.365
M16
G05
G00X122.428Y-80.585
M15
G01X122.428Y-81.385
M16
G05
M30
