%TF.GenerationSoftware,KiCad,Pcbnew,9.0.0*%
%TF.CreationDate,2026-03-23T00:52:54+01:00*%
%TF.ProjectId,espkaito,6573706b-6169-4746-9f2e-6b696361645f,rev?*%
%TF.SameCoordinates,Original*%
%TF.FileFunction,Paste,Top*%
%TF.FilePolarity,Positive*%
%FSLAX46Y46*%
G04 Gerber Fmt 4.6, Leading zero omitted, Abs format (unit mm)*
G04 Created by KiCad (PCBNEW 9.0.0) date 2026-03-23 00:52:54*
%MOMM*%
%LPD*%
G01*
G04 APERTURE LIST*
G04 Aperture macros list*
%AMRoundRect*
0 Rectangle with rounded corners*
0 $1 Rounding radius*
0 $2 $3 $4 $5 $6 $7 $8 $9 X,Y pos of 4 corners*
0 Add a 4 corners polygon primitive as box body*
4,1,4,$2,$3,$4,$5,$6,$7,$8,$9,$2,$3,0*
0 Add four circle primitives for the rounded corners*
1,1,$1+$1,$2,$3*
1,1,$1+$1,$4,$5*
1,1,$1+$1,$6,$7*
1,1,$1+$1,$8,$9*
0 Add four rect primitives between the rounded corners*
20,1,$1+$1,$2,$3,$4,$5,0*
20,1,$1+$1,$4,$5,$6,$7,0*
20,1,$1+$1,$6,$7,$8,$9,0*
20,1,$1+$1,$8,$9,$2,$3,0*%
G04 Aperture macros list end*
%ADD10R,0.600000X1.140000*%
%ADD11R,0.300000X1.140000*%
%ADD12R,0.480000X0.400000*%
%ADD13RoundRect,0.200000X0.275000X-0.200000X0.275000X0.200000X-0.275000X0.200000X-0.275000X-0.200000X0*%
%ADD14RoundRect,0.250000X0.300000X1.600000X-0.300000X1.600000X-0.300000X-1.600000X0.300000X-1.600000X0*%
%ADD15RoundRect,0.200000X-0.275000X0.200000X-0.275000X-0.200000X0.275000X-0.200000X0.275000X0.200000X0*%
%ADD16RoundRect,0.200000X-0.200000X-0.275000X0.200000X-0.275000X0.200000X0.275000X-0.200000X0.275000X0*%
%ADD17RoundRect,0.250000X0.450000X-0.262500X0.450000X0.262500X-0.450000X0.262500X-0.450000X-0.262500X0*%
%ADD18R,1.000000X0.600000*%
%ADD19RoundRect,0.150000X-0.587500X-0.150000X0.587500X-0.150000X0.587500X0.150000X-0.587500X0.150000X0*%
%ADD20RoundRect,0.225000X-0.225000X-0.250000X0.225000X-0.250000X0.225000X0.250000X-0.225000X0.250000X0*%
%ADD21R,1.350000X1.800000*%
%ADD22RoundRect,0.250000X0.650000X-0.325000X0.650000X0.325000X-0.650000X0.325000X-0.650000X-0.325000X0*%
%ADD23R,0.400000X0.480000*%
%ADD24RoundRect,0.250000X-1.000000X-0.650000X1.000000X-0.650000X1.000000X0.650000X-1.000000X0.650000X0*%
%ADD25R,0.800000X0.800000*%
%ADD26R,0.900000X0.900000*%
%ADD27R,1.500000X0.900000*%
%ADD28R,0.900000X1.500000*%
%ADD29R,1.800000X1.350000*%
%ADD30RoundRect,0.250000X-0.300000X-0.485000X0.300000X-0.485000X0.300000X0.485000X-0.300000X0.485000X0*%
%ADD31RoundRect,0.150000X-0.820000X-0.150000X0.820000X-0.150000X0.820000X0.150000X-0.820000X0.150000X0*%
%ADD32RoundRect,0.225000X0.250000X-0.225000X0.250000X0.225000X-0.250000X0.225000X-0.250000X-0.225000X0*%
%ADD33RoundRect,0.225000X0.225000X0.250000X-0.225000X0.250000X-0.225000X-0.250000X0.225000X-0.250000X0*%
%ADD34RoundRect,0.150000X0.150000X-0.825000X0.150000X0.825000X-0.150000X0.825000X-0.150000X-0.825000X0*%
%ADD35RoundRect,0.250000X-0.650000X0.325000X-0.650000X-0.325000X0.650000X-0.325000X0.650000X0.325000X0*%
%ADD36RoundRect,0.250000X0.325000X0.650000X-0.325000X0.650000X-0.325000X-0.650000X0.325000X-0.650000X0*%
%ADD37RoundRect,0.225000X-0.250000X0.225000X-0.250000X-0.225000X0.250000X-0.225000X0.250000X0.225000X0*%
%ADD38RoundRect,0.200000X0.200000X0.275000X-0.200000X0.275000X-0.200000X-0.275000X0.200000X-0.275000X0*%
G04 APERTURE END LIST*
D10*
%TO.C,J1*%
X145300000Y-125662500D03*
X146100000Y-125662500D03*
D11*
X147250000Y-125662500D03*
X148250000Y-125662500D03*
X148750000Y-125662500D03*
X149750000Y-125662500D03*
D10*
X151700000Y-125662500D03*
X150900000Y-125662500D03*
D11*
X150250000Y-125662500D03*
X149250000Y-125662500D03*
X147750000Y-125662500D03*
X146750000Y-125662500D03*
%TD*%
D12*
%TO.C,D3*%
X153000000Y-121500000D03*
X151680000Y-121500000D03*
%TD*%
D13*
%TO.C,R2*%
X150250000Y-124075000D03*
X150250000Y-122425000D03*
%TD*%
D14*
%TO.C,L1*%
X146700000Y-103000000D03*
X143700000Y-103000000D03*
%TD*%
D15*
%TO.C,R10*%
X168000000Y-103175000D03*
X168000000Y-104825000D03*
%TD*%
D16*
%TO.C,R12*%
X163925000Y-122500000D03*
X165575000Y-122500000D03*
%TD*%
D17*
%TO.C,R7*%
X156500000Y-125162500D03*
X156500000Y-123337500D03*
%TD*%
D18*
%TO.C,D5*%
X164250000Y-116000000D03*
X164250000Y-117300000D03*
X166250000Y-117300000D03*
X166250000Y-116000000D03*
%TD*%
D19*
%TO.C,Q1*%
X154750000Y-110300000D03*
X154750000Y-112200000D03*
X156625000Y-111250000D03*
%TD*%
D20*
%TO.C,Cch340c1*%
X139475000Y-115250000D03*
X141025000Y-115250000D03*
%TD*%
D21*
%TO.C,S3*%
X167250000Y-122500000D03*
X171400000Y-122500000D03*
%TD*%
D13*
%TO.C,R1*%
X147250000Y-123825000D03*
X147250000Y-122175000D03*
%TD*%
%TO.C,R5*%
X136250000Y-88075000D03*
X136250000Y-86425000D03*
%TD*%
D22*
%TO.C,C3*%
X133000000Y-72975000D03*
X133000000Y-70025000D03*
%TD*%
D16*
%TO.C,Rled1*%
X164500000Y-119000000D03*
X166150000Y-119000000D03*
%TD*%
D23*
%TO.C,D2*%
X151750000Y-123000000D03*
X151750000Y-124320000D03*
%TD*%
D24*
%TO.C,D1*%
X137749999Y-123500000D03*
X141750001Y-123500000D03*
%TD*%
D25*
%TO.C,D7*%
X140750000Y-129500000D03*
X140750000Y-131000000D03*
%TD*%
D17*
%TO.C,R3*%
X164250000Y-111162500D03*
X164250000Y-109337500D03*
%TD*%
D13*
%TO.C,Rtop1*%
X153950000Y-105825000D03*
X153950000Y-104175000D03*
%TD*%
D20*
%TO.C,Cled2*%
X164435000Y-114380000D03*
X165985000Y-114380000D03*
%TD*%
D16*
%TO.C,Rcomp1*%
X157875000Y-102750000D03*
X159525000Y-102750000D03*
%TD*%
D26*
%TO.C,U1*%
X145030000Y-76550000D03*
X145030000Y-77950000D03*
X145030000Y-79350000D03*
X146430000Y-76550000D03*
X146430000Y-77950000D03*
X146430000Y-79350000D03*
X147830000Y-76550000D03*
X147830000Y-77950000D03*
X147830000Y-79350000D03*
D27*
X139180000Y-70230000D03*
X139180000Y-71500000D03*
X139180000Y-72770000D03*
X139180000Y-74040000D03*
X139180000Y-75310000D03*
X139180000Y-76580000D03*
X139180000Y-77850000D03*
X139180000Y-79120000D03*
X139180000Y-80390000D03*
X139180000Y-81660000D03*
X139180000Y-82930000D03*
X139180000Y-84200000D03*
X139180000Y-85470000D03*
X139180000Y-86740000D03*
D28*
X140945000Y-87990000D03*
X142215000Y-87990000D03*
X143485000Y-87990000D03*
X144755000Y-87990000D03*
X146025000Y-87990000D03*
X147295000Y-87990000D03*
X148565000Y-87990000D03*
X149835000Y-87990000D03*
X151105000Y-87990000D03*
X152375000Y-87990000D03*
X153645000Y-87990000D03*
X154915000Y-87990000D03*
D27*
X156680000Y-86740000D03*
X156680000Y-85470000D03*
X156680000Y-84200000D03*
X156680000Y-82930000D03*
X156680000Y-81660000D03*
X156680000Y-80390000D03*
X156680000Y-79120000D03*
X156680000Y-77850000D03*
X156680000Y-76580000D03*
X156680000Y-75310000D03*
X156680000Y-74040000D03*
X156680000Y-72770000D03*
X156680000Y-71500000D03*
X156680000Y-70230000D03*
%TD*%
D16*
%TO.C,R6*%
X135425000Y-90750000D03*
X137075000Y-90750000D03*
%TD*%
D29*
%TO.C,S1*%
X161250000Y-126825000D03*
X161250000Y-130975000D03*
%TD*%
D12*
%TO.C,D4*%
X144090000Y-121500000D03*
X145410000Y-121500000D03*
%TD*%
D13*
%TO.C,R8*%
X145250000Y-112575000D03*
X145250000Y-110925000D03*
%TD*%
D20*
%TO.C,C1*%
X160725000Y-125000000D03*
X162275000Y-125000000D03*
%TD*%
D30*
%TO.C,U3*%
X151450000Y-99750000D03*
X151450000Y-101500000D03*
X152760000Y-99750000D03*
X152760000Y-101500000D03*
D31*
X149625000Y-98720000D03*
X149625000Y-99990000D03*
X149625000Y-101260000D03*
X149625000Y-102530000D03*
X154585000Y-102530000D03*
X154585000Y-101260000D03*
X154585000Y-99990000D03*
X154585000Y-98720000D03*
%TD*%
D32*
%TO.C,C2*%
X137250000Y-71525000D03*
X137250000Y-69975000D03*
%TD*%
D33*
%TO.C,C6*%
X168025000Y-106250000D03*
X166475000Y-106250000D03*
%TD*%
D20*
%TO.C,Cled1*%
X168450000Y-114500000D03*
X170000000Y-114500000D03*
%TD*%
D16*
%TO.C,Rled2*%
X168425000Y-119000000D03*
X170075000Y-119000000D03*
%TD*%
D33*
%TO.C,Css1*%
X159475000Y-98750000D03*
X157925000Y-98750000D03*
%TD*%
D20*
%TO.C,Ccomp1*%
X157950000Y-101250000D03*
X159500000Y-101250000D03*
%TD*%
D15*
%TO.C,R11*%
X166500000Y-103175000D03*
X166500000Y-104825000D03*
%TD*%
D13*
%TO.C,Rled3*%
X140750000Y-128075000D03*
X140750000Y-126425000D03*
%TD*%
D34*
%TO.C,U2*%
X142650000Y-119475000D03*
X143920000Y-119475000D03*
X145190000Y-119475000D03*
X146460000Y-119475000D03*
X147730000Y-119475000D03*
X149000000Y-119475000D03*
X150270000Y-119475000D03*
X151540000Y-119475000D03*
X151540000Y-114525000D03*
X150270000Y-114525000D03*
X149000000Y-114525000D03*
X147730000Y-114525000D03*
X146460000Y-114525000D03*
X145190000Y-114525000D03*
X143920000Y-114525000D03*
X142650000Y-114525000D03*
%TD*%
D35*
%TO.C,Cin1*%
X146425000Y-95025000D03*
X146425000Y-97975000D03*
%TD*%
D36*
%TO.C,COUT1*%
X141925000Y-104500000D03*
X138975000Y-104500000D03*
%TD*%
D32*
%TO.C,Cin2*%
X144425000Y-98025000D03*
X144425000Y-96475000D03*
%TD*%
D29*
%TO.C,S2*%
X156500000Y-127000000D03*
X156500000Y-131150000D03*
%TD*%
D37*
%TO.C,C5*%
X137250000Y-126475000D03*
X137250000Y-128025000D03*
%TD*%
D20*
%TO.C,Cbst1*%
X145150000Y-99750000D03*
X146700000Y-99750000D03*
%TD*%
%TO.C,Cch340c2*%
X139475000Y-113750000D03*
X141025000Y-113750000D03*
%TD*%
D36*
%TO.C,COUT2*%
X141925000Y-102000000D03*
X138975000Y-102000000D03*
%TD*%
D18*
%TO.C,D6*%
X168250000Y-116150000D03*
X168250000Y-117450000D03*
X170250000Y-117450000D03*
X170250000Y-116150000D03*
%TD*%
D37*
%TO.C,C4*%
X163750000Y-126725000D03*
X163750000Y-128275000D03*
%TD*%
D13*
%TO.C,Rbot1*%
X155450000Y-105825000D03*
X155450000Y-104175000D03*
%TD*%
D38*
%TO.C,R9*%
X148325000Y-112500000D03*
X146675000Y-112500000D03*
%TD*%
D19*
%TO.C,Q2*%
X156375000Y-114000000D03*
X156375000Y-115900000D03*
X158250000Y-114950000D03*
%TD*%
M02*
