M48
; DRILL file {KiCad 9.0.0} date 2026-03-23T00:53:05+0100
; FORMAT={-:-/ absolute / metric / decimal}
; #@! TF.CreationDate,2026-03-23T00:53:05+01:00
; #@! TF.GenerationSoftware,Kicad,Pcbnew,9.0.0
; #@! TF.FileFunction,MixedPlating,1,2
FMAT,2
METRIC
; #@! TA.AperFunction,Plated,PTH,ComponentDrill
T1C0.200
; #@! TA.AperFunction,Plated,PTH,ViaDrill
T2C0.300
; #@! TA.AperFunction,Plated,PTH,ComponentDrill
T3C0.600
; #@! TA.AperFunction,Plated,PTH,ComponentDrill
T4C1.000
; #@! TA.AperFunction,NonPlated,NPTH,ComponentDrill
T5C0.600
%
G90
G05
T1
X145.03Y-77.25
X145.03Y-78.65
X145.73Y-76.55
X145.73Y-77.95
X145.73Y-79.35
X146.43Y-77.25
X146.43Y-78.65
X147.13Y-76.55
X147.13Y-77.95
X147.13Y-79.35
X147.83Y-77.25
X147.83Y-78.65
X151.405Y-99.625
X151.405Y-100.625
X151.405Y-101.625
X152.805Y-99.625
X152.805Y-100.625
X152.805Y-101.625
T2
X124.0Y-113.0
X124.0Y-115.5
X125.5Y-69.5
X126.87Y-113.9
X127.0Y-117.585
X127.5Y-119.75
X127.51Y-122.02
X128.5Y-113.75
X128.75Y-108.34
X129.0Y-118.0
X129.11Y-70.48
X130.0Y-104.75
X130.997Y-76.259
X131.0Y-115.0
X131.25Y-75.5
X131.25Y-78.5
X131.5Y-77.25
X131.5Y-80.5
X131.5Y-85.5
X131.5Y-88.25
X131.75Y-82.75
X131.75Y-93.149
X131.75Y-95.125
X131.75Y-110.25
X132.0Y-90.75
X132.5Y-70.025
X132.5Y-112.0
X132.5Y-114.0
X132.5Y-115.75
X132.539Y-95.257
X132.55Y-93.149
X132.759Y-91.003
X133.25Y-75.5
X133.25Y-76.3
X133.25Y-82.5
X133.25Y-87.75
X133.5Y-77.25
X133.5Y-78.5
X133.5Y-80.5
X133.5Y-85.5
X133.5Y-89.25
X133.68Y-103.02
X133.75Y-119.75
X133.94Y-95.95
X133.97Y-89.897
X134.18Y-111.34
X134.75Y-118.0
X135.01Y-122.32
X135.726Y-93.774
X136.25Y-114.0
X136.25Y-115.75
X136.476Y-94.524
X137.2Y-100.25
X137.2Y-102.0
X137.2Y-104.5
X137.25Y-69.975
X137.5Y-93.25
X137.7Y-106.25
X137.75Y-83.575
X138.036Y-93.964
X138.75Y-87.75
X138.75Y-113.75
X138.75Y-115.25
X138.95Y-98.75
X138.95Y-106.75
X138.97Y-128.2
X138.975Y-102.0
X138.975Y-104.5
X139.18Y-70.23
X139.2Y-97.25
X139.2Y-100.0
X139.2Y-109.25
X139.322Y-88.371
X139.5Y-121.75
X140.0Y-119.75
X140.75Y-131.0
X140.95Y-97.0
X141.0Y-86.0
X141.0Y-92.5
X141.0Y-118.0
X141.7Y-109.75
X141.75Y-93.0
X141.759Y-86.253
X142.43Y-125.82
X142.65Y-119.475
X142.7Y-96.75
X142.75Y-91.5
X143.5Y-91.875
X144.0Y-122.5
X144.2Y-95.0
X144.425Y-96.475
X144.45Y-109.75
X144.95Y-93.75
X145.3Y-125.662
X145.441Y-90.559
X146.425Y-95.025
X146.45Y-93.5
X146.75Y-99.75
X147.2Y-109.75
X147.25Y-122.175
X147.73Y-119.475
X148.2Y-94.0
X148.45Y-95.5
X148.875Y-121.542
X149.45Y-108.25
X149.625Y-98.72
X149.625Y-102.53
X150.45Y-96.0
X151.25Y-89.25
X151.45Y-106.5
X151.7Y-125.662
X151.75Y-123.0
X152.7Y-96.5
X152.95Y-89.473
X152.95Y-113.94
X153.0Y-121.5
X153.75Y-85.25
X153.75Y-89.473
X154.36Y-117.39
X154.5Y-100.0
X154.75Y-112.2
X155.0Y-73.415
X155.19Y-93.92
X155.5Y-95.5
X156.25Y-93.125
X156.375Y-115.9
X156.5Y-103.0
X156.5Y-131.15
X156.54Y-120.41
X156.68Y-70.23
X156.68Y-79.12
X156.75Y-106.5
X157.366Y-89.616
X157.5Y-121.75
X158.0Y-74.0
X158.0Y-80.5
X158.25Y-93.125
X158.25Y-104.25
X158.25Y-110.5
X158.25Y-112.0
X158.34Y-108.0
X158.39Y-97.05
X158.692Y-86.558
X158.88Y-70.83
X159.116Y-87.866
X159.25Y-93.75
X159.317Y-80.0
X159.475Y-98.75
X159.5Y-100.0
X159.51Y-116.69
X160.0Y-86.75
X161.0Y-85.25
X161.25Y-105.25
X161.25Y-130.975
X161.5Y-108.25
X161.5Y-121.0
X161.683Y-86.183
X161.817Y-89.567
X162.226Y-113.59
X162.25Y-97.0
X162.275Y-125.0
X162.287Y-116.287
X163.0Y-91.875
X163.0Y-93.75
X163.0Y-104.5
X163.0Y-112.7
X163.032Y-89.602
X163.037Y-115.537
X163.5Y-85.0
X163.75Y-89.25
X163.75Y-128.275
X164.0Y-91.875
X164.0Y-94.0
X164.25Y-107.25
X164.25Y-117.3
X164.317Y-88.317
X164.435Y-114.38
X164.5Y-85.0
X164.62Y-124.72
X164.625Y-99.25
X165.25Y-91.875
X165.25Y-94.25
X165.5Y-87.5
X165.52Y-70.74
X165.53Y-77.47
X165.567Y-85.817
X165.61Y-120.57
X165.875Y-84.808
X166.183Y-79.183
X166.25Y-102.0
X166.5Y-81.0
X166.5Y-104.075
X166.571Y-82.375
X167.5Y-89.25
X167.5Y-108.5
X168.0Y-103.175
X168.025Y-106.25
X168.25Y-117.45
X168.375Y-82.339
X168.45Y-114.5
X168.5Y-69.5
X168.5Y-90.5
X168.562Y-92.312
X168.57Y-75.01
X168.787Y-87.325
X171.0Y-106.5
X171.4Y-122.5
X171.5Y-110.5
T4
X125.25Y-71.46
X125.25Y-74.0
X125.25Y-76.54
X125.25Y-79.08
X125.25Y-81.62
X125.25Y-84.16
X125.25Y-86.7
X125.25Y-89.24
X125.25Y-91.78
X125.25Y-94.32
X125.25Y-96.86
X125.25Y-99.4
X125.25Y-101.94
X125.25Y-104.48
X125.25Y-107.02
X125.25Y-111.88
X125.25Y-114.42
X125.25Y-116.96
X125.25Y-119.5
X170.75Y-71.46
X170.75Y-74.0
X170.75Y-76.54
X170.75Y-79.08
X170.75Y-81.62
X170.75Y-84.16
X170.75Y-86.7
X170.75Y-89.24
X170.75Y-91.78
X170.75Y-94.32
X170.75Y-96.86
X170.75Y-99.4
X170.75Y-101.94
X170.75Y-104.48
T5
X145.61Y-126.732
X151.39Y-126.732
T3
G00X144.175Y-125.692
M15
G01X144.175Y-126.792
M16
G05
G00X144.175Y-130.012
M15
G01X144.175Y-130.812
M16
G05
G00X152.825Y-125.692
M15
G01X152.825Y-126.792
M16
G05
G00X152.825Y-130.012
M15
G01X152.825Y-130.812
M16
G05
M30
