%TF.GenerationSoftware,KiCad,Pcbnew,9.0.0*%
%TF.CreationDate,2026-03-23T00:52:54+01:00*%
%TF.ProjectId,espkaito,6573706b-6169-4746-9f2e-6b696361645f,rev?*%
%TF.SameCoordinates,Original*%
%TF.FileFunction,Copper,L1,Top*%
%TF.FilePolarity,Positive*%
%FSLAX46Y46*%
G04 Gerber Fmt 4.6, Leading zero omitted, Abs format (unit mm)*
G04 Created by KiCad (PCBNEW 9.0.0) date 2026-03-23 00:52:54*
%MOMM*%
%LPD*%
G01*
G04 APERTURE LIST*
G04 Aperture macros list*
%AMRoundRect*
0 Rectangle with rounded corners*
0 $1 Rounding radius*
0 $2 $3 $4 $5 $6 $7 $8 $9 X,Y pos of 4 corners*
0 Add a 4 corners polygon primitive as box body*
4,1,4,$2,$3,$4,$5,$6,$7,$8,$9,$2,$3,0*
0 Add four circle primitives for the rounded corners*
1,1,$1+$1,$2,$3*
1,1,$1+$1,$4,$5*
1,1,$1+$1,$6,$7*
1,1,$1+$1,$8,$9*
0 Add four rect primitives between the rounded corners*
20,1,$1+$1,$2,$3,$4,$5,0*
20,1,$1+$1,$4,$5,$6,$7,0*
20,1,$1+$1,$6,$7,$8,$9,0*
20,1,$1+$1,$8,$9,$2,$3,0*%
G04 Aperture macros list end*
%TA.AperFunction,SMDPad,CuDef*%
%ADD10R,0.600000X1.140000*%
%TD*%
%TA.AperFunction,SMDPad,CuDef*%
%ADD11R,0.300000X1.140000*%
%TD*%
%TA.AperFunction,ComponentPad*%
%ADD12O,0.900000X2.000000*%
%TD*%
%TA.AperFunction,ComponentPad*%
%ADD13O,0.900000X1.700000*%
%TD*%
%TA.AperFunction,SMDPad,CuDef*%
%ADD14R,0.480000X0.400000*%
%TD*%
%TA.AperFunction,SMDPad,CuDef*%
%ADD15RoundRect,0.200000X0.275000X-0.200000X0.275000X0.200000X-0.275000X0.200000X-0.275000X-0.200000X0*%
%TD*%
%TA.AperFunction,SMDPad,CuDef*%
%ADD16RoundRect,0.250000X0.300000X1.600000X-0.300000X1.600000X-0.300000X-1.600000X0.300000X-1.600000X0*%
%TD*%
%TA.AperFunction,SMDPad,CuDef*%
%ADD17RoundRect,0.200000X-0.275000X0.200000X-0.275000X-0.200000X0.275000X-0.200000X0.275000X0.200000X0*%
%TD*%
%TA.AperFunction,SMDPad,CuDef*%
%ADD18RoundRect,0.200000X-0.200000X-0.275000X0.200000X-0.275000X0.200000X0.275000X-0.200000X0.275000X0*%
%TD*%
%TA.AperFunction,SMDPad,CuDef*%
%ADD19RoundRect,0.250000X0.450000X-0.262500X0.450000X0.262500X-0.450000X0.262500X-0.450000X-0.262500X0*%
%TD*%
%TA.AperFunction,SMDPad,CuDef*%
%ADD20R,1.000000X0.600000*%
%TD*%
%TA.AperFunction,SMDPad,CuDef*%
%ADD21RoundRect,0.150000X-0.587500X-0.150000X0.587500X-0.150000X0.587500X0.150000X-0.587500X0.150000X0*%
%TD*%
%TA.AperFunction,SMDPad,CuDef*%
%ADD22RoundRect,0.225000X-0.225000X-0.250000X0.225000X-0.250000X0.225000X0.250000X-0.225000X0.250000X0*%
%TD*%
%TA.AperFunction,SMDPad,CuDef*%
%ADD23R,1.350000X1.800000*%
%TD*%
%TA.AperFunction,SMDPad,CuDef*%
%ADD24RoundRect,0.250000X0.650000X-0.325000X0.650000X0.325000X-0.650000X0.325000X-0.650000X-0.325000X0*%
%TD*%
%TA.AperFunction,SMDPad,CuDef*%
%ADD25R,0.400000X0.480000*%
%TD*%
%TA.AperFunction,SMDPad,CuDef*%
%ADD26RoundRect,0.250000X-1.000000X-0.650000X1.000000X-0.650000X1.000000X0.650000X-1.000000X0.650000X0*%
%TD*%
%TA.AperFunction,SMDPad,CuDef*%
%ADD27R,0.800000X0.800000*%
%TD*%
%TA.AperFunction,SMDPad,CuDef*%
%ADD28R,1.500000X0.900000*%
%TD*%
%TA.AperFunction,SMDPad,CuDef*%
%ADD29R,0.900000X1.500000*%
%TD*%
%TA.AperFunction,HeatsinkPad*%
%ADD30C,0.600000*%
%TD*%
%TA.AperFunction,HeatsinkPad*%
%ADD31R,3.900000X3.900000*%
%TD*%
%TA.AperFunction,SMDPad,CuDef*%
%ADD32R,1.800000X1.350000*%
%TD*%
%TA.AperFunction,SMDPad,CuDef*%
%ADD33RoundRect,0.150000X-0.820000X-0.150000X0.820000X-0.150000X0.820000X0.150000X-0.820000X0.150000X0*%
%TD*%
%TA.AperFunction,HeatsinkPad*%
%ADD34C,0.500000*%
%TD*%
%TA.AperFunction,HeatsinkPad*%
%ADD35R,2.620000X3.510000*%
%TD*%
%TA.AperFunction,SMDPad,CuDef*%
%ADD36RoundRect,0.225000X0.250000X-0.225000X0.250000X0.225000X-0.250000X0.225000X-0.250000X-0.225000X0*%
%TD*%
%TA.AperFunction,SMDPad,CuDef*%
%ADD37RoundRect,0.225000X0.225000X0.250000X-0.225000X0.250000X-0.225000X-0.250000X0.225000X-0.250000X0*%
%TD*%
%TA.AperFunction,ComponentPad*%
%ADD38R,1.700000X1.700000*%
%TD*%
%TA.AperFunction,ComponentPad*%
%ADD39O,1.700000X1.700000*%
%TD*%
%TA.AperFunction,SMDPad,CuDef*%
%ADD40RoundRect,0.150000X0.150000X-0.825000X0.150000X0.825000X-0.150000X0.825000X-0.150000X-0.825000X0*%
%TD*%
%TA.AperFunction,SMDPad,CuDef*%
%ADD41RoundRect,0.250000X-0.650000X0.325000X-0.650000X-0.325000X0.650000X-0.325000X0.650000X0.325000X0*%
%TD*%
%TA.AperFunction,SMDPad,CuDef*%
%ADD42RoundRect,0.250000X0.325000X0.650000X-0.325000X0.650000X-0.325000X-0.650000X0.325000X-0.650000X0*%
%TD*%
%TA.AperFunction,SMDPad,CuDef*%
%ADD43RoundRect,0.225000X-0.250000X0.225000X-0.250000X-0.225000X0.250000X-0.225000X0.250000X0.225000X0*%
%TD*%
%TA.AperFunction,SMDPad,CuDef*%
%ADD44RoundRect,0.200000X0.200000X0.275000X-0.200000X0.275000X-0.200000X-0.275000X0.200000X-0.275000X0*%
%TD*%
%TA.AperFunction,ViaPad*%
%ADD45C,0.600000*%
%TD*%
%TA.AperFunction,Conductor*%
%ADD46C,0.200000*%
%TD*%
%TA.AperFunction,Conductor*%
%ADD47C,0.500000*%
%TD*%
%TA.AperFunction,Conductor*%
%ADD48C,0.800000*%
%TD*%
%TA.AperFunction,Conductor*%
%ADD49C,0.250000*%
%TD*%
G04 APERTURE END LIST*
D10*
%TO.P,J1,A1_B12,GND*%
%TO.N,GND*%
X145300000Y-125662500D03*
%TO.P,J1,A4_B9,VBUS*%
%TO.N,VBUS*%
X146100000Y-125662500D03*
D11*
%TO.P,J1,A5,CC1*%
%TO.N,Net-(J1-CC1)*%
X147250000Y-125662500D03*
%TO.P,J1,A6,DP1*%
%TO.N,D+*%
X148250000Y-125662500D03*
%TO.P,J1,A7,DN1*%
%TO.N,D-*%
X148750000Y-125662500D03*
%TO.P,J1,A8,SBU1*%
%TO.N,unconnected-(J1-SBU1-PadA8)*%
X149750000Y-125662500D03*
D10*
%TO.P,J1,B1_A12,GND*%
%TO.N,GND*%
X151700000Y-125662500D03*
%TO.P,J1,B4_A9,VBUS*%
%TO.N,VBUS*%
X150900000Y-125662500D03*
D11*
%TO.P,J1,B5,CC2*%
%TO.N,Net-(J1-CC2)*%
X150250000Y-125662500D03*
%TO.P,J1,B6,DP2*%
%TO.N,D+*%
X149250000Y-125662500D03*
%TO.P,J1,B7,DN2*%
%TO.N,D-*%
X147750000Y-125662500D03*
%TO.P,J1,B8,SBU2*%
%TO.N,unconnected-(J1-SBU2-PadB8)*%
X146750000Y-125662500D03*
D12*
%TO.P,J1,S1,SHIELD*%
%TO.N,GND*%
X144175000Y-126242500D03*
%TO.P,J1,S2,SHIELD*%
X152825000Y-126242500D03*
D13*
%TO.P,J1,S3,SHIELD*%
X144175000Y-130412500D03*
%TO.P,J1,S4,SHIELD*%
X152825000Y-130412500D03*
%TD*%
D14*
%TO.P,D3,1*%
%TO.N,GND*%
X153000000Y-121500000D03*
%TO.P,D3,2*%
%TO.N,D-*%
X151680000Y-121500000D03*
%TD*%
D15*
%TO.P,R2,1*%
%TO.N,Net-(J1-CC2)*%
X150250000Y-124075000D03*
%TO.P,R2,2*%
%TO.N,GND*%
X150250000Y-122425000D03*
%TD*%
D16*
%TO.P,L1,1,1*%
%TO.N,Net-(U3-SW)*%
X146700000Y-103000000D03*
%TO.P,L1,2,2*%
%TO.N,+3.3V*%
X143700000Y-103000000D03*
%TD*%
D17*
%TO.P,R10,1*%
%TO.N,GND*%
X168000000Y-103175000D03*
%TO.P,R10,2*%
%TO.N,Net-(U1-IO39)*%
X168000000Y-104825000D03*
%TD*%
D18*
%TO.P,R12,1*%
%TO.N,+3.3V*%
X163925000Y-122500000D03*
%TO.P,R12,2*%
%TO.N,button*%
X165575000Y-122500000D03*
%TD*%
D19*
%TO.P,R7,1*%
%TO.N,BOOT*%
X156500000Y-125162500D03*
%TO.P,R7,2*%
%TO.N,+3.3V*%
X156500000Y-123337500D03*
%TD*%
D20*
%TO.P,D5,1,DOUT*%
%TO.N,unconnected-(D5-DOUT-Pad1)*%
X164250000Y-116000000D03*
%TO.P,D5,2,VSS*%
%TO.N,GND*%
X164250000Y-117300000D03*
%TO.P,D5,3,DIN*%
%TO.N,Net-(D5-DIN)*%
X166250000Y-117300000D03*
%TO.P,D5,4,VDD*%
%TO.N,+3.3V*%
X166250000Y-116000000D03*
%TD*%
D21*
%TO.P,Q1,1,B*%
%TO.N,Net-(Q1-B)*%
X154750000Y-110300000D03*
%TO.P,Q1,2,E*%
%TO.N,GND*%
X154750000Y-112200000D03*
%TO.P,Q1,3,C*%
%TO.N,EN*%
X156625000Y-111250000D03*
%TD*%
D22*
%TO.P,Cch340c1,1*%
%TO.N,GND*%
X139475000Y-115250000D03*
%TO.P,Cch340c1,2*%
%TO.N,+3.3V*%
X141025000Y-115250000D03*
%TD*%
D23*
%TO.P,S3,1*%
%TO.N,button*%
X167250000Y-122500000D03*
%TO.P,S3,2*%
%TO.N,GND*%
X171400000Y-122500000D03*
%TD*%
D15*
%TO.P,R1,1*%
%TO.N,Net-(J1-CC1)*%
X147250000Y-123825000D03*
%TO.P,R1,2*%
%TO.N,GND*%
X147250000Y-122175000D03*
%TD*%
%TO.P,R5,1*%
%TO.N,+3.3V*%
X136250000Y-88075000D03*
%TO.P,R5,2*%
%TO.N,Net-(J2-Pin_10)*%
X136250000Y-86425000D03*
%TD*%
D24*
%TO.P,C3,1*%
%TO.N,+3.3V*%
X133000000Y-72975000D03*
%TO.P,C3,2*%
%TO.N,GND*%
X133000000Y-70025000D03*
%TD*%
D18*
%TO.P,Rled1,1*%
%TO.N,led1*%
X164500000Y-119000000D03*
%TO.P,Rled1,2*%
%TO.N,Net-(D5-DIN)*%
X166150000Y-119000000D03*
%TD*%
D25*
%TO.P,D2,1*%
%TO.N,GND*%
X151750000Y-123000000D03*
%TO.P,D2,2*%
%TO.N,VBUS*%
X151750000Y-124320000D03*
%TD*%
D26*
%TO.P,D1,1,K*%
%TO.N,+5V*%
X137749999Y-123500000D03*
%TO.P,D1,2,A*%
%TO.N,VBUS*%
X141750001Y-123500000D03*
%TD*%
D27*
%TO.P,D7,A*%
%TO.N,Net-(D7-PadA)*%
X140750000Y-129500000D03*
%TO.P,D7,C*%
%TO.N,GND*%
X140750000Y-131000000D03*
%TD*%
D19*
%TO.P,R3,1*%
%TO.N,+3.3V*%
X164250000Y-111162500D03*
%TO.P,R3,2*%
%TO.N,EN*%
X164250000Y-109337500D03*
%TD*%
D15*
%TO.P,Rtop1,1*%
%TO.N,GND*%
X153950000Y-105825000D03*
%TO.P,Rtop1,2*%
%TO.N,Net-(U3-FB)*%
X153950000Y-104175000D03*
%TD*%
D22*
%TO.P,Cled2,1*%
%TO.N,GND*%
X164435000Y-114380000D03*
%TO.P,Cled2,2*%
%TO.N,+3.3V*%
X165985000Y-114380000D03*
%TD*%
D18*
%TO.P,Rcomp1,1*%
%TO.N,Net-(U3-COMP)*%
X157875000Y-102750000D03*
%TO.P,Rcomp1,2*%
%TO.N,GND*%
X159525000Y-102750000D03*
%TD*%
D28*
%TO.P,U1,1,GND*%
%TO.N,GND*%
X139180000Y-70230000D03*
%TO.P,U1,2,3V3*%
%TO.N,+3.3V*%
X139180000Y-71500000D03*
%TO.P,U1,3,EN*%
%TO.N,EN*%
X139180000Y-72770000D03*
%TO.P,U1,4,IO4*%
%TO.N,Net-(J2-Pin_3)*%
X139180000Y-74040000D03*
%TO.P,U1,5,IO5*%
%TO.N,Net-(J2-Pin_4)*%
X139180000Y-75310000D03*
%TO.P,U1,6,IO6*%
%TO.N,Net-(J2-Pin_5)*%
X139180000Y-76580000D03*
%TO.P,U1,7,IO7*%
%TO.N,Net-(J2-Pin_6)*%
X139180000Y-77850000D03*
%TO.P,U1,8,IO15*%
%TO.N,Net-(J2-Pin_7)*%
X139180000Y-79120000D03*
%TO.P,U1,9,IO16*%
%TO.N,Net-(J2-Pin_8)*%
X139180000Y-80390000D03*
%TO.P,U1,10,IO17*%
%TO.N,Net-(J2-Pin_9)*%
X139180000Y-81660000D03*
%TO.P,U1,11,IO18*%
%TO.N,Net-(J5-Pin_9)*%
X139180000Y-82930000D03*
%TO.P,U1,12,IO8*%
%TO.N,Net-(J2-Pin_10)*%
X139180000Y-84200000D03*
%TO.P,U1,13,USB_D-*%
%TO.N,unconnected-(U1-USB_D--Pad13)*%
X139180000Y-85470000D03*
%TO.P,U1,14,USB_D+*%
%TO.N,unconnected-(U1-USB_D+-Pad14)*%
X139180000Y-86740000D03*
D29*
%TO.P,U1,15,IO3*%
%TO.N,Net-(J5-Pin_8)*%
X140945000Y-87990000D03*
%TO.P,U1,16,IO46*%
%TO.N,unconnected-(U1-IO46-Pad16)*%
X142215000Y-87990000D03*
%TO.P,U1,17,IO9*%
%TO.N,Net-(J2-Pin_11)*%
X143485000Y-87990000D03*
%TO.P,U1,18,IO10*%
%TO.N,Net-(J5-Pin_3)*%
X144755000Y-87990000D03*
%TO.P,U1,19,IO11*%
%TO.N,Net-(J5-Pin_4)*%
X146025000Y-87990000D03*
%TO.P,U1,20,IO12*%
%TO.N,Net-(J5-Pin_5)*%
X147295000Y-87990000D03*
%TO.P,U1,21,IO13*%
%TO.N,Net-(J5-Pin_6)*%
X148565000Y-87990000D03*
%TO.P,U1,22,IO14*%
%TO.N,Net-(J5-Pin_7)*%
X149835000Y-87990000D03*
%TO.P,U1,23,IO21*%
%TO.N,Net-(J2-Pin_12)*%
X151105000Y-87990000D03*
%TO.P,U1,24,IO47*%
%TO.N,button*%
X152375000Y-87990000D03*
%TO.P,U1,25,IO48*%
%TO.N,Net-(J5-Pin_12)*%
X153645000Y-87990000D03*
%TO.P,U1,26,IO45*%
%TO.N,unconnected-(U1-IO45-Pad26)*%
X154915000Y-87990000D03*
D28*
%TO.P,U1,27,IO0*%
%TO.N,BOOT*%
X156680000Y-86740000D03*
%TO.P,U1,28,IO35*%
%TO.N,unconnected-(U1-IO35-Pad28)*%
X156680000Y-85470000D03*
%TO.P,U1,29,IO36*%
%TO.N,unconnected-(U1-IO36-Pad29)*%
X156680000Y-84200000D03*
%TO.P,U1,30,IO37*%
%TO.N,unconnected-(U1-IO37-Pad30)*%
X156680000Y-82930000D03*
%TO.P,U1,31,IO38*%
%TO.N,led1*%
X156680000Y-81660000D03*
%TO.P,U1,32,IO39*%
%TO.N,Net-(U1-IO39)*%
X156680000Y-80390000D03*
%TO.P,U1,33,IO40*%
%TO.N,led2*%
X156680000Y-79120000D03*
%TO.P,U1,34,IO41*%
%TO.N,unconnected-(U1-IO41-Pad34)*%
X156680000Y-77850000D03*
%TO.P,U1,35,IO42*%
%TO.N,unconnected-(U1-IO42-Pad35)*%
X156680000Y-76580000D03*
%TO.P,U1,36,RXD0*%
%TO.N,Net-(J4-Pin_1)*%
X156680000Y-75310000D03*
%TO.P,U1,37,TXD0*%
%TO.N,Net-(J4-Pin_2)*%
X156680000Y-74040000D03*
%TO.P,U1,38,IO2*%
%TO.N,Net-(J5-Pin_11)*%
X156680000Y-72770000D03*
%TO.P,U1,39,IO1*%
%TO.N,Net-(J5-Pin_10)*%
X156680000Y-71500000D03*
%TO.P,U1,40,GND*%
%TO.N,GND*%
X156680000Y-70230000D03*
D30*
%TO.P,U1,41,GND*%
X145030000Y-77250000D03*
X145030000Y-78650000D03*
X145730000Y-76550000D03*
X145730000Y-77950000D03*
X145730000Y-79350000D03*
X146430000Y-77250000D03*
D31*
X146430000Y-77950000D03*
D30*
X146430000Y-78650000D03*
X147130000Y-76550000D03*
X147130000Y-77950000D03*
X147130000Y-79350000D03*
X147830000Y-77250000D03*
X147830000Y-78650000D03*
%TD*%
D18*
%TO.P,R6,1*%
%TO.N,+3.3V*%
X135425000Y-90750000D03*
%TO.P,R6,2*%
%TO.N,Net-(J2-Pin_11)*%
X137075000Y-90750000D03*
%TD*%
D32*
%TO.P,S1,1*%
%TO.N,EN*%
X161250000Y-126825000D03*
%TO.P,S1,2*%
%TO.N,GND*%
X161250000Y-130975000D03*
%TD*%
D14*
%TO.P,D4,1*%
%TO.N,GND*%
X144090000Y-121500000D03*
%TO.P,D4,2*%
%TO.N,D+*%
X145410000Y-121500000D03*
%TD*%
D15*
%TO.P,R8,1*%
%TO.N,Net-(U2-~{RTS})*%
X145250000Y-112575000D03*
%TO.P,R8,2*%
%TO.N,Net-(Q1-B)*%
X145250000Y-110925000D03*
%TD*%
D22*
%TO.P,C1,1*%
%TO.N,EN*%
X160725000Y-125000000D03*
%TO.P,C1,2*%
%TO.N,GND*%
X162275000Y-125000000D03*
%TD*%
D33*
%TO.P,U3,1,BS*%
%TO.N,Net-(U3-BS)*%
X149625000Y-98720000D03*
%TO.P,U3,2,IN*%
%TO.N,+5V*%
X149625000Y-99990000D03*
%TO.P,U3,3,SW*%
%TO.N,Net-(U3-SW)*%
X149625000Y-101260000D03*
%TO.P,U3,4,GND*%
%TO.N,GND*%
X149625000Y-102530000D03*
%TO.P,U3,5,FB*%
%TO.N,Net-(U3-FB)*%
X154585000Y-102530000D03*
%TO.P,U3,6,COMP*%
%TO.N,Net-(U3-COMP)*%
X154585000Y-101260000D03*
%TO.P,U3,7,EN*%
%TO.N,+5V*%
X154585000Y-99990000D03*
%TO.P,U3,8,SS*%
%TO.N,Net-(U3-SS)*%
X154585000Y-98720000D03*
D34*
%TO.P,U3,9*%
%TO.N,N/C*%
X151405000Y-99625000D03*
X151405000Y-100625000D03*
X151405000Y-101625000D03*
D35*
X152105000Y-100625000D03*
D34*
X152805000Y-99625000D03*
X152805000Y-100625000D03*
X152805000Y-101625000D03*
%TD*%
D36*
%TO.P,C2,1*%
%TO.N,+3.3V*%
X137250000Y-71525000D03*
%TO.P,C2,2*%
%TO.N,GND*%
X137250000Y-69975000D03*
%TD*%
D37*
%TO.P,C6,1*%
%TO.N,GND*%
X168025000Y-106250000D03*
%TO.P,C6,2*%
%TO.N,Net-(U1-IO39)*%
X166475000Y-106250000D03*
%TD*%
D22*
%TO.P,Cled1,1*%
%TO.N,GND*%
X168450000Y-114500000D03*
%TO.P,Cled1,2*%
%TO.N,+3.3V*%
X170000000Y-114500000D03*
%TD*%
D18*
%TO.P,Rled2,1*%
%TO.N,led2*%
X168425000Y-119000000D03*
%TO.P,Rled2,2*%
%TO.N,Net-(D6-DIN)*%
X170075000Y-119000000D03*
%TD*%
D37*
%TO.P,Css1,1*%
%TO.N,GND*%
X159475000Y-98750000D03*
%TO.P,Css1,2*%
%TO.N,Net-(U3-SS)*%
X157925000Y-98750000D03*
%TD*%
D22*
%TO.P,Ccomp1,1*%
%TO.N,Net-(U3-COMP)*%
X157950000Y-101250000D03*
%TO.P,Ccomp1,2*%
%TO.N,GND*%
X159500000Y-101250000D03*
%TD*%
D38*
%TO.P,J2,1,Pin_1*%
%TO.N,GND*%
X125250000Y-71460000D03*
D39*
%TO.P,J2,2,Pin_2*%
%TO.N,+3.3V*%
X125250000Y-74000000D03*
%TO.P,J2,3,Pin_3*%
%TO.N,Net-(J2-Pin_3)*%
X125250000Y-76540000D03*
%TO.P,J2,4,Pin_4*%
%TO.N,Net-(J2-Pin_4)*%
X125250000Y-79080000D03*
%TO.P,J2,5,Pin_5*%
%TO.N,Net-(J2-Pin_5)*%
X125250000Y-81620000D03*
%TO.P,J2,6,Pin_6*%
%TO.N,Net-(J2-Pin_6)*%
X125250000Y-84160000D03*
%TO.P,J2,7,Pin_7*%
%TO.N,Net-(J2-Pin_7)*%
X125250000Y-86700000D03*
%TO.P,J2,8,Pin_8*%
%TO.N,Net-(J2-Pin_8)*%
X125250000Y-89240000D03*
%TO.P,J2,9,Pin_9*%
%TO.N,Net-(J2-Pin_9)*%
X125250000Y-91780000D03*
%TO.P,J2,10,Pin_10*%
%TO.N,Net-(J2-Pin_10)*%
X125250000Y-94320000D03*
%TO.P,J2,11,Pin_11*%
%TO.N,Net-(J2-Pin_11)*%
X125250000Y-96860000D03*
%TO.P,J2,12,Pin_12*%
%TO.N,Net-(J2-Pin_12)*%
X125250000Y-99400000D03*
%TO.P,J2,13,Pin_13*%
%TO.N,+5V*%
X125250000Y-101940000D03*
%TO.P,J2,14,Pin_14*%
X125250000Y-104480000D03*
%TO.P,J2,15,Pin_15*%
%TO.N,GND*%
X125250000Y-107020000D03*
%TD*%
D17*
%TO.P,R11,1*%
%TO.N,+5V*%
X166500000Y-103175000D03*
%TO.P,R11,2*%
%TO.N,Net-(U1-IO39)*%
X166500000Y-104825000D03*
%TD*%
D15*
%TO.P,Rled3,1*%
%TO.N,Net-(D7-PadA)*%
X140750000Y-128075000D03*
%TO.P,Rled3,2*%
%TO.N,+5V*%
X140750000Y-126425000D03*
%TD*%
D40*
%TO.P,U2,1,GND*%
%TO.N,GND*%
X142650000Y-119475000D03*
%TO.P,U2,2,TXD*%
%TO.N,Net-(J4-Pin_1)*%
X143920000Y-119475000D03*
%TO.P,U2,3,RXD*%
%TO.N,Net-(J4-Pin_2)*%
X145190000Y-119475000D03*
%TO.P,U2,4,V3*%
%TO.N,+3.3V*%
X146460000Y-119475000D03*
%TO.P,U2,5,UD+*%
%TO.N,D+*%
X147730000Y-119475000D03*
%TO.P,U2,6,UD-*%
%TO.N,D-*%
X149000000Y-119475000D03*
%TO.P,U2,7,NC*%
%TO.N,unconnected-(U2-NC-Pad7)*%
X150270000Y-119475000D03*
%TO.P,U2,8,NC*%
%TO.N,unconnected-(U2-NC-Pad8)*%
X151540000Y-119475000D03*
%TO.P,U2,9,~{CTS}*%
%TO.N,unconnected-(U2-~{CTS}-Pad9)*%
X151540000Y-114525000D03*
%TO.P,U2,10,~{DSR}*%
%TO.N,unconnected-(U2-~{DSR}-Pad10)*%
X150270000Y-114525000D03*
%TO.P,U2,11,~{RI}*%
%TO.N,unconnected-(U2-~{RI}-Pad11)*%
X149000000Y-114525000D03*
%TO.P,U2,12,~{DCD}*%
%TO.N,unconnected-(U2-~{DCD}-Pad12)*%
X147730000Y-114525000D03*
%TO.P,U2,13,~{DTR}*%
%TO.N,Net-(U2-~{DTR})*%
X146460000Y-114525000D03*
%TO.P,U2,14,~{RTS}*%
%TO.N,Net-(U2-~{RTS})*%
X145190000Y-114525000D03*
%TO.P,U2,15,R232*%
%TO.N,unconnected-(U2-R232-Pad15)*%
X143920000Y-114525000D03*
%TO.P,U2,16,VCC*%
%TO.N,+3.3V*%
X142650000Y-114525000D03*
%TD*%
D41*
%TO.P,Cin1,1*%
%TO.N,GND*%
X146425000Y-95025000D03*
%TO.P,Cin1,2*%
%TO.N,+5V*%
X146425000Y-97975000D03*
%TD*%
D42*
%TO.P,COUT1,1*%
%TO.N,+3.3V*%
X141925000Y-104500000D03*
%TO.P,COUT1,2*%
%TO.N,GND*%
X138975000Y-104500000D03*
%TD*%
D36*
%TO.P,Cin2,1*%
%TO.N,+5V*%
X144425000Y-98025000D03*
%TO.P,Cin2,2*%
%TO.N,GND*%
X144425000Y-96475000D03*
%TD*%
D32*
%TO.P,S2,1*%
%TO.N,BOOT*%
X156500000Y-127000000D03*
%TO.P,S2,2*%
%TO.N,GND*%
X156500000Y-131150000D03*
%TD*%
D43*
%TO.P,C5,1*%
%TO.N,+5V*%
X137250000Y-126475000D03*
%TO.P,C5,2*%
%TO.N,GND*%
X137250000Y-128025000D03*
%TD*%
D22*
%TO.P,Cbst1,1*%
%TO.N,Net-(U3-SW)*%
X145150000Y-99750000D03*
%TO.P,Cbst1,2*%
%TO.N,Net-(U3-BS)*%
X146700000Y-99750000D03*
%TD*%
%TO.P,Cch340c2,1*%
%TO.N,GND*%
X139475000Y-113750000D03*
%TO.P,Cch340c2,2*%
%TO.N,+3.3V*%
X141025000Y-113750000D03*
%TD*%
D42*
%TO.P,COUT2,1*%
%TO.N,+3.3V*%
X141925000Y-102000000D03*
%TO.P,COUT2,2*%
%TO.N,GND*%
X138975000Y-102000000D03*
%TD*%
D20*
%TO.P,D6,1,DOUT*%
%TO.N,unconnected-(D6-DOUT-Pad1)*%
X168250000Y-116150000D03*
%TO.P,D6,2,VSS*%
%TO.N,GND*%
X168250000Y-117450000D03*
%TO.P,D6,3,DIN*%
%TO.N,Net-(D6-DIN)*%
X170250000Y-117450000D03*
%TO.P,D6,4,VDD*%
%TO.N,+3.3V*%
X170250000Y-116150000D03*
%TD*%
D38*
%TO.P,J5,1,Pin_1*%
%TO.N,GND*%
X170750000Y-71460000D03*
D39*
%TO.P,J5,2,Pin_2*%
%TO.N,+3.3V*%
X170750000Y-74000000D03*
%TO.P,J5,3,Pin_3*%
%TO.N,Net-(J5-Pin_3)*%
X170750000Y-76540000D03*
%TO.P,J5,4,Pin_4*%
%TO.N,Net-(J5-Pin_4)*%
X170750000Y-79080000D03*
%TO.P,J5,5,Pin_5*%
%TO.N,Net-(J5-Pin_5)*%
X170750000Y-81620000D03*
%TO.P,J5,6,Pin_6*%
%TO.N,Net-(J5-Pin_6)*%
X170750000Y-84160000D03*
%TO.P,J5,7,Pin_7*%
%TO.N,Net-(J5-Pin_7)*%
X170750000Y-86700000D03*
%TO.P,J5,8,Pin_8*%
%TO.N,Net-(J5-Pin_8)*%
X170750000Y-89240000D03*
%TO.P,J5,9,Pin_9*%
%TO.N,Net-(J5-Pin_9)*%
X170750000Y-91780000D03*
%TO.P,J5,10,Pin_10*%
%TO.N,Net-(J5-Pin_10)*%
X170750000Y-94320000D03*
%TO.P,J5,11,Pin_11*%
%TO.N,Net-(J5-Pin_11)*%
X170750000Y-96860000D03*
%TO.P,J5,12,Pin_12*%
%TO.N,Net-(J5-Pin_12)*%
X170750000Y-99400000D03*
%TO.P,J5,13,Pin_13*%
%TO.N,+5V*%
X170750000Y-101940000D03*
%TO.P,J5,14,Pin_14*%
%TO.N,GND*%
X170750000Y-104480000D03*
%TD*%
D43*
%TO.P,C4,1*%
%TO.N,EN*%
X163750000Y-126725000D03*
%TO.P,C4,2*%
%TO.N,GND*%
X163750000Y-128275000D03*
%TD*%
D15*
%TO.P,Rbot1,1*%
%TO.N,GND*%
X155450000Y-105825000D03*
%TO.P,Rbot1,2*%
%TO.N,Net-(U3-FB)*%
X155450000Y-104175000D03*
%TD*%
D38*
%TO.P,J4,1,Pin_1*%
%TO.N,Net-(J4-Pin_1)*%
X125250000Y-119500000D03*
D39*
%TO.P,J4,2,Pin_2*%
%TO.N,Net-(J4-Pin_2)*%
X125250000Y-116960000D03*
%TO.P,J4,3,Pin_3*%
%TO.N,GND*%
X125250000Y-114420000D03*
%TO.P,J4,4,Pin_4*%
%TO.N,+3.3V*%
X125250000Y-111880000D03*
%TD*%
D44*
%TO.P,R9,1*%
%TO.N,Net-(U2-~{DTR})*%
X148325000Y-112500000D03*
%TO.P,R9,2*%
%TO.N,Net-(Q2-B)*%
X146675000Y-112500000D03*
%TD*%
D21*
%TO.P,Q2,1,B*%
%TO.N,Net-(Q2-B)*%
X156375000Y-114000000D03*
%TO.P,Q2,2,E*%
%TO.N,GND*%
X156375000Y-115900000D03*
%TO.P,Q2,3,C*%
%TO.N,BOOT*%
X158250000Y-114950000D03*
%TD*%
D45*
%TO.N,GND*%
X171500000Y-110500000D03*
X167500000Y-108500000D03*
X168025000Y-106250000D03*
X171000000Y-106500000D03*
X154750000Y-112200000D03*
X156375000Y-115900000D03*
X162275000Y-125000000D03*
X124000000Y-115500000D03*
X124000000Y-113000000D03*
X155500000Y-95500000D03*
X159475000Y-98750000D03*
X144200000Y-95000000D03*
X154360000Y-117390000D03*
X125500000Y-69500000D03*
X164250000Y-117300000D03*
X165530000Y-77470000D03*
X151750000Y-123000000D03*
X150450000Y-96000000D03*
X158340000Y-108000000D03*
X155190000Y-93920000D03*
X128750000Y-108340000D03*
X137200000Y-102000000D03*
X156500000Y-131150000D03*
X156540000Y-120410000D03*
X133680000Y-103020000D03*
X137200000Y-104500000D03*
X127510000Y-122020000D03*
X144950000Y-93750000D03*
X168250000Y-117450000D03*
X141700000Y-109750000D03*
X138975000Y-102000000D03*
X133750000Y-119750000D03*
X136250000Y-114000000D03*
X134180000Y-111340000D03*
X138975000Y-104500000D03*
X138750000Y-113750000D03*
X164620000Y-124720000D03*
X138950000Y-98750000D03*
X137250000Y-69975000D03*
X148450000Y-95500000D03*
X126870000Y-113900000D03*
X140000000Y-119750000D03*
X164435000Y-114380000D03*
X165520000Y-70740000D03*
X152950000Y-113940000D03*
X146450000Y-93500000D03*
X137700000Y-106250000D03*
X147200000Y-109750000D03*
X140950000Y-97000000D03*
X144450000Y-109750000D03*
X158390000Y-97050000D03*
X159500000Y-100000000D03*
X137200000Y-100250000D03*
X142700000Y-96750000D03*
X149450000Y-108250000D03*
X139180000Y-70230000D03*
X141000000Y-118000000D03*
X149625000Y-102530000D03*
X138750000Y-115250000D03*
X142650000Y-119475000D03*
X158880000Y-70830000D03*
X156500000Y-103000000D03*
X151450000Y-106500000D03*
X144425000Y-96475000D03*
X133940000Y-95950000D03*
X146425000Y-95025000D03*
X138950000Y-106750000D03*
X161250000Y-130975000D03*
X168000000Y-103175000D03*
X148200000Y-94000000D03*
X132500000Y-114000000D03*
X168570000Y-75010000D03*
X139200000Y-100000000D03*
X158250000Y-104250000D03*
X142430000Y-125820000D03*
X139200000Y-97250000D03*
X144000000Y-122500000D03*
X168450000Y-114500000D03*
X156680000Y-70230000D03*
X129110000Y-70480000D03*
X132500000Y-115750000D03*
X147250000Y-122175000D03*
X135010000Y-122320000D03*
X156750000Y-106500000D03*
X171400000Y-122500000D03*
X140750000Y-131000000D03*
X151700000Y-125662500D03*
X159510000Y-116690000D03*
X138970000Y-128200000D03*
X163750000Y-128275000D03*
X136250000Y-115750000D03*
X129000000Y-118000000D03*
X134750000Y-118000000D03*
X145300000Y-125662500D03*
X153000000Y-121500000D03*
X139200000Y-109250000D03*
X132500000Y-70025000D03*
X168500000Y-69500000D03*
X152700000Y-96500000D03*
X131000000Y-115000000D03*
X165610000Y-120570000D03*
X127500000Y-119750000D03*
%TO.N,EN*%
X155000000Y-73415000D03*
X163031693Y-89602190D03*
X158000000Y-74000000D03*
X163000000Y-104500000D03*
X158691942Y-86558058D03*
X164250000Y-107250000D03*
X163000000Y-91875000D03*
X163000000Y-93750000D03*
%TO.N,+3.3V*%
X157500000Y-121750000D03*
X161500000Y-121000000D03*
%TO.N,Net-(U1-IO39)*%
X166500000Y-104075000D03*
X158000000Y-80500000D03*
X166500000Y-81000000D03*
X166571117Y-82375000D03*
%TO.N,Net-(U3-BS)*%
X149625000Y-98720000D03*
X146750000Y-99750000D03*
%TO.N,+5V*%
X130000000Y-104750000D03*
X154500000Y-100000000D03*
X139500000Y-121750000D03*
X166250000Y-102000000D03*
%TO.N,D+*%
X147730000Y-119475000D03*
X148875000Y-121541942D03*
%TO.N,Net-(J2-Pin_10)*%
X131500000Y-88250000D03*
X133250000Y-87750000D03*
%TO.N,Net-(J2-Pin_5)*%
X133500000Y-77250000D03*
X131500000Y-77250000D03*
%TO.N,Net-(J2-Pin_9)*%
X131500000Y-85500000D03*
X133500000Y-85500000D03*
%TO.N,Net-(J2-Pin_11)*%
X137500000Y-93250000D03*
X142750000Y-91500000D03*
X141000000Y-92500000D03*
X135725707Y-93774293D03*
%TO.N,Net-(J2-Pin_3)*%
X131250000Y-75500000D03*
X133250000Y-75500000D03*
%TO.N,Net-(J2-Pin_8)*%
X131750000Y-82750000D03*
X133250000Y-82500000D03*
%TO.N,Net-(J2-Pin_4)*%
X130997017Y-76258949D03*
X133250000Y-76300003D03*
%TO.N,Net-(J2-Pin_12)*%
X136475707Y-94524293D03*
X151250000Y-89250000D03*
X143500000Y-91875000D03*
X138036368Y-93963632D03*
X141750000Y-93000000D03*
X145440558Y-90559442D03*
%TO.N,Net-(J2-Pin_7)*%
X133500000Y-80500000D03*
X131500000Y-80500000D03*
%TO.N,Net-(J2-Pin_6)*%
X133500000Y-78500000D03*
X131250000Y-78500000D03*
%TO.N,Net-(J4-Pin_2)*%
X141000000Y-86000000D03*
X128500000Y-113750000D03*
X131750000Y-110250000D03*
X138750000Y-87750000D03*
X132000000Y-90750000D03*
X131750000Y-93149293D03*
X131750000Y-95125000D03*
X133500000Y-89250000D03*
%TO.N,Net-(J4-Pin_1)*%
X132539117Y-95256520D03*
X132550003Y-93149293D03*
X132758949Y-91002983D03*
X132500000Y-112000000D03*
X127000000Y-117585000D03*
X141758949Y-86252983D03*
X133970068Y-89897332D03*
X139322090Y-88370829D03*
%TO.N,Net-(J5-Pin_7)*%
X157366116Y-89616116D03*
X161816942Y-89566942D03*
%TO.N,Net-(J5-Pin_5)*%
X168375001Y-82338883D03*
X163500000Y-85000000D03*
%TO.N,Net-(J5-Pin_12)*%
X158250000Y-93125000D03*
X153750000Y-89473000D03*
%TO.N,Net-(J5-Pin_6)*%
X161683058Y-86183058D03*
X165566942Y-85816942D03*
%TO.N,Net-(J5-Pin_10)*%
X168561942Y-92311942D03*
X168787500Y-87325000D03*
X166183058Y-79183058D03*
X168500000Y-90500000D03*
%TO.N,Net-(J5-Pin_4)*%
X165875000Y-84808058D03*
X164500000Y-85000000D03*
%TO.N,Net-(J5-Pin_11)*%
X161000000Y-85250000D03*
X165500000Y-87500000D03*
X167500000Y-89250000D03*
%TO.N,BOOT*%
X159116116Y-87866116D03*
X164000000Y-94000000D03*
X164000000Y-91875000D03*
X163750000Y-89250000D03*
X158250000Y-110500000D03*
X158250000Y-112000000D03*
%TO.N,button*%
X162226048Y-113590000D03*
X162286710Y-116286710D03*
X161500000Y-108250000D03*
X161250000Y-105250000D03*
X156250000Y-93125000D03*
X152949997Y-89473000D03*
%TO.N,led1*%
X162250000Y-97000000D03*
X159250000Y-93750000D03*
X163000000Y-112700000D03*
X164625000Y-99250000D03*
X163036710Y-115536710D03*
X153750000Y-85250000D03*
%TO.N,led2*%
X165250000Y-94250000D03*
X159316942Y-80000000D03*
X160000000Y-86750000D03*
X164316942Y-88316942D03*
X156680000Y-79120000D03*
X165250000Y-91875000D03*
%TO.N,Net-(J5-Pin_9)*%
X137750000Y-83575000D03*
%TD*%
D46*
%TO.N,GND*%
X144090000Y-121500000D02*
X144090000Y-122410000D01*
D47*
X145300000Y-125662500D02*
X144755000Y-125662500D01*
X144755000Y-125662500D02*
X144175000Y-126242500D01*
D48*
X149625000Y-102530000D02*
X149625000Y-104675000D01*
D47*
X139475000Y-113750000D02*
X138750000Y-113750000D01*
X139475000Y-115250000D02*
X138750000Y-115250000D01*
D46*
X144090000Y-122410000D02*
X144000000Y-122500000D01*
D47*
X152245000Y-125662500D02*
X152825000Y-126242500D01*
D48*
X150250000Y-122425000D02*
X151175000Y-122425000D01*
D47*
X151700000Y-125662500D02*
X152245000Y-125662500D01*
D48*
X151175000Y-122425000D02*
X151750000Y-123000000D01*
X149625000Y-104675000D02*
X151450000Y-106500000D01*
D49*
%TO.N,EN*%
X156625000Y-110875000D02*
X163000000Y-104500000D01*
X163000000Y-91875000D02*
X163000000Y-89633883D01*
X158691942Y-86558058D02*
X158691942Y-74691942D01*
X161250000Y-126825000D02*
X161250000Y-125525000D01*
X155000000Y-73415000D02*
X154355000Y-72770000D01*
D47*
X164250000Y-109337500D02*
X164250000Y-107250000D01*
D49*
X161325000Y-126750000D02*
X161250000Y-126825000D01*
X156625000Y-111250000D02*
X156625000Y-110875000D01*
X163000000Y-104500000D02*
X163000000Y-93750000D01*
X161250000Y-125525000D02*
X160725000Y-125000000D01*
X163000000Y-89633883D02*
X163031693Y-89602190D01*
X160725000Y-125000000D02*
X160725000Y-113475000D01*
X158691942Y-74691942D02*
X158000000Y-74000000D01*
X163750000Y-126750000D02*
X161325000Y-126750000D01*
X160725000Y-113475000D02*
X158500000Y-111250000D01*
X154355000Y-72770000D02*
X139180000Y-72770000D01*
X158500000Y-111250000D02*
X156625000Y-111250000D01*
%TO.N,+3.3V*%
X135701000Y-88624000D02*
X132626000Y-88624000D01*
X126000000Y-112500000D02*
X125870000Y-112500000D01*
D47*
X161500000Y-115500000D02*
X164250000Y-112750000D01*
X141025000Y-113750000D02*
X141875000Y-113750000D01*
X132500000Y-89487925D02*
X132500000Y-88750000D01*
D48*
X143700000Y-103000000D02*
X143425000Y-103000000D01*
D47*
X141750000Y-114525000D02*
X141025000Y-115250000D01*
X142650000Y-104050000D02*
X142650000Y-114525000D01*
X126324000Y-112824000D02*
X126000000Y-112500000D01*
X139180000Y-71500000D02*
X137275000Y-71500000D01*
X166000000Y-115750000D02*
X166250000Y-116000000D01*
X156500000Y-123337500D02*
X156500000Y-122750000D01*
X133950000Y-71525000D02*
X132500000Y-72975000D01*
X146460000Y-118500001D02*
X144959999Y-117000000D01*
X146460000Y-119475000D02*
X146460000Y-118500001D01*
D49*
X161500000Y-121000000D02*
X163000000Y-122500000D01*
D48*
X143425000Y-103000000D02*
X141925000Y-104500000D01*
D47*
X143700000Y-103000000D02*
X142650000Y-104050000D01*
D49*
X135425000Y-90825000D02*
X134631037Y-91618963D01*
D47*
X153308000Y-71500000D02*
X155479000Y-69329000D01*
X141875000Y-113750000D02*
X142650000Y-114525000D01*
X164250000Y-112750000D02*
X166000000Y-114500000D01*
D49*
X125870000Y-112500000D02*
X125250000Y-111880000D01*
D48*
X143700000Y-103000000D02*
X142925000Y-103000000D01*
D47*
X170000000Y-115900000D02*
X170250000Y-116150000D01*
X142650000Y-114525000D02*
X140949000Y-112824000D01*
X169074000Y-113574000D02*
X170000000Y-114500000D01*
X164250000Y-111162500D02*
X164250000Y-112750000D01*
X137250000Y-71525000D02*
X133950000Y-71525000D01*
D48*
X142925000Y-103000000D02*
X141925000Y-102000000D01*
D47*
X140175000Y-97162925D02*
X134631037Y-91618963D01*
D49*
X156500000Y-122782678D02*
X150717322Y-117000000D01*
D47*
X144959999Y-117000000D02*
X143500000Y-117000000D01*
X166000000Y-114500000D02*
X166926000Y-113574000D01*
X161500000Y-121000000D02*
X161500000Y-115500000D01*
D49*
X156500000Y-123337500D02*
X156500000Y-122782678D01*
D47*
X126275000Y-72975000D02*
X132500000Y-72975000D01*
X125250000Y-74000000D02*
X126275000Y-72975000D01*
X140949000Y-112824000D02*
X126324000Y-112824000D01*
D49*
X150717322Y-117000000D02*
X144959999Y-117000000D01*
D47*
X137275000Y-71500000D02*
X137250000Y-71525000D01*
D49*
X132626000Y-88624000D02*
X132500000Y-88750000D01*
X135425000Y-90750000D02*
X135425000Y-90825000D01*
D47*
X142650000Y-114525000D02*
X141750000Y-114525000D01*
X139180000Y-71500000D02*
X153308000Y-71500000D01*
D49*
X163000000Y-122500000D02*
X163925000Y-122500000D01*
D47*
X166926000Y-113574000D02*
X169074000Y-113574000D01*
X166000000Y-114500000D02*
X166000000Y-115750000D01*
X170000000Y-114500000D02*
X170000000Y-115900000D01*
X134631037Y-91618963D02*
X132500000Y-89487925D01*
D49*
X136250000Y-88075000D02*
X135701000Y-88624000D01*
D47*
X141925000Y-102000000D02*
X140175000Y-100250000D01*
X140175000Y-100250000D02*
X140175000Y-97162925D01*
X166079000Y-69329000D02*
X170750000Y-74000000D01*
X143500000Y-117000000D02*
X142650000Y-116150000D01*
X132500000Y-88750000D02*
X132500000Y-72975000D01*
X142650000Y-116150000D02*
X142650000Y-114525000D01*
X126000000Y-112500000D02*
X125250000Y-111750000D01*
X155479000Y-69329000D02*
X166079000Y-69329000D01*
X156500000Y-122750000D02*
X157500000Y-121750000D01*
D48*
%TO.N,Net-(U1-IO39)*%
X166500000Y-104825000D02*
X166500000Y-106225000D01*
D47*
X166500000Y-104825000D02*
X166500000Y-104075000D01*
X166571117Y-82375000D02*
X166571117Y-81071117D01*
X158000000Y-80500000D02*
X156790000Y-80500000D01*
X166571117Y-81071117D02*
X166500000Y-81000000D01*
X156790000Y-80500000D02*
X156680000Y-80390000D01*
D48*
X166500000Y-106225000D02*
X166475000Y-106250000D01*
X166500000Y-104825000D02*
X168000000Y-104825000D01*
D49*
%TO.N,Net-(U3-BS)*%
X146700000Y-99750000D02*
X146750000Y-99750000D01*
%TO.N,Net-(U3-SW)*%
X145150000Y-99750000D02*
X145150000Y-101450000D01*
D48*
X148440000Y-101260000D02*
X146700000Y-103000000D01*
X149625000Y-101260000D02*
X148440000Y-101260000D01*
D49*
X145150000Y-101450000D02*
X146700000Y-103000000D01*
%TO.N,Net-(U3-COMP)*%
X154595000Y-101250000D02*
X154585000Y-101260000D01*
X157875000Y-102750000D02*
X156385000Y-101260000D01*
X156385000Y-101260000D02*
X154585000Y-101260000D01*
X157950000Y-101250000D02*
X154595000Y-101250000D01*
D48*
%TO.N,+5V*%
X154510000Y-99990000D02*
X154500000Y-100000000D01*
X125250000Y-101940000D02*
X125250000Y-104480000D01*
X144425000Y-98025000D02*
X146375000Y-98025000D01*
X146843768Y-97975000D02*
X148858768Y-99990000D01*
X137250000Y-124000000D02*
X137750000Y-123500000D01*
X140700000Y-126475000D02*
X140750000Y-126425000D01*
X127190000Y-101940000D02*
X130000000Y-104750000D01*
X139500000Y-121750000D02*
X137750000Y-123500000D01*
X125250000Y-101940000D02*
X127190000Y-101940000D01*
X137250000Y-126475000D02*
X137250000Y-124000000D01*
X166310000Y-101940000D02*
X166250000Y-102000000D01*
X170750000Y-101940000D02*
X166310000Y-101940000D01*
X146425000Y-97975000D02*
X146843768Y-97975000D01*
X148858768Y-99990000D02*
X149625000Y-99990000D01*
X146375000Y-98025000D02*
X146425000Y-97975000D01*
X166250000Y-102925000D02*
X166500000Y-103175000D01*
X154585000Y-99990000D02*
X154510000Y-99990000D01*
X166250000Y-102000000D02*
X166250000Y-102925000D01*
X137250000Y-126475000D02*
X140700000Y-126475000D01*
D49*
%TO.N,Net-(U3-SS)*%
X154615000Y-98750000D02*
X154585000Y-98720000D01*
X157925000Y-98750000D02*
X154615000Y-98750000D01*
%TO.N,VBUS*%
X146100000Y-125662500D02*
X146100000Y-126266492D01*
X150083500Y-127201000D02*
X150726000Y-126558500D01*
X150726000Y-125836500D02*
X150900000Y-125662500D01*
D47*
X146100000Y-125662500D02*
X146100000Y-124600000D01*
D49*
X147034508Y-127201000D02*
X150083500Y-127201000D01*
D47*
X145000000Y-123500000D02*
X141750000Y-123500000D01*
X146100000Y-124600000D02*
X145000000Y-123500000D01*
D49*
X150900000Y-124720000D02*
X150900000Y-125662500D01*
X151300000Y-124320000D02*
X150900000Y-124720000D01*
X150726000Y-126558500D02*
X150726000Y-125836500D01*
X151750000Y-124320000D02*
X151300000Y-124320000D01*
X146100000Y-126266492D02*
X147034508Y-127201000D01*
%TO.N,D-*%
X147750000Y-125662500D02*
X147750000Y-124790500D01*
X148250000Y-124500000D02*
X148250000Y-121199999D01*
X147750000Y-124790500D02*
X148040500Y-124500000D01*
X150050001Y-121500000D02*
X151680000Y-121500000D01*
X149000000Y-120449999D02*
X150050001Y-121500000D01*
X149000000Y-119475000D02*
X149000000Y-120449999D01*
X148750000Y-124790500D02*
X148750000Y-125662500D01*
X148250000Y-124500000D02*
X148459500Y-124500000D01*
X148040500Y-124500000D02*
X148250000Y-124500000D01*
X148459500Y-124500000D02*
X148750000Y-124790500D01*
X148250000Y-121199999D02*
X149000000Y-120449999D01*
%TO.N,D+*%
X146679999Y-121500000D02*
X145410000Y-121500000D01*
X147730000Y-120449999D02*
X146679999Y-121500000D01*
X148701000Y-122000000D02*
X148701000Y-121715942D01*
X147730000Y-119475000D02*
X147730000Y-120449999D01*
X148250000Y-125662500D02*
X148250000Y-126500000D01*
X149034500Y-126750000D02*
X149250000Y-126534500D01*
X148701000Y-121715942D02*
X148875000Y-121541942D01*
X149250000Y-124652690D02*
X148701000Y-124103690D01*
X148701000Y-124103690D02*
X148701000Y-122000000D01*
X148250000Y-126500000D02*
X148500000Y-126750000D01*
X148500000Y-126750000D02*
X149034500Y-126750000D01*
X149250000Y-126534500D02*
X149250000Y-125662500D01*
X149250000Y-125662500D02*
X149250000Y-124652690D01*
%TO.N,Net-(D5-DIN)*%
X166150000Y-119000000D02*
X166150000Y-117400000D01*
X166150000Y-117400000D02*
X166250000Y-117300000D01*
%TO.N,Net-(D6-DIN)*%
X170075000Y-117625000D02*
X170250000Y-117450000D01*
X170075000Y-119000000D02*
X170075000Y-117625000D01*
%TO.N,Net-(D7-PadA)*%
X140750000Y-129500000D02*
X140750000Y-128075000D01*
%TO.N,Net-(J1-CC1)*%
X147250000Y-125662500D02*
X147250000Y-123825000D01*
%TO.N,Net-(J1-CC2)*%
X150250000Y-124075000D02*
X150250000Y-125662500D01*
%TO.N,Net-(J2-Pin_10)*%
X136250000Y-84750000D02*
X136375000Y-84625000D01*
X133250000Y-87750000D02*
X136375000Y-84625000D01*
X136250000Y-86425000D02*
X136250000Y-84750000D01*
X136375000Y-84625000D02*
X136800000Y-84200000D01*
X125250000Y-94320000D02*
X131320000Y-88250000D01*
X131320000Y-88250000D02*
X131500000Y-88250000D01*
X136800000Y-84200000D02*
X139180000Y-84200000D01*
%TO.N,Net-(J2-Pin_5)*%
X129620000Y-77250000D02*
X131500000Y-77250000D01*
X138686000Y-77074000D02*
X139180000Y-76580000D01*
X133676000Y-77074000D02*
X138686000Y-77074000D01*
X133500000Y-77250000D02*
X133676000Y-77074000D01*
X125250000Y-81620000D02*
X129620000Y-77250000D01*
%TO.N,Net-(J2-Pin_9)*%
X133500000Y-85500000D02*
X137340000Y-81660000D01*
X125250000Y-91780000D02*
X131500000Y-85530000D01*
X137340000Y-81660000D02*
X139180000Y-81660000D01*
X131500000Y-85530000D02*
X131500000Y-85500000D01*
%TO.N,Net-(J2-Pin_11)*%
X137075000Y-91325000D02*
X138250000Y-92500000D01*
X135725707Y-93774293D02*
X128335707Y-93774293D01*
X128335707Y-93774293D02*
X125250000Y-96860000D01*
X138250000Y-92500000D02*
X137500000Y-93250000D01*
X143485000Y-87990000D02*
X143485000Y-90765000D01*
X137075000Y-90750000D02*
X137075000Y-91325000D01*
X141000000Y-92500000D02*
X138250000Y-92500000D01*
X143485000Y-90765000D02*
X142750000Y-91500000D01*
%TO.N,Net-(J2-Pin_3)*%
X125250000Y-76540000D02*
X126290000Y-75500000D01*
X126290000Y-75500000D02*
X131250000Y-75500000D01*
X134710000Y-74040000D02*
X139180000Y-74040000D01*
X133250000Y-75500000D02*
X134710000Y-74040000D01*
%TO.N,Net-(J2-Pin_8)*%
X131740000Y-82750000D02*
X131750000Y-82750000D01*
X135360000Y-80390000D02*
X139180000Y-80390000D01*
X125250000Y-89240000D02*
X131740000Y-82750000D01*
X133250000Y-82500000D02*
X135360000Y-80390000D01*
%TO.N,Net-(J2-Pin_4)*%
X128071051Y-76258949D02*
X130997017Y-76258949D01*
X134449997Y-76300003D02*
X135440000Y-75310000D01*
X135440000Y-75310000D02*
X139180000Y-75310000D01*
X125250000Y-79080000D02*
X128071051Y-76258949D01*
X133250000Y-76300003D02*
X134449997Y-76300003D01*
%TO.N,Net-(J2-Pin_12)*%
X136451414Y-94500000D02*
X129500000Y-94500000D01*
X141750000Y-93000000D02*
X140786368Y-93963632D01*
X127100000Y-99400000D02*
X125250000Y-99400000D01*
X151105000Y-89105000D02*
X151250000Y-89250000D01*
X151105000Y-87990000D02*
X151105000Y-89105000D01*
X127500000Y-99000000D02*
X127100000Y-99400000D01*
X129500000Y-94500000D02*
X127500000Y-96500000D01*
X145440558Y-90559442D02*
X144815558Y-90559442D01*
X136475707Y-94524293D02*
X136451414Y-94500000D01*
X127500000Y-96500000D02*
X127500000Y-99000000D01*
X140786368Y-93963632D02*
X138036368Y-93963632D01*
X144815558Y-90559442D02*
X143500000Y-91875000D01*
%TO.N,Net-(J2-Pin_7)*%
X131450000Y-80500000D02*
X131500000Y-80500000D01*
X133500000Y-80500000D02*
X134880000Y-79120000D01*
X134880000Y-79120000D02*
X139180000Y-79120000D01*
X125250000Y-86700000D02*
X131450000Y-80500000D01*
%TO.N,Net-(J2-Pin_6)*%
X125250000Y-84160000D02*
X130910000Y-78500000D01*
X130910000Y-78500000D02*
X131250000Y-78500000D01*
X134150000Y-77850000D02*
X139180000Y-77850000D01*
X133500000Y-78500000D02*
X134150000Y-77850000D01*
%TO.N,Net-(J4-Pin_2)*%
X131750000Y-95125000D02*
X131750000Y-110330000D01*
X145190000Y-118500001D02*
X144689999Y-118000000D01*
X137250000Y-89250000D02*
X133500000Y-89250000D01*
D46*
X145788000Y-74040000D02*
X156680000Y-74040000D01*
D49*
X145788000Y-74040000D02*
X141000000Y-78828000D01*
X131750000Y-91000000D02*
X131750000Y-93149293D01*
X145190000Y-119475000D02*
X145190000Y-118500001D01*
X128460000Y-113750000D02*
X128500000Y-113750000D01*
X131750000Y-110330000D02*
X131750000Y-110250000D01*
X141000000Y-78828000D02*
X141000000Y-86000000D01*
X143000000Y-118000000D02*
X141960000Y-116960000D01*
X141960000Y-116960000D02*
X125250000Y-116960000D01*
X145190000Y-119475000D02*
X145190000Y-119857322D01*
X138750000Y-87750000D02*
X137250000Y-89250000D01*
X132000000Y-90750000D02*
X131750000Y-91000000D01*
X125250000Y-116960000D02*
X128460000Y-113750000D01*
X144689999Y-118000000D02*
X143000000Y-118000000D01*
%TO.N,Net-(J4-Pin_1)*%
X125250000Y-119500000D02*
X125935707Y-118814293D01*
X132539117Y-112039117D02*
X132500000Y-112000000D01*
X125935707Y-118685707D02*
X125251414Y-119370000D01*
X125250000Y-119335000D02*
X127000000Y-117585000D01*
X133970068Y-89897332D02*
X137795587Y-89897332D01*
X143920000Y-120449999D02*
X143369999Y-121000000D01*
X126750000Y-121000000D02*
X125250000Y-119500000D01*
X132550003Y-91211929D02*
X132758949Y-91002983D01*
X125250000Y-119500000D02*
X125250000Y-119335000D01*
X143920000Y-119475000D02*
X143920000Y-118920000D01*
X143369999Y-121000000D02*
X126750000Y-121000000D01*
X137795587Y-89897332D02*
X139322090Y-88370829D01*
X132550003Y-93149293D02*
X132550003Y-91211929D01*
X144497017Y-86252983D02*
X150250000Y-80500000D01*
X125935707Y-118814293D02*
X125935707Y-118685707D01*
D46*
X151690000Y-75310000D02*
X156680000Y-75310000D01*
D49*
X143920000Y-119475000D02*
X143920000Y-120449999D01*
X132539117Y-112080883D02*
X132539117Y-112039117D01*
X141758949Y-86252983D02*
X144497017Y-86252983D01*
X132539117Y-112080883D02*
X132539117Y-95256520D01*
X143920000Y-119475000D02*
X143920000Y-119092678D01*
X150250000Y-76750000D02*
X151690000Y-75310000D01*
X125251414Y-119370000D02*
X125250000Y-119370000D01*
X150250000Y-80500000D02*
X150250000Y-76750000D01*
%TO.N,Net-(J5-Pin_7)*%
X162183058Y-89566942D02*
X165050000Y-86700000D01*
X165050000Y-86700000D02*
X170750000Y-86700000D01*
X149835000Y-88990000D02*
X150943000Y-90098000D01*
X150943000Y-90098000D02*
X156750000Y-90098000D01*
X156884232Y-90098000D02*
X157366116Y-89616116D01*
X161816942Y-89566942D02*
X162183058Y-89566942D01*
X156750000Y-90098000D02*
X156884232Y-90098000D01*
X149835000Y-87990000D02*
X149835000Y-88990000D01*
%TO.N,Net-(J5-Pin_5)*%
X147295000Y-90045000D02*
X147295000Y-87990000D01*
X163500000Y-85250000D02*
X157750000Y-91000000D01*
X170750000Y-81620000D02*
X169093884Y-81620000D01*
X163500000Y-85000000D02*
X163500000Y-85250000D01*
X169093884Y-81620000D02*
X168375001Y-82338883D01*
X148250000Y-91000000D02*
X147295000Y-90045000D01*
X157750000Y-91000000D02*
X148250000Y-91000000D01*
%TO.N,Net-(J5-Pin_12)*%
X165125000Y-93125000D02*
X167250000Y-95250000D01*
X167250000Y-98500000D02*
X168500000Y-99750000D01*
X158250000Y-93125000D02*
X165125000Y-93125000D01*
X170400000Y-99750000D02*
X170750000Y-99400000D01*
X167250000Y-95250000D02*
X167250000Y-98500000D01*
X153645000Y-89368000D02*
X153750000Y-89473000D01*
X168500000Y-99750000D02*
X170400000Y-99750000D01*
X153645000Y-87990000D02*
X153645000Y-89368000D01*
%TO.N,Net-(J5-Pin_6)*%
X169160000Y-85750000D02*
X170750000Y-84160000D01*
X148750000Y-90549000D02*
X157500000Y-90549000D01*
X165566942Y-85816942D02*
X165633884Y-85750000D01*
X148565000Y-87990000D02*
X148565000Y-90364000D01*
X157500000Y-90366116D02*
X161683058Y-86183058D01*
X148565000Y-90364000D02*
X148750000Y-90549000D01*
X157500000Y-90549000D02*
X157500000Y-90366116D01*
X165633884Y-85750000D02*
X169160000Y-85750000D01*
%TO.N,Net-(J5-Pin_10)*%
X166183058Y-79183058D02*
X166000000Y-79000000D01*
X168561942Y-92311942D02*
X168741942Y-92311942D01*
X164762000Y-79000000D02*
X157262000Y-71500000D01*
X168741942Y-92311942D02*
X170750000Y-94320000D01*
X157262000Y-71500000D02*
X156680000Y-71500000D01*
X168787500Y-87325000D02*
X168787500Y-90212500D01*
X168787500Y-90212500D02*
X168500000Y-90500000D01*
X166000000Y-79000000D02*
X164762000Y-79000000D01*
%TO.N,Net-(J5-Pin_4)*%
X148000000Y-91500000D02*
X158000000Y-91500000D01*
X146025000Y-89525000D02*
X148000000Y-91500000D01*
X158000000Y-91500000D02*
X164500000Y-85000000D01*
X166080000Y-83750000D02*
X170750000Y-79080000D01*
X166080000Y-84603058D02*
X166080000Y-83750000D01*
X146025000Y-87990000D02*
X146025000Y-89525000D01*
X165875000Y-84808058D02*
X166080000Y-84603058D01*
%TO.N,Net-(J5-Pin_11)*%
X156680000Y-72770000D02*
X157894190Y-72770000D01*
X161000000Y-75875810D02*
X161000000Y-85250000D01*
X165750000Y-87500000D02*
X165500000Y-87500000D01*
X157894190Y-72770000D02*
X161000000Y-75875810D01*
X167500000Y-89250000D02*
X165750000Y-87500000D01*
%TO.N,Net-(J5-Pin_3)*%
X158500000Y-92000000D02*
X165250000Y-85250000D01*
X165250000Y-85250000D02*
X165250000Y-81000000D01*
X144755000Y-88990000D02*
X147765000Y-92000000D01*
X144755000Y-87990000D02*
X144755000Y-88990000D01*
X165250000Y-81000000D02*
X169710000Y-76540000D01*
X147765000Y-92000000D02*
X158500000Y-92000000D01*
X169710000Y-76540000D02*
X170750000Y-76540000D01*
%TO.N,Net-(Q1-B)*%
X154125000Y-110925000D02*
X145250000Y-110925000D01*
X154750000Y-110300000D02*
X154125000Y-110925000D01*
%TO.N,BOOT*%
X164000000Y-89500000D02*
X163750000Y-89250000D01*
X158250000Y-114950000D02*
X158250000Y-112000000D01*
X164000000Y-104750000D02*
X164000000Y-94000000D01*
X156500000Y-126000000D02*
X156500000Y-125162500D01*
X157990000Y-86740000D02*
X156680000Y-86740000D01*
X164000000Y-91875000D02*
X164000000Y-89500000D01*
X156500000Y-127000000D02*
X156500000Y-126000000D01*
X158250000Y-110500000D02*
X164000000Y-104750000D01*
X159116116Y-87866116D02*
X157990000Y-86740000D01*
X158250000Y-124250000D02*
X158250000Y-114950000D01*
X156500000Y-126000000D02*
X158250000Y-124250000D01*
%TO.N,Net-(Q2-B)*%
X152376000Y-111376000D02*
X147799000Y-111376000D01*
X155000000Y-114000000D02*
X152376000Y-111376000D01*
X156375000Y-114000000D02*
X155000000Y-114000000D01*
X147799000Y-111376000D02*
X146675000Y-112500000D01*
%TO.N,Net-(U2-~{RTS})*%
X145250000Y-114465000D02*
X145190000Y-114525000D01*
X145250000Y-112575000D02*
X145250000Y-114465000D01*
%TO.N,Net-(U2-~{DTR})*%
X146460000Y-113965000D02*
X146460000Y-114525000D01*
X147925000Y-112500000D02*
X146460000Y-113965000D01*
X148325000Y-112500000D02*
X147925000Y-112500000D01*
%TO.N,button*%
X165575000Y-122500000D02*
X162286710Y-119211710D01*
X167250000Y-122500000D02*
X165575000Y-122500000D01*
X162226048Y-108976048D02*
X161500000Y-108250000D01*
X162286710Y-119211710D02*
X162286710Y-116286710D01*
X152375000Y-88898003D02*
X152375000Y-87990000D01*
X152949997Y-89473000D02*
X152375000Y-88898003D01*
X161250000Y-105250000D02*
X161250000Y-98125000D01*
X161250000Y-98125000D02*
X156250000Y-93125000D01*
X162226048Y-113590000D02*
X162226048Y-108976048D01*
%TO.N,Net-(U3-FB)*%
X155450000Y-104175000D02*
X155450000Y-103395000D01*
X155450000Y-103395000D02*
X154585000Y-102530000D01*
X153950000Y-103165000D02*
X154585000Y-102530000D01*
X153950000Y-104175000D02*
X153950000Y-103165000D01*
%TO.N,led1*%
X163000000Y-107500000D02*
X164625000Y-105875000D01*
X155680000Y-81660000D02*
X156680000Y-81660000D01*
X153750000Y-83590000D02*
X155680000Y-81660000D01*
X163000000Y-112700000D02*
X163000000Y-107500000D01*
X164625000Y-105875000D02*
X164625000Y-99250000D01*
X162250000Y-97000000D02*
X159250000Y-94000000D01*
X164500000Y-119000000D02*
X163036710Y-117536710D01*
X159250000Y-94000000D02*
X159250000Y-93750000D01*
X153750000Y-85250000D02*
X153750000Y-83590000D01*
X163036710Y-117536710D02*
X163036710Y-115536710D01*
%TO.N,led2*%
X165440000Y-109690000D02*
X165440000Y-94440000D01*
X169424000Y-118001000D02*
X169424000Y-116824000D01*
X160000000Y-86750000D02*
X160000000Y-80683058D01*
X165250000Y-91875000D02*
X165250000Y-89250000D01*
X167500000Y-111750000D02*
X165440000Y-109690000D01*
X165250000Y-89250000D02*
X164316942Y-88316942D01*
X171076000Y-113076000D02*
X169750000Y-111750000D01*
X169750000Y-111750000D02*
X167500000Y-111750000D01*
X160000000Y-80683058D02*
X159316942Y-80000000D01*
X168425000Y-119000000D02*
X169424000Y-118001000D01*
X169424000Y-116824000D02*
X169472000Y-116776000D01*
X171076000Y-116776000D02*
X171076000Y-113076000D01*
X165440000Y-94440000D02*
X165250000Y-94250000D01*
X169472000Y-116776000D02*
X171076000Y-116776000D01*
%TO.N,Net-(J5-Pin_9)*%
X138395000Y-82930000D02*
X137750000Y-83575000D01*
X139180000Y-82930000D02*
X138395000Y-82930000D01*
%TO.N,Net-(J5-Pin_8)*%
X167490000Y-92500000D02*
X170750000Y-89240000D01*
X142250000Y-92500000D02*
X167490000Y-92500000D01*
X140945000Y-87990000D02*
X140945000Y-91195000D01*
X140945000Y-91195000D02*
X142250000Y-92500000D01*
%TD*%
%TA.AperFunction,Conductor*%
%TO.N,GND*%
G36*
X123872466Y-64337690D02*
G01*
X123918510Y-64390242D01*
X123930000Y-64442372D01*
X123930000Y-65357192D01*
X123929735Y-65365301D01*
X123929500Y-65368886D01*
X123929500Y-65631114D01*
X123929735Y-65634700D01*
X123930000Y-65642809D01*
X123930000Y-68740000D01*
X132094286Y-68740000D01*
X132161325Y-68759685D01*
X132207080Y-68812489D01*
X132217024Y-68881647D01*
X132187999Y-68945203D01*
X132133290Y-68981706D01*
X132030880Y-69015641D01*
X132030875Y-69015643D01*
X131881654Y-69107684D01*
X131757684Y-69231654D01*
X131665643Y-69380875D01*
X131665641Y-69380880D01*
X131610494Y-69547302D01*
X131610493Y-69547309D01*
X131600000Y-69650013D01*
X131600000Y-69775000D01*
X134399999Y-69775000D01*
X134399999Y-69701677D01*
X136275000Y-69701677D01*
X136275000Y-69725000D01*
X137000000Y-69725000D01*
X137000000Y-69025000D01*
X136999999Y-69024999D01*
X136951693Y-69025000D01*
X136951675Y-69025001D01*
X136852392Y-69035144D01*
X136691518Y-69088452D01*
X136691507Y-69088457D01*
X136547271Y-69177424D01*
X136547267Y-69177427D01*
X136427427Y-69297267D01*
X136427424Y-69297271D01*
X136338457Y-69441507D01*
X136338452Y-69441518D01*
X136285144Y-69602393D01*
X136275000Y-69701677D01*
X134399999Y-69701677D01*
X134399999Y-69650028D01*
X134399998Y-69650013D01*
X134389505Y-69547302D01*
X134334358Y-69380880D01*
X134334356Y-69380875D01*
X134242315Y-69231654D01*
X134118345Y-69107684D01*
X133969124Y-69015643D01*
X133969119Y-69015641D01*
X133866708Y-68981706D01*
X133809263Y-68941934D01*
X133782440Y-68877418D01*
X133794755Y-68808642D01*
X133842298Y-68757442D01*
X133905712Y-68740000D01*
X154707271Y-68740000D01*
X154774310Y-68759685D01*
X154820065Y-68812489D01*
X154830009Y-68881647D01*
X154800984Y-68945203D01*
X154794953Y-68951679D01*
X153895632Y-69851000D01*
X153033451Y-70713181D01*
X152972128Y-70746666D01*
X152945770Y-70749500D01*
X140554000Y-70749500D01*
X140486961Y-70729815D01*
X140441206Y-70677011D01*
X140430000Y-70625500D01*
X140430000Y-70480000D01*
X139304000Y-70480000D01*
X139236961Y-70460315D01*
X139191206Y-70407511D01*
X139180000Y-70356000D01*
X139180000Y-70230000D01*
X139054000Y-70230000D01*
X138986961Y-70210315D01*
X138941206Y-70157511D01*
X138930000Y-70106000D01*
X138930000Y-69980000D01*
X139430000Y-69980000D01*
X140430000Y-69980000D01*
X140430000Y-69732172D01*
X140429999Y-69732155D01*
X140423598Y-69672627D01*
X140423596Y-69672620D01*
X140373354Y-69537913D01*
X140373350Y-69537906D01*
X140287190Y-69422812D01*
X140287187Y-69422809D01*
X140172093Y-69336649D01*
X140172086Y-69336645D01*
X140037379Y-69286403D01*
X140037372Y-69286401D01*
X139977844Y-69280000D01*
X139430000Y-69280000D01*
X139430000Y-69980000D01*
X138930000Y-69980000D01*
X138930000Y-69280000D01*
X138382155Y-69280000D01*
X138322627Y-69286401D01*
X138322620Y-69286403D01*
X138207251Y-69329433D01*
X138137559Y-69334417D01*
X138076237Y-69300932D01*
X137952732Y-69177427D01*
X137952728Y-69177424D01*
X137808492Y-69088457D01*
X137808481Y-69088452D01*
X137647606Y-69035144D01*
X137548322Y-69025000D01*
X137500000Y-69025000D01*
X137500000Y-69851000D01*
X137480315Y-69918039D01*
X137427511Y-69963794D01*
X137376000Y-69975000D01*
X137250000Y-69975000D01*
X137250000Y-70101000D01*
X137230315Y-70168039D01*
X137177511Y-70213794D01*
X137126000Y-70225000D01*
X136275001Y-70225000D01*
X136275001Y-70248322D01*
X136285144Y-70347607D01*
X136338452Y-70508481D01*
X136338457Y-70508492D01*
X136385897Y-70585403D01*
X136404338Y-70652795D01*
X136383416Y-70719459D01*
X136329774Y-70764228D01*
X136280359Y-70774500D01*
X134471159Y-70774500D01*
X134404120Y-70754815D01*
X134358365Y-70702011D01*
X134348421Y-70632853D01*
X134353453Y-70611496D01*
X134389505Y-70502697D01*
X134389506Y-70502690D01*
X134399999Y-70399986D01*
X134400000Y-70399973D01*
X134400000Y-70275000D01*
X133250000Y-70275000D01*
X133250000Y-71112269D01*
X133230315Y-71179308D01*
X133213681Y-71199950D01*
X132550449Y-71863181D01*
X132489126Y-71896666D01*
X132462769Y-71899500D01*
X132299999Y-71899500D01*
X132299980Y-71899501D01*
X132197203Y-71910000D01*
X132197200Y-71910001D01*
X132030668Y-71965185D01*
X132030663Y-71965187D01*
X131881342Y-72057289D01*
X131752181Y-72186451D01*
X131750294Y-72184564D01*
X131703375Y-72217788D01*
X131663132Y-72224500D01*
X126724000Y-72224500D01*
X126656961Y-72204815D01*
X126611206Y-72152011D01*
X126600000Y-72100500D01*
X126600000Y-71710000D01*
X125683012Y-71710000D01*
X125715925Y-71652993D01*
X125750000Y-71525826D01*
X125750000Y-71394174D01*
X125715925Y-71267007D01*
X125683012Y-71210000D01*
X126600000Y-71210000D01*
X126600000Y-70562172D01*
X126599999Y-70562155D01*
X126593598Y-70502627D01*
X126593596Y-70502620D01*
X126555316Y-70399986D01*
X131600001Y-70399986D01*
X131610494Y-70502697D01*
X131665641Y-70669119D01*
X131665643Y-70669124D01*
X131757684Y-70818345D01*
X131881654Y-70942315D01*
X132030875Y-71034356D01*
X132030880Y-71034358D01*
X132197302Y-71089505D01*
X132197309Y-71089506D01*
X132300019Y-71099999D01*
X132749999Y-71099999D01*
X132750000Y-71099998D01*
X132750000Y-70275000D01*
X131600001Y-70275000D01*
X131600001Y-70399986D01*
X126555316Y-70399986D01*
X126543354Y-70367913D01*
X126543350Y-70367906D01*
X126490980Y-70297949D01*
X126457190Y-70252812D01*
X126457187Y-70252809D01*
X126342093Y-70166649D01*
X126342086Y-70166645D01*
X126207379Y-70116403D01*
X126207372Y-70116401D01*
X126147844Y-70110000D01*
X125500000Y-70110000D01*
X125500000Y-71026988D01*
X125442993Y-70994075D01*
X125315826Y-70960000D01*
X125184174Y-70960000D01*
X125057007Y-70994075D01*
X125000000Y-71026988D01*
X125000000Y-70110000D01*
X124352155Y-70110000D01*
X124292627Y-70116401D01*
X124292620Y-70116403D01*
X124157913Y-70166645D01*
X124157906Y-70166649D01*
X124042812Y-70252809D01*
X124042809Y-70252812D01*
X123956649Y-70367906D01*
X123956645Y-70367913D01*
X123906403Y-70502620D01*
X123906401Y-70502627D01*
X123900000Y-70562155D01*
X123900000Y-71210000D01*
X124816988Y-71210000D01*
X124784075Y-71267007D01*
X124750000Y-71394174D01*
X124750000Y-71525826D01*
X124784075Y-71652993D01*
X124816988Y-71710000D01*
X123900000Y-71710000D01*
X123900000Y-72357844D01*
X123906401Y-72417372D01*
X123906403Y-72417379D01*
X123956645Y-72552086D01*
X123956649Y-72552093D01*
X124042809Y-72667187D01*
X124042812Y-72667190D01*
X124157906Y-72753350D01*
X124157913Y-72753354D01*
X124289470Y-72802422D01*
X124345404Y-72844293D01*
X124369821Y-72909758D01*
X124354969Y-72978031D01*
X124333819Y-73006285D01*
X124219889Y-73120215D01*
X124094951Y-73292179D01*
X123998444Y-73481585D01*
X123932753Y-73683760D01*
X123899500Y-73893713D01*
X123899500Y-74106286D01*
X123932753Y-74316239D01*
X123998444Y-74518414D01*
X124094951Y-74707820D01*
X124219890Y-74879786D01*
X124370213Y-75030109D01*
X124542182Y-75155050D01*
X124550946Y-75159516D01*
X124601742Y-75207491D01*
X124618536Y-75275312D01*
X124595998Y-75341447D01*
X124550946Y-75380484D01*
X124542182Y-75384949D01*
X124370213Y-75509890D01*
X124219890Y-75660213D01*
X124094951Y-75832179D01*
X123998444Y-76021585D01*
X123932753Y-76223760D01*
X123915815Y-76330703D01*
X123899500Y-76433713D01*
X123899500Y-76646287D01*
X123932754Y-76856243D01*
X123982417Y-77009090D01*
X123998444Y-77058414D01*
X124094951Y-77247820D01*
X124219890Y-77419786D01*
X124370213Y-77570109D01*
X124542182Y-77695050D01*
X124550946Y-77699516D01*
X124601742Y-77747491D01*
X124618536Y-77815312D01*
X124595998Y-77881447D01*
X124550946Y-77920484D01*
X124542182Y-77924949D01*
X124370213Y-78049890D01*
X124219890Y-78200213D01*
X124094951Y-78372179D01*
X123998444Y-78561585D01*
X123932753Y-78763760D01*
X123899500Y-78973713D01*
X123899500Y-79186286D01*
X123920359Y-79317988D01*
X123932754Y-79396243D01*
X123993224Y-79582351D01*
X123998444Y-79598414D01*
X124094951Y-79787820D01*
X124219890Y-79959786D01*
X124370213Y-80110109D01*
X124542182Y-80235050D01*
X124550946Y-80239516D01*
X124601742Y-80287491D01*
X124618536Y-80355312D01*
X124595998Y-80421447D01*
X124550946Y-80460484D01*
X124542182Y-80464949D01*
X124370213Y-80589890D01*
X124219890Y-80740213D01*
X124094951Y-80912179D01*
X123998444Y-81101585D01*
X123998443Y-81101587D01*
X123998443Y-81101588D01*
X123985990Y-81139915D01*
X123932753Y-81303760D01*
X123925933Y-81346822D01*
X123899500Y-81513713D01*
X123899500Y-81726287D01*
X123932754Y-81936243D01*
X123995128Y-82128211D01*
X123998444Y-82138414D01*
X124094951Y-82327820D01*
X124219890Y-82499786D01*
X124370213Y-82650109D01*
X124542182Y-82775050D01*
X124550946Y-82779516D01*
X124601742Y-82827491D01*
X124618536Y-82895312D01*
X124595998Y-82961447D01*
X124550946Y-83000484D01*
X124542182Y-83004949D01*
X124370213Y-83129890D01*
X124219890Y-83280213D01*
X124094951Y-83452179D01*
X123998444Y-83641585D01*
X123998443Y-83641587D01*
X123998443Y-83641588D01*
X123978776Y-83702116D01*
X123932753Y-83843760D01*
X123906568Y-84009090D01*
X123899500Y-84053713D01*
X123899500Y-84266287D01*
X123932754Y-84476243D01*
X123993976Y-84664665D01*
X123998444Y-84678414D01*
X124094951Y-84867820D01*
X124219890Y-85039786D01*
X124370213Y-85190109D01*
X124542182Y-85315050D01*
X124550946Y-85319516D01*
X124601742Y-85367491D01*
X124618536Y-85435312D01*
X124595998Y-85501447D01*
X124550946Y-85540484D01*
X124542182Y-85544949D01*
X124370213Y-85669890D01*
X124219890Y-85820213D01*
X124094951Y-85992179D01*
X123998444Y-86181585D01*
X123932753Y-86383760D01*
X123905054Y-86558646D01*
X123899500Y-86593713D01*
X123899500Y-86806287D01*
X123932754Y-87016243D01*
X123994626Y-87206666D01*
X123998444Y-87218414D01*
X124094951Y-87407820D01*
X124219890Y-87579786D01*
X124370213Y-87730109D01*
X124542182Y-87855050D01*
X124550946Y-87859516D01*
X124601742Y-87907491D01*
X124618536Y-87975312D01*
X124595998Y-88041447D01*
X124550946Y-88080484D01*
X124542182Y-88084949D01*
X124370213Y-88209890D01*
X124219890Y-88360213D01*
X124094951Y-88532179D01*
X123998444Y-88721585D01*
X123932753Y-88923760D01*
X123899500Y-89133713D01*
X123899500Y-89346287D01*
X123905553Y-89384501D01*
X123921647Y-89486121D01*
X123932754Y-89556243D01*
X123956454Y-89629185D01*
X123998444Y-89758414D01*
X124094951Y-89947820D01*
X124219890Y-90119786D01*
X124370213Y-90270109D01*
X124542182Y-90395050D01*
X124550946Y-90399516D01*
X124601742Y-90447491D01*
X124618536Y-90515312D01*
X124595998Y-90581447D01*
X124550946Y-90620484D01*
X124542182Y-90624949D01*
X124370213Y-90749890D01*
X124219890Y-90900213D01*
X124094951Y-91072179D01*
X123998444Y-91261585D01*
X123932753Y-91463760D01*
X123899500Y-91673713D01*
X123899500Y-91886286D01*
X123932753Y-92096239D01*
X123998444Y-92298414D01*
X124094951Y-92487820D01*
X124219890Y-92659786D01*
X124370213Y-92810109D01*
X124542182Y-92935050D01*
X124550946Y-92939516D01*
X124601742Y-92987491D01*
X124618536Y-93055312D01*
X124595998Y-93121447D01*
X124550946Y-93160484D01*
X124542182Y-93164949D01*
X124370213Y-93289890D01*
X124219890Y-93440213D01*
X124094951Y-93612179D01*
X123998444Y-93801585D01*
X123932753Y-94003760D01*
X123899500Y-94213713D01*
X123899500Y-94426286D01*
X123929209Y-94613865D01*
X123932754Y-94636243D01*
X123986226Y-94800813D01*
X123998444Y-94838414D01*
X124094951Y-95027820D01*
X124219890Y-95199786D01*
X124370213Y-95350109D01*
X124542182Y-95475050D01*
X124550946Y-95479516D01*
X124601742Y-95527491D01*
X124618536Y-95595312D01*
X124595998Y-95661447D01*
X124550946Y-95700484D01*
X124542182Y-95704949D01*
X124370213Y-95829890D01*
X124219890Y-95980213D01*
X124094951Y-96152179D01*
X123998444Y-96341585D01*
X123932753Y-96543760D01*
X123899500Y-96753713D01*
X123899500Y-96966286D01*
X123918936Y-97089004D01*
X123932754Y-97176243D01*
X123973225Y-97300800D01*
X123998444Y-97378414D01*
X124094951Y-97567820D01*
X124219890Y-97739786D01*
X124370213Y-97890109D01*
X124542182Y-98015050D01*
X124550946Y-98019516D01*
X124601742Y-98067491D01*
X124618536Y-98135312D01*
X124595998Y-98201447D01*
X124550946Y-98240484D01*
X124542182Y-98244949D01*
X124370213Y-98369890D01*
X124219890Y-98520213D01*
X124094951Y-98692179D01*
X123998444Y-98881585D01*
X123932753Y-99083760D01*
X123907316Y-99244363D01*
X123899500Y-99293713D01*
X123899500Y-99506287D01*
X123932754Y-99716243D01*
X123987865Y-99885857D01*
X123998444Y-99918414D01*
X124094951Y-100107820D01*
X124219890Y-100279786D01*
X124370213Y-100430109D01*
X124542182Y-100555050D01*
X124550946Y-100559516D01*
X124601742Y-100607491D01*
X124618536Y-100675312D01*
X124595998Y-100741447D01*
X124550946Y-100780484D01*
X124542182Y-100784949D01*
X124370213Y-100909890D01*
X124219890Y-101060213D01*
X124094951Y-101232179D01*
X123998444Y-101421585D01*
X123932753Y-101623760D01*
X123899500Y-101833713D01*
X123899500Y-102046286D01*
X123931797Y-102250205D01*
X123932754Y-102256243D01*
X123961784Y-102345589D01*
X123998444Y-102458414D01*
X124094951Y-102647820D01*
X124219890Y-102819786D01*
X124313181Y-102913077D01*
X124346666Y-102974400D01*
X124349500Y-103000758D01*
X124349500Y-103419242D01*
X124329815Y-103486281D01*
X124313181Y-103506923D01*
X124219894Y-103600209D01*
X124219890Y-103600213D01*
X124094951Y-103772179D01*
X123998444Y-103961585D01*
X123932753Y-104163760D01*
X123899500Y-104373713D01*
X123899500Y-104586286D01*
X123924679Y-104745264D01*
X123932754Y-104796243D01*
X123989719Y-104971563D01*
X123998444Y-104998414D01*
X124094951Y-105187820D01*
X124219890Y-105359786D01*
X124370213Y-105510109D01*
X124542179Y-105635048D01*
X124542181Y-105635049D01*
X124542184Y-105635051D01*
X124551493Y-105639794D01*
X124602290Y-105687766D01*
X124619087Y-105755587D01*
X124596552Y-105821722D01*
X124551502Y-105860762D01*
X124542443Y-105865378D01*
X124370540Y-105990272D01*
X124370535Y-105990276D01*
X124220276Y-106140535D01*
X124220272Y-106140540D01*
X124095379Y-106312442D01*
X123998904Y-106501782D01*
X123933242Y-106703870D01*
X123933242Y-106703873D01*
X123922769Y-106770000D01*
X124816988Y-106770000D01*
X124784075Y-106827007D01*
X124750000Y-106954174D01*
X124750000Y-107085826D01*
X124784075Y-107212993D01*
X124816988Y-107270000D01*
X123922769Y-107270000D01*
X123933242Y-107336126D01*
X123933242Y-107336129D01*
X123998904Y-107538217D01*
X124095379Y-107727557D01*
X124220272Y-107899459D01*
X124220276Y-107899464D01*
X124370535Y-108049723D01*
X124370540Y-108049727D01*
X124542442Y-108174620D01*
X124731782Y-108271095D01*
X124933871Y-108336757D01*
X125000000Y-108347231D01*
X125000000Y-107453012D01*
X125057007Y-107485925D01*
X125184174Y-107520000D01*
X125315826Y-107520000D01*
X125442993Y-107485925D01*
X125500000Y-107453012D01*
X125500000Y-108347230D01*
X125566126Y-108336757D01*
X125566129Y-108336757D01*
X125768217Y-108271095D01*
X125957557Y-108174620D01*
X126129459Y-108049727D01*
X126129464Y-108049723D01*
X126279723Y-107899464D01*
X126279727Y-107899459D01*
X126404620Y-107727557D01*
X126501095Y-107538217D01*
X126566757Y-107336129D01*
X126566757Y-107336126D01*
X126577231Y-107270000D01*
X125683012Y-107270000D01*
X125715925Y-107212993D01*
X125750000Y-107085826D01*
X125750000Y-106954174D01*
X125715925Y-106827007D01*
X125683012Y-106770000D01*
X126577231Y-106770000D01*
X126566757Y-106703873D01*
X126566757Y-106703870D01*
X126501095Y-106501782D01*
X126404620Y-106312442D01*
X126279727Y-106140540D01*
X126279723Y-106140535D01*
X126129464Y-105990276D01*
X126129459Y-105990272D01*
X125957555Y-105865377D01*
X125948500Y-105860763D01*
X125897706Y-105812788D01*
X125880912Y-105744966D01*
X125903451Y-105678832D01*
X125948508Y-105639793D01*
X125957816Y-105635051D01*
X126049517Y-105568427D01*
X126129786Y-105510109D01*
X126129788Y-105510106D01*
X126129792Y-105510104D01*
X126280104Y-105359792D01*
X126280106Y-105359788D01*
X126280109Y-105359786D01*
X126405048Y-105187820D01*
X126405047Y-105187820D01*
X126405051Y-105187816D01*
X126501557Y-104998412D01*
X126567246Y-104796243D01*
X126600500Y-104586287D01*
X126600500Y-104373713D01*
X126567246Y-104163757D01*
X126501557Y-103961588D01*
X126405051Y-103772184D01*
X126405049Y-103772181D01*
X126405048Y-103772179D01*
X126280109Y-103600213D01*
X126186819Y-103506923D01*
X126153334Y-103445600D01*
X126150500Y-103419242D01*
X126150500Y-103000758D01*
X126159144Y-102971317D01*
X126165668Y-102941331D01*
X126169422Y-102936315D01*
X126170185Y-102933719D01*
X126186819Y-102913077D01*
X126223077Y-102876819D01*
X126284400Y-102843334D01*
X126310758Y-102840500D01*
X126765638Y-102840500D01*
X126832677Y-102860185D01*
X126853319Y-102876819D01*
X129425958Y-105449459D01*
X129425965Y-105449465D01*
X129573451Y-105548011D01*
X129573452Y-105548011D01*
X129573453Y-105548012D01*
X129737334Y-105615895D01*
X129911303Y-105650499D01*
X129911307Y-105650500D01*
X129911308Y-105650500D01*
X130088693Y-105650500D01*
X130088694Y-105650499D01*
X130262666Y-105615895D01*
X130426547Y-105548012D01*
X130574036Y-105449464D01*
X130699464Y-105324036D01*
X130798012Y-105176547D01*
X130865895Y-105012666D01*
X130874071Y-104971563D01*
X130878883Y-104947372D01*
X130911267Y-104885461D01*
X130971983Y-104850887D01*
X131041752Y-104854626D01*
X131098425Y-104895492D01*
X131124006Y-104960510D01*
X131124500Y-104971563D01*
X131124500Y-109707650D01*
X131104815Y-109774689D01*
X131103602Y-109776541D01*
X131040609Y-109870815D01*
X131040602Y-109870828D01*
X130980264Y-110016498D01*
X130980261Y-110016510D01*
X130949500Y-110171153D01*
X130949500Y-110328846D01*
X130980261Y-110483489D01*
X130980264Y-110483501D01*
X131040602Y-110629172D01*
X131040609Y-110629185D01*
X131128210Y-110760288D01*
X131128213Y-110760292D01*
X131239707Y-110871786D01*
X131239711Y-110871789D01*
X131370814Y-110959390D01*
X131370827Y-110959397D01*
X131516498Y-111019735D01*
X131516503Y-111019737D01*
X131671153Y-111050499D01*
X131671156Y-111050500D01*
X131789617Y-111050500D01*
X131798302Y-111053050D01*
X131807264Y-111051762D01*
X131831304Y-111062740D01*
X131856656Y-111070185D01*
X131862583Y-111077025D01*
X131870820Y-111080787D01*
X131885109Y-111103021D01*
X131902411Y-111122989D01*
X131904698Y-111133503D01*
X131908594Y-111139565D01*
X131913617Y-111174500D01*
X131913617Y-111402942D01*
X131893932Y-111469981D01*
X131881926Y-111484878D01*
X131882076Y-111485001D01*
X131878210Y-111489711D01*
X131790609Y-111620814D01*
X131790602Y-111620827D01*
X131730264Y-111766498D01*
X131730261Y-111766510D01*
X131699500Y-111921153D01*
X131699500Y-111949500D01*
X131679815Y-112016539D01*
X131627011Y-112062294D01*
X131575500Y-112073500D01*
X126724500Y-112073500D01*
X126657461Y-112053815D01*
X126611706Y-112001011D01*
X126600500Y-111949500D01*
X126600500Y-111773713D01*
X126585732Y-111680472D01*
X126567246Y-111563757D01*
X126501557Y-111361588D01*
X126405051Y-111172184D01*
X126405049Y-111172181D01*
X126405048Y-111172179D01*
X126280109Y-111000213D01*
X126129786Y-110849890D01*
X125957820Y-110724951D01*
X125768414Y-110628444D01*
X125768413Y-110628443D01*
X125768412Y-110628443D01*
X125566243Y-110562754D01*
X125566241Y-110562753D01*
X125566240Y-110562753D01*
X125404957Y-110537208D01*
X125356287Y-110529500D01*
X125143713Y-110529500D01*
X125095042Y-110537208D01*
X124933760Y-110562753D01*
X124731585Y-110628444D01*
X124542179Y-110724951D01*
X124370213Y-110849890D01*
X124219890Y-111000213D01*
X124094951Y-111172179D01*
X123998444Y-111361585D01*
X123932753Y-111563760D01*
X123904154Y-111744331D01*
X123899500Y-111773713D01*
X123899500Y-111986287D01*
X123904477Y-112017710D01*
X123928341Y-112168384D01*
X123932754Y-112196243D01*
X123997394Y-112395185D01*
X123998444Y-112398414D01*
X124094951Y-112587820D01*
X124219890Y-112759786D01*
X124370213Y-112910109D01*
X124542179Y-113035048D01*
X124542181Y-113035049D01*
X124542184Y-113035051D01*
X124551493Y-113039794D01*
X124602290Y-113087766D01*
X124619087Y-113155587D01*
X124596552Y-113221722D01*
X124551502Y-113260762D01*
X124542443Y-113265378D01*
X124370540Y-113390272D01*
X124370535Y-113390276D01*
X124220276Y-113540535D01*
X124220272Y-113540540D01*
X124095379Y-113712442D01*
X123998904Y-113901782D01*
X123933242Y-114103870D01*
X123933242Y-114103873D01*
X123922769Y-114170000D01*
X124816988Y-114170000D01*
X124784075Y-114227007D01*
X124750000Y-114354174D01*
X124750000Y-114485826D01*
X124784075Y-114612993D01*
X124816988Y-114670000D01*
X123922769Y-114670000D01*
X123933242Y-114736126D01*
X123933242Y-114736129D01*
X123998904Y-114938217D01*
X124095379Y-115127557D01*
X124220272Y-115299459D01*
X124220276Y-115299464D01*
X124370535Y-115449723D01*
X124370540Y-115449727D01*
X124542444Y-115574622D01*
X124551495Y-115579234D01*
X124602292Y-115627208D01*
X124619087Y-115695029D01*
X124596550Y-115761164D01*
X124551499Y-115800202D01*
X124542182Y-115804949D01*
X124370213Y-115929890D01*
X124219890Y-116080213D01*
X124094951Y-116252179D01*
X123998444Y-116441585D01*
X123998443Y-116441587D01*
X123998443Y-116441588D01*
X123995203Y-116451561D01*
X123932753Y-116643760D01*
X123899500Y-116853713D01*
X123899500Y-117066286D01*
X123930475Y-117261858D01*
X123932754Y-117276243D01*
X123971851Y-117396572D01*
X123998444Y-117478414D01*
X124094951Y-117667820D01*
X124219890Y-117839786D01*
X124333430Y-117953326D01*
X124366915Y-118014649D01*
X124361931Y-118084341D01*
X124320059Y-118140274D01*
X124289083Y-118157189D01*
X124157669Y-118206203D01*
X124157664Y-118206206D01*
X124042455Y-118292452D01*
X124042452Y-118292455D01*
X123956206Y-118407664D01*
X123956202Y-118407671D01*
X123905908Y-118542517D01*
X123899501Y-118602116D01*
X123899500Y-118602135D01*
X123899500Y-120397870D01*
X123899501Y-120397876D01*
X123905908Y-120457483D01*
X123956202Y-120592328D01*
X123956206Y-120592335D01*
X124042452Y-120707544D01*
X124042455Y-120707547D01*
X124157664Y-120793793D01*
X124157671Y-120793797D01*
X124292517Y-120844091D01*
X124292516Y-120844091D01*
X124299444Y-120844835D01*
X124352127Y-120850500D01*
X125664546Y-120850499D01*
X125731585Y-120870184D01*
X125752227Y-120886818D01*
X126264141Y-121398732D01*
X126264142Y-121398733D01*
X126332245Y-121466836D01*
X126351268Y-121485859D01*
X126453707Y-121554307D01*
X126453716Y-121554312D01*
X126474739Y-121563020D01*
X126567548Y-121601463D01*
X126627971Y-121613481D01*
X126688393Y-121625500D01*
X126688394Y-121625500D01*
X138051639Y-121625500D01*
X138118678Y-121645185D01*
X138164433Y-121697989D01*
X138174377Y-121767147D01*
X138145352Y-121830703D01*
X138139326Y-121837174D01*
X138009087Y-121967413D01*
X137913319Y-122063181D01*
X137851996Y-122096666D01*
X137825638Y-122099500D01*
X136699997Y-122099500D01*
X136699980Y-122099501D01*
X136597202Y-122110000D01*
X136597199Y-122110001D01*
X136430667Y-122165185D01*
X136430662Y-122165187D01*
X136281341Y-122257289D01*
X136157288Y-122381342D01*
X136065186Y-122530663D01*
X136065184Y-122530668D01*
X136039028Y-122609602D01*
X136010000Y-122697203D01*
X136010000Y-122697204D01*
X136009999Y-122697204D01*
X135999499Y-122799983D01*
X135999499Y-124200001D01*
X135999500Y-124200018D01*
X136009999Y-124302796D01*
X136010000Y-124302799D01*
X136052963Y-124432450D01*
X136065185Y-124469334D01*
X136157287Y-124618656D01*
X136281343Y-124742712D01*
X136290595Y-124748419D01*
X136337319Y-124800362D01*
X136349500Y-124853957D01*
X136349500Y-125889143D01*
X136339512Y-125934196D01*
X136340268Y-125934447D01*
X136284651Y-126102288D01*
X136274500Y-126201647D01*
X136274500Y-126748337D01*
X136274501Y-126748355D01*
X136284650Y-126847707D01*
X136284651Y-126847710D01*
X136337996Y-127008694D01*
X136338001Y-127008705D01*
X136427029Y-127153040D01*
X136427032Y-127153044D01*
X136436660Y-127162672D01*
X136470145Y-127223995D01*
X136465161Y-127293687D01*
X136436663Y-127338031D01*
X136427428Y-127347265D01*
X136427424Y-127347271D01*
X136338457Y-127491507D01*
X136338452Y-127491518D01*
X136285144Y-127652393D01*
X136275000Y-127751677D01*
X136275000Y-127775000D01*
X138224999Y-127775000D01*
X138224999Y-127751692D01*
X138224998Y-127751677D01*
X138214855Y-127652392D01*
X138177117Y-127538504D01*
X138174715Y-127468675D01*
X138210447Y-127408634D01*
X138272968Y-127377441D01*
X138294823Y-127375500D01*
X139738550Y-127375500D01*
X139805589Y-127395185D01*
X139851344Y-127447989D01*
X139861288Y-127517147D01*
X139844667Y-127563650D01*
X139831522Y-127585393D01*
X139780913Y-127747807D01*
X139775947Y-127802461D01*
X139774747Y-127815672D01*
X139774500Y-127818386D01*
X139774500Y-128331613D01*
X139780913Y-128402192D01*
X139780913Y-128402194D01*
X139780914Y-128402196D01*
X139831522Y-128564606D01*
X139915022Y-128702732D01*
X139919653Y-128710391D01*
X139937489Y-128777946D01*
X139915971Y-128844419D01*
X139912807Y-128848846D01*
X139906207Y-128857663D01*
X139906202Y-128857671D01*
X139855908Y-128992517D01*
X139849501Y-129052116D01*
X139849501Y-129052123D01*
X139849500Y-129052135D01*
X139849500Y-129947870D01*
X139849501Y-129947876D01*
X139855908Y-130007483D01*
X139906202Y-130142328D01*
X139906204Y-130142331D01*
X139931487Y-130176105D01*
X139955905Y-130241568D01*
X139941054Y-130309841D01*
X139931488Y-130324726D01*
X139906649Y-130357906D01*
X139906645Y-130357913D01*
X139856403Y-130492620D01*
X139856401Y-130492627D01*
X139850000Y-130552155D01*
X139850000Y-130750000D01*
X141650000Y-130750000D01*
X141650000Y-130552172D01*
X141649999Y-130552155D01*
X141643598Y-130492627D01*
X141643596Y-130492616D01*
X141635998Y-130472247D01*
X141555805Y-130303689D01*
X141552162Y-130280894D01*
X141544094Y-130259264D01*
X141546752Y-130247042D01*
X141544779Y-130234695D01*
X141554037Y-130213550D01*
X141558945Y-130190990D01*
X141568505Y-130176114D01*
X141593796Y-130142331D01*
X141644091Y-130007483D01*
X141650500Y-129947873D01*
X141650499Y-129500000D01*
X141650499Y-129052129D01*
X141650498Y-129052123D01*
X141650497Y-129052116D01*
X141644091Y-128992517D01*
X141637557Y-128974999D01*
X141593797Y-128857672D01*
X141593796Y-128857669D01*
X141587194Y-128848851D01*
X141562778Y-128783390D01*
X141577629Y-128715117D01*
X141580346Y-128710391D01*
X141580468Y-128710188D01*
X141580472Y-128710185D01*
X141668478Y-128564606D01*
X141673552Y-128548322D01*
X162775001Y-128548322D01*
X162785144Y-128647607D01*
X162838452Y-128808481D01*
X162838457Y-128808492D01*
X162927424Y-128952728D01*
X162927427Y-128952732D01*
X163047267Y-129072572D01*
X163047271Y-129072575D01*
X163191507Y-129161542D01*
X163191518Y-129161547D01*
X163352393Y-129214855D01*
X163451683Y-129224999D01*
X164000000Y-129224999D01*
X164048308Y-129224999D01*
X164048322Y-129224998D01*
X164147607Y-129214855D01*
X164308481Y-129161547D01*
X164308492Y-129161542D01*
X164452728Y-129072575D01*
X164452732Y-129072572D01*
X164572572Y-128952732D01*
X164572575Y-128952728D01*
X164661542Y-128808492D01*
X164661547Y-128808481D01*
X164714855Y-128647606D01*
X164724999Y-128548322D01*
X164725000Y-128548309D01*
X164725000Y-128525000D01*
X164000000Y-128525000D01*
X164000000Y-129224999D01*
X163451683Y-129224999D01*
X163499999Y-129224998D01*
X163500000Y-129224998D01*
X163500000Y-128525000D01*
X162775001Y-128525000D01*
X162775001Y-128548322D01*
X141673552Y-128548322D01*
X141719086Y-128402196D01*
X141725500Y-128331616D01*
X141725500Y-127818384D01*
X141719086Y-127747804D01*
X141668478Y-127585394D01*
X141580472Y-127439815D01*
X141580470Y-127439813D01*
X141580469Y-127439811D01*
X141478339Y-127337681D01*
X141444854Y-127276358D01*
X141449838Y-127206666D01*
X141478339Y-127162319D01*
X141580468Y-127060189D01*
X141580469Y-127060188D01*
X141580472Y-127060185D01*
X141668478Y-126914606D01*
X141719086Y-126752196D01*
X141725500Y-126681616D01*
X141725500Y-126168384D01*
X141719086Y-126097804D01*
X141668478Y-125935394D01*
X141580472Y-125789815D01*
X141580470Y-125789813D01*
X141580469Y-125789811D01*
X141460188Y-125669530D01*
X141437656Y-125655909D01*
X141314606Y-125581522D01*
X141152196Y-125530914D01*
X141152194Y-125530913D01*
X141152192Y-125530913D01*
X141102778Y-125526423D01*
X141081616Y-125524500D01*
X140418384Y-125524500D01*
X140347804Y-125530914D01*
X140271102Y-125554815D01*
X140225945Y-125568886D01*
X140189056Y-125574500D01*
X138274500Y-125574500D01*
X138207461Y-125554815D01*
X138161706Y-125502011D01*
X138150500Y-125450500D01*
X138150500Y-125024499D01*
X138170185Y-124957460D01*
X138222989Y-124911705D01*
X138274500Y-124900499D01*
X138800001Y-124900499D01*
X138800007Y-124900499D01*
X138902796Y-124889999D01*
X139069333Y-124834814D01*
X139218655Y-124742712D01*
X139342711Y-124618656D01*
X139434813Y-124469334D01*
X139489998Y-124302797D01*
X139500499Y-124200009D01*
X139500498Y-123074362D01*
X139520183Y-123007324D01*
X139536817Y-122986682D01*
X139787820Y-122735679D01*
X139849143Y-122702194D01*
X139918835Y-122707178D01*
X139974768Y-122749050D01*
X139999185Y-122814514D01*
X139999501Y-122823360D01*
X139999501Y-124200001D01*
X139999502Y-124200018D01*
X140010001Y-124302796D01*
X140010002Y-124302799D01*
X140052965Y-124432450D01*
X140065187Y-124469334D01*
X140157289Y-124618656D01*
X140281345Y-124742712D01*
X140430667Y-124834814D01*
X140597204Y-124889999D01*
X140699992Y-124900500D01*
X142800009Y-124900499D01*
X142902798Y-124889999D01*
X143069335Y-124834814D01*
X143218657Y-124742712D01*
X143342713Y-124618656D01*
X143434815Y-124469334D01*
X143479165Y-124335494D01*
X143518937Y-124278051D01*
X143583452Y-124251228D01*
X143596870Y-124250500D01*
X144637770Y-124250500D01*
X144667210Y-124259144D01*
X144697197Y-124265668D01*
X144702212Y-124269422D01*
X144704809Y-124270185D01*
X144725451Y-124286819D01*
X144861733Y-124423101D01*
X144895218Y-124484424D01*
X144890234Y-124554116D01*
X144848362Y-124610049D01*
X144817385Y-124626964D01*
X144757913Y-124649145D01*
X144757906Y-124649149D01*
X144642812Y-124735309D01*
X144642808Y-124735313D01*
X144630426Y-124751853D01*
X144574491Y-124793722D01*
X144504799Y-124798703D01*
X144483711Y-124792100D01*
X144452098Y-124779006D01*
X144452100Y-124779006D01*
X144425000Y-124773615D01*
X144425000Y-125525511D01*
X144415060Y-125508295D01*
X144359205Y-125452440D01*
X144290796Y-125412944D01*
X144214496Y-125392500D01*
X144135504Y-125392500D01*
X144059204Y-125412944D01*
X143990795Y-125452440D01*
X143934940Y-125508295D01*
X143925000Y-125525511D01*
X143925000Y-124773616D01*
X143924999Y-124773615D01*
X143897899Y-124779006D01*
X143897896Y-124779007D01*
X143725008Y-124850619D01*
X143724999Y-124850624D01*
X143569410Y-124954586D01*
X143569406Y-124954589D01*
X143437089Y-125086906D01*
X143437086Y-125086910D01*
X143333124Y-125242499D01*
X143333119Y-125242508D01*
X143261508Y-125415394D01*
X143261506Y-125415402D01*
X143225000Y-125598928D01*
X143225000Y-125992500D01*
X143875000Y-125992500D01*
X143875000Y-126492500D01*
X143225000Y-126492500D01*
X143225000Y-126886071D01*
X143261506Y-127069597D01*
X143261508Y-127069605D01*
X143333119Y-127242491D01*
X143333124Y-127242500D01*
X143437086Y-127398089D01*
X143437089Y-127398093D01*
X143569406Y-127530410D01*
X143569410Y-127530413D01*
X143724999Y-127634375D01*
X143725012Y-127634382D01*
X143897889Y-127705989D01*
X143897896Y-127705991D01*
X143925000Y-127711382D01*
X143925000Y-126959488D01*
X143934940Y-126976705D01*
X143990795Y-127032560D01*
X144059204Y-127072056D01*
X144135504Y-127092500D01*
X144214496Y-127092500D01*
X144290796Y-127072056D01*
X144359205Y-127032560D01*
X144415060Y-126976705D01*
X144425000Y-126959488D01*
X144425000Y-127711381D01*
X144452103Y-127705991D01*
X144452110Y-127705989D01*
X144624987Y-127634382D01*
X144625000Y-127634375D01*
X144780589Y-127530413D01*
X144780593Y-127530410D01*
X144912910Y-127398093D01*
X144912913Y-127398089D01*
X145016875Y-127242500D01*
X145016879Y-127242493D01*
X145040930Y-127184427D01*
X145084770Y-127130023D01*
X145151064Y-127107957D01*
X145218764Y-127125235D01*
X145243173Y-127144197D01*
X145271985Y-127173009D01*
X145271986Y-127173010D01*
X145271988Y-127173011D01*
X145397511Y-127245482D01*
X145397512Y-127245482D01*
X145397515Y-127245484D01*
X145537525Y-127283000D01*
X145537528Y-127283000D01*
X145682472Y-127283000D01*
X145682475Y-127283000D01*
X145822485Y-127245484D01*
X145948015Y-127173009D01*
X145948019Y-127173004D01*
X145954461Y-127168062D01*
X145955410Y-127169299D01*
X146008613Y-127140249D01*
X146078305Y-127145233D01*
X146122652Y-127173734D01*
X146548647Y-127599729D01*
X146548650Y-127599733D01*
X146635775Y-127686858D01*
X146712698Y-127738256D01*
X146718498Y-127742132D01*
X146718501Y-127742134D01*
X146738218Y-127755309D01*
X146738225Y-127755313D01*
X146748659Y-127759634D01*
X146794719Y-127778713D01*
X146794720Y-127778714D01*
X146826076Y-127791701D01*
X146852056Y-127802463D01*
X146912479Y-127814481D01*
X146972901Y-127826500D01*
X150145107Y-127826500D01*
X150205529Y-127814481D01*
X150265952Y-127802463D01*
X150323287Y-127778714D01*
X150379786Y-127755312D01*
X150431009Y-127721084D01*
X150482233Y-127686858D01*
X150569358Y-127599733D01*
X150569359Y-127599731D01*
X150576425Y-127592665D01*
X150576427Y-127592661D01*
X150949266Y-127219823D01*
X151010585Y-127186341D01*
X151080277Y-127191325D01*
X151098935Y-127200116D01*
X151177515Y-127245484D01*
X151317525Y-127283000D01*
X151317528Y-127283000D01*
X151462472Y-127283000D01*
X151462475Y-127283000D01*
X151602485Y-127245484D01*
X151728015Y-127173009D01*
X151756828Y-127144195D01*
X151818147Y-127110712D01*
X151887839Y-127115696D01*
X151943773Y-127157566D01*
X151959068Y-127184426D01*
X151983117Y-127242487D01*
X151983124Y-127242500D01*
X152087086Y-127398089D01*
X152087089Y-127398093D01*
X152219406Y-127530410D01*
X152219410Y-127530413D01*
X152374999Y-127634375D01*
X152375012Y-127634382D01*
X152547889Y-127705989D01*
X152547896Y-127705991D01*
X152575000Y-127711382D01*
X152575000Y-126959488D01*
X152584940Y-126976705D01*
X152640795Y-127032560D01*
X152709204Y-127072056D01*
X152785504Y-127092500D01*
X152864496Y-127092500D01*
X152940796Y-127072056D01*
X153009205Y-127032560D01*
X153065060Y-126976705D01*
X153075000Y-126959488D01*
X153075000Y-127711381D01*
X153102103Y-127705991D01*
X153102110Y-127705989D01*
X153274987Y-127634382D01*
X153275000Y-127634375D01*
X153430589Y-127530413D01*
X153430593Y-127530410D01*
X153562910Y-127398093D01*
X153562913Y-127398089D01*
X153666875Y-127242500D01*
X153666880Y-127242491D01*
X153738491Y-127069605D01*
X153738493Y-127069597D01*
X153774999Y-126886071D01*
X153775000Y-126886069D01*
X153775000Y-126492500D01*
X153125000Y-126492500D01*
X153125000Y-125992500D01*
X153775000Y-125992500D01*
X153775000Y-125598930D01*
X153774999Y-125598928D01*
X153738493Y-125415402D01*
X153738491Y-125415394D01*
X153666880Y-125242508D01*
X153666875Y-125242499D01*
X153562913Y-125086910D01*
X153562910Y-125086906D01*
X153430593Y-124954589D01*
X153430589Y-124954586D01*
X153275000Y-124850624D01*
X153274991Y-124850619D01*
X153102103Y-124779007D01*
X153102100Y-124779006D01*
X153075000Y-124773615D01*
X153075000Y-125525511D01*
X153065060Y-125508295D01*
X153009205Y-125452440D01*
X152940796Y-125412944D01*
X152864496Y-125392500D01*
X152785504Y-125392500D01*
X152709204Y-125412944D01*
X152640795Y-125452440D01*
X152584940Y-125508295D01*
X152575000Y-125525511D01*
X152575000Y-124790066D01*
X152513452Y-124757891D01*
X152492888Y-124738059D01*
X152470321Y-124720528D01*
X152468057Y-124714111D01*
X152463160Y-124709388D01*
X152456581Y-124681581D01*
X152447077Y-124654638D01*
X152447395Y-124642749D01*
X152447075Y-124641395D01*
X152447461Y-124640299D01*
X152447609Y-124634756D01*
X152450500Y-124607873D01*
X152450499Y-124032128D01*
X152444091Y-123972517D01*
X152417230Y-123900500D01*
X152393797Y-123837671D01*
X152393795Y-123837668D01*
X152316109Y-123733893D01*
X152291692Y-123668430D01*
X152306543Y-123600157D01*
X152316110Y-123585271D01*
X152393352Y-123482089D01*
X152393354Y-123482086D01*
X152443596Y-123347379D01*
X152443598Y-123347372D01*
X152449999Y-123287844D01*
X152450000Y-123287827D01*
X152450000Y-123200000D01*
X151874000Y-123200000D01*
X151865314Y-123197449D01*
X151856353Y-123198738D01*
X151832312Y-123187759D01*
X151806961Y-123180315D01*
X151801033Y-123173474D01*
X151792797Y-123169713D01*
X151778507Y-123147478D01*
X151761206Y-123127511D01*
X151758918Y-123116996D01*
X151755023Y-123110935D01*
X151750000Y-123076000D01*
X151750000Y-122924000D01*
X151769685Y-122856961D01*
X151822489Y-122811206D01*
X151874000Y-122800000D01*
X152450000Y-122800000D01*
X152450000Y-122712172D01*
X152449999Y-122712155D01*
X152443598Y-122652627D01*
X152443596Y-122652620D01*
X152393354Y-122517913D01*
X152393350Y-122517906D01*
X152307190Y-122402813D01*
X152194363Y-122318350D01*
X152178528Y-122297196D01*
X152159842Y-122278511D01*
X152157917Y-122269663D01*
X152152492Y-122262416D01*
X152150607Y-122236059D01*
X152144990Y-122210238D01*
X152148153Y-122201754D01*
X152147508Y-122192724D01*
X152160171Y-122169532D01*
X152169406Y-122144773D01*
X152178845Y-122135333D01*
X152180993Y-122131401D01*
X152194355Y-122119822D01*
X152266108Y-122066108D01*
X152331570Y-122041692D01*
X152399843Y-122056543D01*
X152414729Y-122066110D01*
X152517910Y-122143352D01*
X152517913Y-122143354D01*
X152652620Y-122193596D01*
X152652627Y-122193598D01*
X152712155Y-122199999D01*
X152712172Y-122200000D01*
X152800000Y-122200000D01*
X153200000Y-122200000D01*
X153287828Y-122200000D01*
X153287844Y-122199999D01*
X153347372Y-122193598D01*
X153347379Y-122193596D01*
X153482086Y-122143354D01*
X153482093Y-122143350D01*
X153597187Y-122057190D01*
X153597190Y-122057187D01*
X153683350Y-121942093D01*
X153683354Y-121942086D01*
X153733596Y-121807379D01*
X153733598Y-121807372D01*
X153739999Y-121747844D01*
X153740000Y-121747827D01*
X153740000Y-121700000D01*
X153200000Y-121700000D01*
X153200000Y-122200000D01*
X152800000Y-122200000D01*
X152800000Y-120800000D01*
X152712155Y-120800000D01*
X152652627Y-120806401D01*
X152652620Y-120806403D01*
X152517913Y-120856645D01*
X152517910Y-120856647D01*
X152414727Y-120933890D01*
X152389967Y-120943124D01*
X152366774Y-120955789D01*
X152357744Y-120955143D01*
X152349262Y-120958307D01*
X152323441Y-120952690D01*
X152297082Y-120950805D01*
X152285365Y-120944406D01*
X152280989Y-120943455D01*
X152266111Y-120933894D01*
X152214787Y-120895472D01*
X152172918Y-120839541D01*
X152167934Y-120769849D01*
X152201417Y-120708528D01*
X152208081Y-120701865D01*
X152291744Y-120560398D01*
X152337598Y-120402569D01*
X152340500Y-120365694D01*
X152340500Y-119807130D01*
X152360185Y-119740091D01*
X152412989Y-119694336D01*
X152482147Y-119684392D01*
X152545703Y-119713417D01*
X152552181Y-119719449D01*
X153425736Y-120593004D01*
X153459221Y-120654327D01*
X153454237Y-120724019D01*
X153412365Y-120779952D01*
X153346901Y-120804369D01*
X153324800Y-120803974D01*
X153287846Y-120800001D01*
X153287828Y-120800000D01*
X153200000Y-120800000D01*
X153200000Y-121300000D01*
X153740000Y-121300000D01*
X153740000Y-121252172D01*
X153739999Y-121252160D01*
X153736025Y-121215203D01*
X153748429Y-121146443D01*
X153796038Y-121095305D01*
X153863737Y-121078024D01*
X153930031Y-121100087D01*
X153946995Y-121114264D01*
X155381010Y-122548279D01*
X155414495Y-122609602D01*
X155409511Y-122679294D01*
X155398869Y-122701054D01*
X155365187Y-122755663D01*
X155365186Y-122755665D01*
X155350501Y-122799983D01*
X155310001Y-122922203D01*
X155310001Y-122922204D01*
X155310000Y-122922204D01*
X155299500Y-123024983D01*
X155299500Y-123650001D01*
X155299501Y-123650019D01*
X155310000Y-123752796D01*
X155310001Y-123752799D01*
X155365185Y-123919331D01*
X155365187Y-123919336D01*
X155386358Y-123953660D01*
X155434757Y-124032128D01*
X155457289Y-124068657D01*
X155550951Y-124162319D01*
X155584436Y-124223642D01*
X155579452Y-124293334D01*
X155550951Y-124337681D01*
X155457289Y-124431342D01*
X155365187Y-124580663D01*
X155365185Y-124580668D01*
X155345062Y-124641395D01*
X155310001Y-124747203D01*
X155310001Y-124747204D01*
X155310000Y-124747204D01*
X155299500Y-124849983D01*
X155299500Y-125475001D01*
X155299501Y-125475019D01*
X155310000Y-125577796D01*
X155310001Y-125577799D01*
X155328038Y-125632230D01*
X155351502Y-125703040D01*
X155365188Y-125744339D01*
X155367978Y-125750323D01*
X155378466Y-125819401D01*
X155349942Y-125883183D01*
X155329905Y-125901987D01*
X155242452Y-125967455D01*
X155156206Y-126082664D01*
X155156202Y-126082671D01*
X155105908Y-126217517D01*
X155099610Y-126276104D01*
X155099501Y-126277123D01*
X155099500Y-126277135D01*
X155099500Y-127722870D01*
X155099501Y-127722876D01*
X155105908Y-127782483D01*
X155156202Y-127917328D01*
X155156206Y-127917335D01*
X155242452Y-128032544D01*
X155242455Y-128032547D01*
X155357664Y-128118793D01*
X155357671Y-128118797D01*
X155492517Y-128169091D01*
X155492516Y-128169091D01*
X155499444Y-128169835D01*
X155552127Y-128175500D01*
X157447872Y-128175499D01*
X157507483Y-128169091D01*
X157642331Y-128118796D01*
X157757546Y-128032546D01*
X157843796Y-127917331D01*
X157894091Y-127782483D01*
X157900500Y-127722873D01*
X157900499Y-126277128D01*
X157894091Y-126217517D01*
X157884310Y-126191294D01*
X157843797Y-126082671D01*
X157843793Y-126082664D01*
X157757547Y-125967455D01*
X157757544Y-125967452D01*
X157677428Y-125907477D01*
X157635557Y-125851544D01*
X157630573Y-125781852D01*
X157664056Y-125720532D01*
X158648729Y-124735860D01*
X158648733Y-124735858D01*
X158735858Y-124648733D01*
X158794074Y-124561607D01*
X158804312Y-124546285D01*
X158836186Y-124469334D01*
X158851463Y-124432452D01*
X158875500Y-124311606D01*
X158875500Y-115859458D01*
X158895185Y-115792419D01*
X158947989Y-115746664D01*
X158964892Y-115740386D01*
X159097898Y-115701744D01*
X159239365Y-115618081D01*
X159355581Y-115501865D01*
X159439244Y-115360398D01*
X159485098Y-115202569D01*
X159488000Y-115165694D01*
X159488000Y-114734306D01*
X159485098Y-114697431D01*
X159483380Y-114691518D01*
X159442410Y-114550500D01*
X159439244Y-114539602D01*
X159355581Y-114398135D01*
X159355579Y-114398133D01*
X159355576Y-114398129D01*
X159239370Y-114281923D01*
X159239362Y-114281917D01*
X159097896Y-114198255D01*
X159097893Y-114198254D01*
X158964905Y-114159617D01*
X158906019Y-114122011D01*
X158876813Y-114058538D01*
X158875500Y-114040541D01*
X158875500Y-112809452D01*
X158895185Y-112742413D01*
X158947989Y-112696658D01*
X159017147Y-112686714D01*
X159080703Y-112715739D01*
X159087181Y-112721771D01*
X160063181Y-113697771D01*
X160096666Y-113759094D01*
X160099500Y-113785452D01*
X160099500Y-124075452D01*
X160079815Y-124142491D01*
X160052410Y-124172719D01*
X160046958Y-124177029D01*
X159927029Y-124296959D01*
X159838001Y-124441294D01*
X159837996Y-124441305D01*
X159784651Y-124602290D01*
X159774500Y-124701647D01*
X159774500Y-125298337D01*
X159774501Y-125298355D01*
X159784650Y-125397707D01*
X159784651Y-125397710D01*
X159837996Y-125558694D01*
X159838001Y-125558705D01*
X159927029Y-125703040D01*
X159931510Y-125708707D01*
X159930451Y-125709544D01*
X159960231Y-125764081D01*
X159955247Y-125833773D01*
X159938333Y-125864748D01*
X159906205Y-125907665D01*
X159906202Y-125907671D01*
X159855908Y-126042517D01*
X159849501Y-126102116D01*
X159849500Y-126102135D01*
X159849500Y-127547870D01*
X159849501Y-127547876D01*
X159855908Y-127607483D01*
X159906202Y-127742328D01*
X159906206Y-127742335D01*
X159992452Y-127857544D01*
X159992455Y-127857547D01*
X160107664Y-127943793D01*
X160107671Y-127943797D01*
X160242517Y-127994091D01*
X160242516Y-127994091D01*
X160249444Y-127994835D01*
X160302127Y-128000500D01*
X162197872Y-128000499D01*
X162257483Y-127994091D01*
X162392331Y-127943796D01*
X162507546Y-127857546D01*
X162575614Y-127766617D01*
X162631546Y-127724749D01*
X162701237Y-127719765D01*
X162762560Y-127753250D01*
X162796045Y-127814573D01*
X162792586Y-127879932D01*
X162785144Y-127902392D01*
X162775000Y-128001677D01*
X162775000Y-128025000D01*
X164724999Y-128025000D01*
X164724999Y-128001692D01*
X164724998Y-128001677D01*
X164714855Y-127902392D01*
X164661547Y-127741518D01*
X164661542Y-127741507D01*
X164572575Y-127597271D01*
X164572572Y-127597267D01*
X164563339Y-127588034D01*
X164529854Y-127526711D01*
X164534838Y-127457019D01*
X164563343Y-127412668D01*
X164572968Y-127403044D01*
X164662003Y-127258697D01*
X164715349Y-127097708D01*
X164725500Y-126998345D01*
X164725499Y-126451656D01*
X164715349Y-126352292D01*
X164662003Y-126191303D01*
X164661999Y-126191297D01*
X164661998Y-126191294D01*
X164572970Y-126046959D01*
X164572967Y-126046955D01*
X164453044Y-125927032D01*
X164453040Y-125927029D01*
X164308705Y-125838001D01*
X164308699Y-125837998D01*
X164308697Y-125837997D01*
X164295950Y-125833773D01*
X164147709Y-125784651D01*
X164048346Y-125774500D01*
X163451662Y-125774500D01*
X163451644Y-125774501D01*
X163352292Y-125784650D01*
X163352289Y-125784651D01*
X163260601Y-125815034D01*
X163190772Y-125817436D01*
X163130731Y-125781704D01*
X163099538Y-125719183D01*
X163107099Y-125649724D01*
X163116059Y-125632230D01*
X163161544Y-125558488D01*
X163161547Y-125558481D01*
X163214855Y-125397606D01*
X163224999Y-125298322D01*
X163225000Y-125298309D01*
X163225000Y-125250000D01*
X162399000Y-125250000D01*
X162331961Y-125230315D01*
X162286206Y-125177511D01*
X162275000Y-125126000D01*
X162275000Y-125000000D01*
X162149000Y-125000000D01*
X162081961Y-124980315D01*
X162036206Y-124927511D01*
X162025000Y-124876000D01*
X162025000Y-124750000D01*
X162525000Y-124750000D01*
X163224999Y-124750000D01*
X163224999Y-124701692D01*
X163224998Y-124701677D01*
X163214855Y-124602392D01*
X163161547Y-124441518D01*
X163161542Y-124441507D01*
X163072575Y-124297271D01*
X163072572Y-124297267D01*
X162952732Y-124177427D01*
X162952728Y-124177424D01*
X162808492Y-124088457D01*
X162808481Y-124088452D01*
X162647606Y-124035144D01*
X162548322Y-124025000D01*
X162525000Y-124025000D01*
X162525000Y-124750000D01*
X162025000Y-124750000D01*
X162025000Y-124024999D01*
X162001693Y-124025000D01*
X162001674Y-124025001D01*
X161902392Y-124035144D01*
X161741518Y-124088452D01*
X161741507Y-124088457D01*
X161597271Y-124177424D01*
X161597264Y-124177430D01*
X161588028Y-124186665D01*
X161582675Y-124189587D01*
X161579254Y-124194637D01*
X161552366Y-124206134D01*
X161526703Y-124220146D01*
X161520619Y-124219710D01*
X161515011Y-124222109D01*
X161486175Y-124217244D01*
X161457011Y-124215157D01*
X161450593Y-124211242D01*
X161446115Y-124210487D01*
X161426846Y-124196758D01*
X161416896Y-124190689D01*
X161414729Y-124188717D01*
X161403044Y-124177032D01*
X161399456Y-124174819D01*
X161391043Y-124167163D01*
X161375016Y-124140840D01*
X161357213Y-124115697D01*
X161356271Y-124110050D01*
X161354709Y-124107485D01*
X161354853Y-124101550D01*
X161350500Y-124075452D01*
X161350500Y-122034452D01*
X161370185Y-121967413D01*
X161422989Y-121921658D01*
X161492147Y-121911714D01*
X161555703Y-121940739D01*
X161562179Y-121946769D01*
X162514141Y-122898732D01*
X162514142Y-122898733D01*
X162588697Y-122973288D01*
X162601268Y-122985859D01*
X162703707Y-123054307D01*
X162703713Y-123054310D01*
X162703714Y-123054311D01*
X162817548Y-123101463D01*
X162877971Y-123113481D01*
X162938393Y-123125500D01*
X162938394Y-123125500D01*
X163052982Y-123125500D01*
X163057549Y-123125838D01*
X163086137Y-123136581D01*
X163115437Y-123145185D01*
X163119129Y-123148980D01*
X163122953Y-123150417D01*
X163130869Y-123161047D01*
X163154514Y-123185349D01*
X163169528Y-123210185D01*
X163169531Y-123210189D01*
X163289811Y-123330469D01*
X163289813Y-123330470D01*
X163289815Y-123330472D01*
X163435394Y-123418478D01*
X163597804Y-123469086D01*
X163668384Y-123475500D01*
X163668387Y-123475500D01*
X164181613Y-123475500D01*
X164181616Y-123475500D01*
X164252196Y-123469086D01*
X164414606Y-123418478D01*
X164560185Y-123330472D01*
X164602830Y-123287827D01*
X164662319Y-123228339D01*
X164723642Y-123194854D01*
X164793334Y-123199838D01*
X164837681Y-123228339D01*
X164939811Y-123330469D01*
X164939813Y-123330470D01*
X164939815Y-123330472D01*
X165085394Y-123418478D01*
X165247804Y-123469086D01*
X165318384Y-123475500D01*
X165318387Y-123475500D01*
X165831613Y-123475500D01*
X165831616Y-123475500D01*
X165902196Y-123469086D01*
X165937416Y-123458110D01*
X166007274Y-123456959D01*
X166066667Y-123493760D01*
X166090487Y-123533163D01*
X166131202Y-123642328D01*
X166131206Y-123642335D01*
X166217452Y-123757544D01*
X166217455Y-123757547D01*
X166332664Y-123843793D01*
X166332671Y-123843797D01*
X166467517Y-123894091D01*
X166467516Y-123894091D01*
X166474444Y-123894835D01*
X166527127Y-123900500D01*
X167972872Y-123900499D01*
X168032483Y-123894091D01*
X168167331Y-123843796D01*
X168282546Y-123757546D01*
X168368796Y-123642331D01*
X168419091Y-123507483D01*
X168425500Y-123447873D01*
X168425500Y-123447844D01*
X170225000Y-123447844D01*
X170231401Y-123507372D01*
X170231403Y-123507379D01*
X170281645Y-123642086D01*
X170281649Y-123642093D01*
X170367809Y-123757187D01*
X170367812Y-123757190D01*
X170482906Y-123843350D01*
X170482913Y-123843354D01*
X170617620Y-123893596D01*
X170617627Y-123893598D01*
X170677155Y-123899999D01*
X170677172Y-123900000D01*
X171150000Y-123900000D01*
X171150000Y-122750000D01*
X170225000Y-122750000D01*
X170225000Y-123447844D01*
X168425500Y-123447844D01*
X168425499Y-122431582D01*
X168425499Y-121552155D01*
X170225000Y-121552155D01*
X170225000Y-122250000D01*
X171150000Y-122250000D01*
X171150000Y-121100000D01*
X170677155Y-121100000D01*
X170617627Y-121106401D01*
X170617620Y-121106403D01*
X170482913Y-121156645D01*
X170482906Y-121156649D01*
X170367812Y-121242809D01*
X170367809Y-121242812D01*
X170281649Y-121357906D01*
X170281645Y-121357913D01*
X170231403Y-121492620D01*
X170231401Y-121492627D01*
X170225000Y-121552155D01*
X168425499Y-121552155D01*
X168425499Y-121552129D01*
X168425498Y-121552123D01*
X168424967Y-121547187D01*
X168419091Y-121492517D01*
X168416607Y-121485858D01*
X168368797Y-121357671D01*
X168368793Y-121357664D01*
X168282547Y-121242455D01*
X168282544Y-121242452D01*
X168167335Y-121156206D01*
X168167328Y-121156202D01*
X168032482Y-121105908D01*
X168032483Y-121105908D01*
X167972883Y-121099501D01*
X167972881Y-121099500D01*
X167972873Y-121099500D01*
X167972864Y-121099500D01*
X166527129Y-121099500D01*
X166527123Y-121099501D01*
X166467516Y-121105908D01*
X166332671Y-121156202D01*
X166332664Y-121156206D01*
X166217455Y-121242452D01*
X166217452Y-121242455D01*
X166131206Y-121357664D01*
X166131202Y-121357671D01*
X166090487Y-121466836D01*
X166048616Y-121522770D01*
X165983152Y-121547187D01*
X165937417Y-121541889D01*
X165902196Y-121530914D01*
X165831616Y-121524500D01*
X165831613Y-121524500D01*
X165535452Y-121524500D01*
X165468413Y-121504815D01*
X165447771Y-121488181D01*
X164146439Y-120186849D01*
X164112954Y-120125526D01*
X164117938Y-120055834D01*
X164159810Y-119999901D01*
X164225274Y-119975484D01*
X164240574Y-119975637D01*
X164240574Y-119975500D01*
X164240581Y-119975500D01*
X164240587Y-119975373D01*
X164243383Y-119975500D01*
X164243384Y-119975500D01*
X164756613Y-119975500D01*
X164756616Y-119975500D01*
X164827196Y-119969086D01*
X164989606Y-119918478D01*
X165135185Y-119830472D01*
X165158527Y-119807130D01*
X165237319Y-119728339D01*
X165298642Y-119694854D01*
X165368334Y-119699838D01*
X165412681Y-119728339D01*
X165514811Y-119830469D01*
X165514813Y-119830470D01*
X165514815Y-119830472D01*
X165660394Y-119918478D01*
X165822804Y-119969086D01*
X165893384Y-119975500D01*
X165893387Y-119975500D01*
X166406613Y-119975500D01*
X166406616Y-119975500D01*
X166477196Y-119969086D01*
X166639606Y-119918478D01*
X166785185Y-119830472D01*
X166905472Y-119710185D01*
X166993478Y-119564606D01*
X167044086Y-119402196D01*
X167050500Y-119331616D01*
X167050500Y-118668384D01*
X167044086Y-118597804D01*
X166993478Y-118435394D01*
X166905472Y-118289815D01*
X166905470Y-118289813D01*
X166905469Y-118289811D01*
X166886317Y-118270659D01*
X166852832Y-118209336D01*
X166857816Y-118139644D01*
X166899688Y-118083711D01*
X166930665Y-118066796D01*
X166992328Y-118043797D01*
X166992327Y-118043797D01*
X166992331Y-118043796D01*
X167061074Y-117992335D01*
X167114645Y-117952232D01*
X167115541Y-117953429D01*
X167168310Y-117924610D01*
X167238002Y-117929588D01*
X167293940Y-117971455D01*
X167303510Y-117986346D01*
X167306645Y-117992088D01*
X167392809Y-118107187D01*
X167392812Y-118107190D01*
X167507906Y-118193350D01*
X167507915Y-118193355D01*
X167547186Y-118208002D01*
X167603120Y-118249872D01*
X167627538Y-118315336D01*
X167612687Y-118383610D01*
X167609971Y-118388334D01*
X167581522Y-118435393D01*
X167530913Y-118597807D01*
X167530520Y-118602135D01*
X167524500Y-118668384D01*
X167524500Y-119331616D01*
X167526080Y-119349000D01*
X167530913Y-119402192D01*
X167581522Y-119564606D01*
X167669530Y-119710188D01*
X167789811Y-119830469D01*
X167789813Y-119830470D01*
X167789815Y-119830472D01*
X167935394Y-119918478D01*
X168097804Y-119969086D01*
X168168384Y-119975500D01*
X168168387Y-119975500D01*
X168681613Y-119975500D01*
X168681616Y-119975500D01*
X168752196Y-119969086D01*
X168914606Y-119918478D01*
X169060185Y-119830472D01*
X169083527Y-119807130D01*
X169162319Y-119728339D01*
X169223642Y-119694854D01*
X169293334Y-119699838D01*
X169337681Y-119728339D01*
X169439811Y-119830469D01*
X169439813Y-119830470D01*
X169439815Y-119830472D01*
X169585394Y-119918478D01*
X169747804Y-119969086D01*
X169818384Y-119975500D01*
X169818387Y-119975500D01*
X170331613Y-119975500D01*
X170331616Y-119975500D01*
X170402196Y-119969086D01*
X170564606Y-119918478D01*
X170710185Y-119830472D01*
X170830472Y-119710185D01*
X170918478Y-119564606D01*
X170969086Y-119402196D01*
X170975500Y-119331616D01*
X170975500Y-118668384D01*
X170969086Y-118597804D01*
X170918478Y-118435394D01*
X170890291Y-118388768D01*
X170872455Y-118321216D01*
X170893972Y-118254742D01*
X170948012Y-118210453D01*
X170953046Y-118208448D01*
X170992331Y-118193796D01*
X171107546Y-118107546D01*
X171193796Y-117992331D01*
X171244091Y-117857483D01*
X171250500Y-117797873D01*
X171250499Y-117463610D01*
X171270183Y-117396572D01*
X171322987Y-117350817D01*
X171327047Y-117349050D01*
X171372279Y-117330314D01*
X171372279Y-117330313D01*
X171372286Y-117330311D01*
X171474733Y-117261858D01*
X171561858Y-117174733D01*
X171630311Y-117072286D01*
X171677463Y-116958452D01*
X171701500Y-116837606D01*
X171701500Y-113014394D01*
X171701500Y-113014391D01*
X171700253Y-113008124D01*
X171700251Y-113008118D01*
X171698636Y-113000000D01*
X171684123Y-112927032D01*
X171677463Y-112893548D01*
X171630311Y-112779714D01*
X171630310Y-112779713D01*
X171630307Y-112779707D01*
X171561858Y-112677267D01*
X171561855Y-112677263D01*
X171471637Y-112587045D01*
X171471606Y-112587016D01*
X170243533Y-111358943D01*
X170235860Y-111351270D01*
X170235858Y-111351267D01*
X170148733Y-111264142D01*
X170084595Y-111221286D01*
X170078375Y-111217130D01*
X170078373Y-111217128D01*
X170046290Y-111195690D01*
X170046286Y-111195688D01*
X170012305Y-111181613D01*
X169965792Y-111162347D01*
X169932452Y-111148537D01*
X169932448Y-111148536D01*
X169932444Y-111148535D01*
X169816641Y-111125500D01*
X169816636Y-111125500D01*
X169811609Y-111124500D01*
X169811607Y-111124500D01*
X169811606Y-111124500D01*
X167810452Y-111124500D01*
X167743413Y-111104815D01*
X167722771Y-111088181D01*
X166101819Y-109467229D01*
X166068334Y-109405906D01*
X166065500Y-109379548D01*
X166065500Y-107348903D01*
X166085185Y-107281864D01*
X166137989Y-107236109D01*
X166198456Y-107226155D01*
X166198498Y-107225339D01*
X166201630Y-107225497D01*
X166201655Y-107225500D01*
X166748344Y-107225499D01*
X166748352Y-107225498D01*
X166748355Y-107225498D01*
X166802760Y-107219940D01*
X166847708Y-107215349D01*
X167008697Y-107162003D01*
X167153044Y-107072968D01*
X167162668Y-107063343D01*
X167223987Y-107029856D01*
X167293679Y-107034835D01*
X167338034Y-107063339D01*
X167347267Y-107072572D01*
X167347271Y-107072575D01*
X167491507Y-107161542D01*
X167491518Y-107161547D01*
X167652393Y-107214855D01*
X167751683Y-107224999D01*
X168275000Y-107224999D01*
X168298308Y-107224999D01*
X168298322Y-107224998D01*
X168397607Y-107214855D01*
X168558481Y-107161547D01*
X168558492Y-107161542D01*
X168702728Y-107072575D01*
X168702732Y-107072572D01*
X168822572Y-106952732D01*
X168822575Y-106952728D01*
X168911542Y-106808492D01*
X168911547Y-106808481D01*
X168964855Y-106647606D01*
X168974999Y-106548322D01*
X168975000Y-106548309D01*
X168975000Y-106500000D01*
X168275000Y-106500000D01*
X168275000Y-107224999D01*
X167751683Y-107224999D01*
X167775000Y-107224998D01*
X167775000Y-106374000D01*
X167794685Y-106306961D01*
X167847489Y-106261206D01*
X167899000Y-106250000D01*
X168025000Y-106250000D01*
X168025000Y-106124000D01*
X168044685Y-106056961D01*
X168097489Y-106011206D01*
X168149000Y-106000000D01*
X168974999Y-106000000D01*
X168974999Y-105951692D01*
X168974998Y-105951677D01*
X168964855Y-105852392D01*
X168911547Y-105691518D01*
X168911542Y-105691507D01*
X168839727Y-105575078D01*
X168821286Y-105507686D01*
X168839148Y-105445832D01*
X168918478Y-105314606D01*
X168969086Y-105152196D01*
X168975500Y-105081616D01*
X168975500Y-104568384D01*
X168969086Y-104497804D01*
X168918478Y-104335394D01*
X168830472Y-104189815D01*
X168830470Y-104189813D01*
X168830469Y-104189811D01*
X168727984Y-104087326D01*
X168694499Y-104026003D01*
X168699483Y-103956311D01*
X168727985Y-103911963D01*
X168830071Y-103809878D01*
X168830072Y-103809877D01*
X168918019Y-103664395D01*
X168968590Y-103502106D01*
X168975000Y-103431572D01*
X168975000Y-103425000D01*
X168124000Y-103425000D01*
X168056961Y-103405315D01*
X168011206Y-103352511D01*
X168000000Y-103301000D01*
X168000000Y-103049000D01*
X168019685Y-102981961D01*
X168072489Y-102936206D01*
X168124000Y-102925000D01*
X168974999Y-102925000D01*
X168991419Y-102908579D01*
X168994684Y-102897461D01*
X169047488Y-102851706D01*
X169098999Y-102840500D01*
X169689242Y-102840500D01*
X169756281Y-102860185D01*
X169776923Y-102876819D01*
X169870213Y-102970109D01*
X170042179Y-103095048D01*
X170042181Y-103095049D01*
X170042184Y-103095051D01*
X170051493Y-103099794D01*
X170102290Y-103147766D01*
X170119087Y-103215587D01*
X170096552Y-103281722D01*
X170051502Y-103320762D01*
X170042443Y-103325378D01*
X169870540Y-103450272D01*
X169870535Y-103450276D01*
X169720276Y-103600535D01*
X169720272Y-103600540D01*
X169595379Y-103772442D01*
X169498904Y-103961782D01*
X169433242Y-104163870D01*
X169433242Y-104163873D01*
X169422769Y-104230000D01*
X170316988Y-104230000D01*
X170284075Y-104287007D01*
X170250000Y-104414174D01*
X170250000Y-104545826D01*
X170284075Y-104672993D01*
X170316988Y-104730000D01*
X169422769Y-104730000D01*
X169433242Y-104796126D01*
X169433242Y-104796129D01*
X169498904Y-104998217D01*
X169595379Y-105187557D01*
X169720272Y-105359459D01*
X169720276Y-105359464D01*
X169870535Y-105509723D01*
X169870540Y-105509727D01*
X170042442Y-105634620D01*
X170231782Y-105731095D01*
X170433871Y-105796757D01*
X170500000Y-105807231D01*
X170500000Y-104913012D01*
X170557007Y-104945925D01*
X170684174Y-104980000D01*
X170815826Y-104980000D01*
X170942993Y-104945925D01*
X171000000Y-104913012D01*
X171000000Y-105807230D01*
X171066126Y-105796757D01*
X171066129Y-105796757D01*
X171268217Y-105731095D01*
X171457557Y-105634620D01*
X171629459Y-105509727D01*
X171629464Y-105509723D01*
X171779723Y-105359464D01*
X171779727Y-105359459D01*
X171904620Y-105187557D01*
X172001095Y-104998217D01*
X172066757Y-104796129D01*
X172066757Y-104796126D01*
X172077231Y-104730000D01*
X171183012Y-104730000D01*
X171215925Y-104672993D01*
X171250000Y-104545826D01*
X171250000Y-104414174D01*
X171215925Y-104287007D01*
X171183012Y-104230000D01*
X172077231Y-104230000D01*
X172066757Y-104163873D01*
X172066757Y-104163870D01*
X172001095Y-103961782D01*
X171904620Y-103772442D01*
X171779727Y-103600540D01*
X171779723Y-103600535D01*
X171629464Y-103450276D01*
X171629459Y-103450272D01*
X171457555Y-103325377D01*
X171448500Y-103320763D01*
X171397706Y-103272788D01*
X171380912Y-103204966D01*
X171403451Y-103138832D01*
X171448508Y-103099793D01*
X171457816Y-103095051D01*
X171537007Y-103037515D01*
X171629786Y-102970109D01*
X171629788Y-102970106D01*
X171629792Y-102970104D01*
X171780104Y-102819792D01*
X171780106Y-102819788D01*
X171780109Y-102819786D01*
X171905048Y-102647820D01*
X171905047Y-102647820D01*
X171905051Y-102647816D01*
X172001557Y-102458412D01*
X172067246Y-102256243D01*
X172100500Y-102046287D01*
X172100500Y-101833713D01*
X172067246Y-101623757D01*
X172001557Y-101421588D01*
X171905051Y-101232184D01*
X171905049Y-101232181D01*
X171905048Y-101232179D01*
X171780109Y-101060213D01*
X171629786Y-100909890D01*
X171457820Y-100784951D01*
X171457115Y-100784591D01*
X171449054Y-100780485D01*
X171398259Y-100732512D01*
X171381463Y-100664692D01*
X171403999Y-100598556D01*
X171449054Y-100559515D01*
X171457816Y-100555051D01*
X171581543Y-100465159D01*
X171629786Y-100430109D01*
X171629788Y-100430106D01*
X171629792Y-100430104D01*
X171780104Y-100279792D01*
X171780106Y-100279788D01*
X171780109Y-100279786D01*
X171905048Y-100107820D01*
X171905049Y-100107819D01*
X171905051Y-100107816D01*
X172001557Y-99918412D01*
X172067246Y-99716243D01*
X172100500Y-99506287D01*
X172100500Y-99293713D01*
X172067246Y-99083757D01*
X172001557Y-98881588D01*
X171905051Y-98692184D01*
X171905049Y-98692181D01*
X171905048Y-98692179D01*
X171780109Y-98520213D01*
X171629786Y-98369890D01*
X171457820Y-98244951D01*
X171457115Y-98244591D01*
X171449054Y-98240485D01*
X171398259Y-98192512D01*
X171381463Y-98124692D01*
X171403999Y-98058556D01*
X171449054Y-98019515D01*
X171457816Y-98015051D01*
X171565713Y-97936660D01*
X171629786Y-97890109D01*
X171629788Y-97890106D01*
X171629792Y-97890104D01*
X171780104Y-97739792D01*
X171780106Y-97739788D01*
X171780109Y-97739786D01*
X171905048Y-97567820D01*
X171905047Y-97567820D01*
X171905051Y-97567816D01*
X172001557Y-97378412D01*
X172067246Y-97176243D01*
X172100500Y-96966287D01*
X172100500Y-96753713D01*
X172067246Y-96543757D01*
X172001557Y-96341588D01*
X171905051Y-96152184D01*
X171905049Y-96152181D01*
X171905048Y-96152179D01*
X171780109Y-95980213D01*
X171629786Y-95829890D01*
X171457820Y-95704951D01*
X171457115Y-95704591D01*
X171449054Y-95700485D01*
X171398259Y-95652512D01*
X171381463Y-95584692D01*
X171403999Y-95518556D01*
X171449054Y-95479515D01*
X171457816Y-95475051D01*
X171561153Y-95399973D01*
X171629786Y-95350109D01*
X171629788Y-95350106D01*
X171629792Y-95350104D01*
X171780104Y-95199792D01*
X171780106Y-95199788D01*
X171780109Y-95199786D01*
X171905048Y-95027820D01*
X171905047Y-95027820D01*
X171905051Y-95027816D01*
X172001557Y-94838412D01*
X172067246Y-94636243D01*
X172100500Y-94426287D01*
X172100500Y-94213713D01*
X172067246Y-94003757D01*
X172001557Y-93801588D01*
X171905051Y-93612184D01*
X171905049Y-93612181D01*
X171905048Y-93612179D01*
X171780109Y-93440213D01*
X171629786Y-93289890D01*
X171457820Y-93164951D01*
X171454774Y-93163399D01*
X171449054Y-93160485D01*
X171398259Y-93112512D01*
X171381463Y-93044692D01*
X171403999Y-92978556D01*
X171449054Y-92939515D01*
X171457816Y-92935051D01*
X171535881Y-92878334D01*
X171629786Y-92810109D01*
X171629788Y-92810106D01*
X171629792Y-92810104D01*
X171780104Y-92659792D01*
X171780106Y-92659788D01*
X171780109Y-92659786D01*
X171905048Y-92487820D01*
X171905047Y-92487820D01*
X171905051Y-92487816D01*
X172001557Y-92298412D01*
X172067246Y-92096243D01*
X172100500Y-91886287D01*
X172100500Y-91673713D01*
X172067246Y-91463757D01*
X172001557Y-91261588D01*
X171905051Y-91072184D01*
X171905049Y-91072181D01*
X171905048Y-91072179D01*
X171780109Y-90900213D01*
X171629786Y-90749890D01*
X171457820Y-90624951D01*
X171457115Y-90624591D01*
X171449054Y-90620485D01*
X171398259Y-90572512D01*
X171381463Y-90504692D01*
X171403999Y-90438556D01*
X171449054Y-90399515D01*
X171457816Y-90395051D01*
X171525931Y-90345563D01*
X171629786Y-90270109D01*
X171629788Y-90270106D01*
X171629792Y-90270104D01*
X171780104Y-90119792D01*
X171780106Y-90119788D01*
X171780109Y-90119786D01*
X171905048Y-89947820D01*
X171905047Y-89947820D01*
X171905051Y-89947816D01*
X172001557Y-89758412D01*
X172067246Y-89556243D01*
X172100500Y-89346287D01*
X172100500Y-89133713D01*
X172067246Y-88923757D01*
X172001557Y-88721588D01*
X171905051Y-88532184D01*
X171905049Y-88532181D01*
X171905048Y-88532179D01*
X171780109Y-88360213D01*
X171629786Y-88209890D01*
X171457820Y-88084951D01*
X171457115Y-88084591D01*
X171449054Y-88080485D01*
X171398259Y-88032512D01*
X171381463Y-87964692D01*
X171403999Y-87898556D01*
X171449054Y-87859515D01*
X171457816Y-87855051D01*
X171492661Y-87829735D01*
X171629786Y-87730109D01*
X171629788Y-87730106D01*
X171629792Y-87730104D01*
X171780104Y-87579792D01*
X171780106Y-87579788D01*
X171780109Y-87579786D01*
X171905048Y-87407820D01*
X171905047Y-87407820D01*
X171905051Y-87407816D01*
X172001557Y-87218412D01*
X172067246Y-87016243D01*
X172100500Y-86806287D01*
X172100500Y-86593713D01*
X172067246Y-86383757D01*
X172001557Y-86181588D01*
X171905051Y-85992184D01*
X171905049Y-85992181D01*
X171905048Y-85992179D01*
X171780109Y-85820213D01*
X171629786Y-85669890D01*
X171457820Y-85544951D01*
X171455139Y-85543585D01*
X171449054Y-85540485D01*
X171398259Y-85492512D01*
X171381463Y-85424692D01*
X171403999Y-85358556D01*
X171449054Y-85319515D01*
X171457816Y-85315051D01*
X171479789Y-85299086D01*
X171629786Y-85190109D01*
X171629788Y-85190106D01*
X171629792Y-85190104D01*
X171780104Y-85039792D01*
X171780106Y-85039788D01*
X171780109Y-85039786D01*
X171905048Y-84867820D01*
X171905047Y-84867820D01*
X171905051Y-84867816D01*
X172001557Y-84678412D01*
X172067246Y-84476243D01*
X172100500Y-84266287D01*
X172100500Y-84053713D01*
X172067246Y-83843757D01*
X172001557Y-83641588D01*
X171905051Y-83452184D01*
X171905049Y-83452181D01*
X171905048Y-83452179D01*
X171780109Y-83280213D01*
X171629786Y-83129890D01*
X171457820Y-83004951D01*
X171457115Y-83004591D01*
X171449054Y-83000485D01*
X171398259Y-82952512D01*
X171381463Y-82884692D01*
X171403999Y-82818556D01*
X171449054Y-82779515D01*
X171457816Y-82775051D01*
X171493390Y-82749205D01*
X171629786Y-82650109D01*
X171629788Y-82650106D01*
X171629792Y-82650104D01*
X171780104Y-82499792D01*
X171780106Y-82499788D01*
X171780109Y-82499786D01*
X171905048Y-82327820D01*
X171905049Y-82327819D01*
X171905051Y-82327816D01*
X172001557Y-82138412D01*
X172067246Y-81936243D01*
X172100500Y-81726287D01*
X172100500Y-81513713D01*
X172067246Y-81303757D01*
X172001557Y-81101588D01*
X171905051Y-80912184D01*
X171905049Y-80912181D01*
X171905048Y-80912179D01*
X171780109Y-80740213D01*
X171629786Y-80589890D01*
X171457820Y-80464951D01*
X171457115Y-80464591D01*
X171449054Y-80460485D01*
X171398259Y-80412512D01*
X171381463Y-80344692D01*
X171403999Y-80278556D01*
X171449054Y-80239515D01*
X171457816Y-80235051D01*
X171479789Y-80219086D01*
X171629786Y-80110109D01*
X171629788Y-80110106D01*
X171629792Y-80110104D01*
X171780104Y-79959792D01*
X171780106Y-79959788D01*
X171780109Y-79959786D01*
X171905048Y-79787820D01*
X171905047Y-79787820D01*
X171905051Y-79787816D01*
X172001557Y-79598412D01*
X172067246Y-79396243D01*
X172100500Y-79186287D01*
X172100500Y-78973713D01*
X172067246Y-78763757D01*
X172001557Y-78561588D01*
X171905051Y-78372184D01*
X171905049Y-78372181D01*
X171905048Y-78372179D01*
X171780109Y-78200213D01*
X171629786Y-78049890D01*
X171457820Y-77924951D01*
X171457115Y-77924591D01*
X171449054Y-77920485D01*
X171398259Y-77872512D01*
X171381463Y-77804692D01*
X171403999Y-77738556D01*
X171449054Y-77699515D01*
X171457816Y-77695051D01*
X171479789Y-77679086D01*
X171629786Y-77570109D01*
X171629788Y-77570106D01*
X171629792Y-77570104D01*
X171780104Y-77419792D01*
X171780106Y-77419788D01*
X171780109Y-77419786D01*
X171905048Y-77247820D01*
X171905047Y-77247820D01*
X171905051Y-77247816D01*
X172001557Y-77058412D01*
X172067246Y-76856243D01*
X172100500Y-76646287D01*
X172100500Y-76433713D01*
X172067246Y-76223757D01*
X172001557Y-76021588D01*
X171905051Y-75832184D01*
X171905049Y-75832181D01*
X171905048Y-75832179D01*
X171780109Y-75660213D01*
X171629786Y-75509890D01*
X171457820Y-75384951D01*
X171457115Y-75384591D01*
X171449054Y-75380485D01*
X171398259Y-75332512D01*
X171381463Y-75264692D01*
X171403999Y-75198556D01*
X171449054Y-75159515D01*
X171457816Y-75155051D01*
X171564086Y-75077842D01*
X171629786Y-75030109D01*
X171629788Y-75030106D01*
X171629792Y-75030104D01*
X171780104Y-74879792D01*
X171780106Y-74879788D01*
X171780109Y-74879786D01*
X171901293Y-74712989D01*
X171905051Y-74707816D01*
X172001557Y-74518412D01*
X172067246Y-74316243D01*
X172100500Y-74106287D01*
X172100500Y-73893713D01*
X172067246Y-73683757D01*
X172001557Y-73481588D01*
X171905051Y-73292184D01*
X171905049Y-73292181D01*
X171905048Y-73292179D01*
X171780109Y-73120213D01*
X171666181Y-73006285D01*
X171632696Y-72944962D01*
X171637680Y-72875270D01*
X171679552Y-72819337D01*
X171710529Y-72802422D01*
X171842086Y-72753354D01*
X171842093Y-72753350D01*
X171957187Y-72667190D01*
X171957190Y-72667187D01*
X172043350Y-72552093D01*
X172043354Y-72552086D01*
X172093596Y-72417379D01*
X172093598Y-72417372D01*
X172099999Y-72357844D01*
X172100000Y-72357827D01*
X172100000Y-71710000D01*
X171183012Y-71710000D01*
X171215925Y-71652993D01*
X171250000Y-71525826D01*
X171250000Y-71394174D01*
X171215925Y-71267007D01*
X171183012Y-71210000D01*
X172100000Y-71210000D01*
X172100000Y-70562172D01*
X172099999Y-70562155D01*
X172093598Y-70502627D01*
X172093596Y-70502620D01*
X172043354Y-70367913D01*
X172043350Y-70367906D01*
X171957190Y-70252812D01*
X171957187Y-70252809D01*
X171842093Y-70166649D01*
X171842086Y-70166645D01*
X171707379Y-70116403D01*
X171707372Y-70116401D01*
X171647844Y-70110000D01*
X171000000Y-70110000D01*
X171000000Y-71026988D01*
X170942993Y-70994075D01*
X170815826Y-70960000D01*
X170684174Y-70960000D01*
X170557007Y-70994075D01*
X170500000Y-71026988D01*
X170500000Y-70110000D01*
X169852155Y-70110000D01*
X169792627Y-70116401D01*
X169792620Y-70116403D01*
X169657913Y-70166645D01*
X169657906Y-70166649D01*
X169542812Y-70252809D01*
X169542809Y-70252812D01*
X169456649Y-70367906D01*
X169456645Y-70367913D01*
X169406403Y-70502620D01*
X169406401Y-70502627D01*
X169400000Y-70562155D01*
X169400000Y-71289270D01*
X169380315Y-71356309D01*
X169327511Y-71402064D01*
X169258353Y-71412008D01*
X169194797Y-71382983D01*
X169188319Y-71376951D01*
X166763049Y-68951681D01*
X166729564Y-68890358D01*
X166734548Y-68820666D01*
X166776420Y-68764733D01*
X166841884Y-68740316D01*
X166850730Y-68740000D01*
X171930000Y-68740000D01*
X171930000Y-65642809D01*
X171930265Y-65634700D01*
X171930500Y-65631114D01*
X171930500Y-65368886D01*
X171930265Y-65365301D01*
X171930000Y-65357192D01*
X171930000Y-64442371D01*
X171949685Y-64375332D01*
X172002489Y-64329577D01*
X172071647Y-64319633D01*
X172135203Y-64348658D01*
X172167076Y-64391480D01*
X172263997Y-64606831D01*
X172269306Y-64620832D01*
X172354635Y-64894663D01*
X172358219Y-64909201D01*
X172409923Y-65191340D01*
X172411728Y-65206205D01*
X172429274Y-65496263D01*
X172429500Y-65503750D01*
X172429500Y-121019979D01*
X172409815Y-121087018D01*
X172357011Y-121132773D01*
X172287853Y-121142717D01*
X172262168Y-121136161D01*
X172182383Y-121106404D01*
X172182372Y-121106401D01*
X172122844Y-121100000D01*
X171650000Y-121100000D01*
X171650000Y-123900000D01*
X172122828Y-123900000D01*
X172122844Y-123899999D01*
X172182372Y-123893598D01*
X172182383Y-123893595D01*
X172262166Y-123863838D01*
X172331857Y-123858853D01*
X172393181Y-123892337D01*
X172426666Y-123953660D01*
X172429500Y-123980019D01*
X172429500Y-129496249D01*
X172429274Y-129503736D01*
X172411728Y-129793794D01*
X172409923Y-129808659D01*
X172358219Y-130090798D01*
X172354635Y-130105336D01*
X172269306Y-130379167D01*
X172263997Y-130393168D01*
X172146275Y-130654736D01*
X172139316Y-130667995D01*
X171990928Y-130913459D01*
X171982422Y-130925782D01*
X171805526Y-131151573D01*
X171795596Y-131162781D01*
X171592781Y-131365596D01*
X171581573Y-131375526D01*
X171355782Y-131552422D01*
X171343459Y-131560928D01*
X171097995Y-131709316D01*
X171084736Y-131716275D01*
X170823168Y-131833997D01*
X170809167Y-131839306D01*
X170535336Y-131924635D01*
X170520798Y-131928219D01*
X170238659Y-131979923D01*
X170223794Y-131981728D01*
X169933736Y-131999274D01*
X169926249Y-131999500D01*
X162731885Y-131999500D01*
X162664846Y-131979815D01*
X162619091Y-131927011D01*
X162609147Y-131857853D01*
X162615703Y-131832167D01*
X162643596Y-131757379D01*
X162643598Y-131757372D01*
X162649999Y-131697844D01*
X162650000Y-131697827D01*
X162650000Y-131225000D01*
X159850000Y-131225000D01*
X159850000Y-131697844D01*
X159856401Y-131757372D01*
X159856403Y-131757379D01*
X159884297Y-131832167D01*
X159889281Y-131901859D01*
X159855796Y-131963182D01*
X159794473Y-131996666D01*
X159768115Y-131999500D01*
X158024000Y-131999500D01*
X157956961Y-131979815D01*
X157911206Y-131927011D01*
X157900000Y-131875500D01*
X157900000Y-131400000D01*
X155100000Y-131400000D01*
X155100000Y-131875500D01*
X155080315Y-131942539D01*
X155027511Y-131988294D01*
X154976000Y-131999500D01*
X152986082Y-131999500D01*
X152919043Y-131979815D01*
X152873288Y-131927011D01*
X152863344Y-131857853D01*
X152892369Y-131794297D01*
X152951147Y-131756523D01*
X152961891Y-131753883D01*
X153102097Y-131725993D01*
X153102105Y-131725991D01*
X153274991Y-131654380D01*
X153275000Y-131654375D01*
X153430589Y-131550413D01*
X153430593Y-131550410D01*
X153562910Y-131418093D01*
X153562913Y-131418089D01*
X153666875Y-131262500D01*
X153666880Y-131262491D01*
X153738491Y-131089605D01*
X153738493Y-131089597D01*
X153774999Y-130906071D01*
X153775000Y-130906069D01*
X153775000Y-130662500D01*
X153125000Y-130662500D01*
X153125000Y-130427155D01*
X155100000Y-130427155D01*
X155100000Y-130900000D01*
X156250000Y-130900000D01*
X156750000Y-130900000D01*
X157900000Y-130900000D01*
X157900000Y-130427172D01*
X157899999Y-130427155D01*
X157893598Y-130367627D01*
X157893596Y-130367620D01*
X157865461Y-130292184D01*
X157850531Y-130252155D01*
X159850000Y-130252155D01*
X159850000Y-130725000D01*
X161000000Y-130725000D01*
X161500000Y-130725000D01*
X162650000Y-130725000D01*
X162650000Y-130252172D01*
X162649999Y-130252155D01*
X162643598Y-130192627D01*
X162643596Y-130192620D01*
X162593354Y-130057913D01*
X162593350Y-130057906D01*
X162507190Y-129942812D01*
X162507187Y-129942809D01*
X162392093Y-129856649D01*
X162392086Y-129856645D01*
X162257379Y-129806403D01*
X162257372Y-129806401D01*
X162197844Y-129800000D01*
X161500000Y-129800000D01*
X161500000Y-130725000D01*
X161000000Y-130725000D01*
X161000000Y-129800000D01*
X160302155Y-129800000D01*
X160242627Y-129806401D01*
X160242620Y-129806403D01*
X160107913Y-129856645D01*
X160107906Y-129856649D01*
X159992812Y-129942809D01*
X159992809Y-129942812D01*
X159906649Y-130057906D01*
X159906645Y-130057913D01*
X159856403Y-130192620D01*
X159856401Y-130192627D01*
X159850000Y-130252155D01*
X157850531Y-130252155D01*
X157843354Y-130232913D01*
X157843350Y-130232906D01*
X157757190Y-130117812D01*
X157757187Y-130117809D01*
X157642093Y-130031649D01*
X157642086Y-130031645D01*
X157507379Y-129981403D01*
X157507372Y-129981401D01*
X157447844Y-129975000D01*
X156750000Y-129975000D01*
X156750000Y-130900000D01*
X156250000Y-130900000D01*
X156250000Y-129975000D01*
X155552155Y-129975000D01*
X155492627Y-129981401D01*
X155492620Y-129981403D01*
X155357913Y-130031645D01*
X155357906Y-130031649D01*
X155242812Y-130117809D01*
X155242809Y-130117812D01*
X155156649Y-130232906D01*
X155156645Y-130232913D01*
X155106403Y-130367620D01*
X155106401Y-130367627D01*
X155100000Y-130427155D01*
X153125000Y-130427155D01*
X153125000Y-130162500D01*
X153775000Y-130162500D01*
X153775000Y-129918930D01*
X153774999Y-129918928D01*
X153738493Y-129735402D01*
X153738491Y-129735394D01*
X153666880Y-129562508D01*
X153666875Y-129562499D01*
X153580822Y-129433712D01*
X153562913Y-129406910D01*
X153562910Y-129406906D01*
X153524876Y-129368872D01*
X167929500Y-129368872D01*
X167929500Y-129631127D01*
X167950436Y-129790140D01*
X167963730Y-129891116D01*
X168031043Y-130142331D01*
X168031602Y-130144418D01*
X168031605Y-130144428D01*
X168131953Y-130386690D01*
X168131958Y-130386700D01*
X168263075Y-130613803D01*
X168422718Y-130821851D01*
X168422726Y-130821860D01*
X168608140Y-131007274D01*
X168608148Y-131007281D01*
X168816196Y-131166924D01*
X169043299Y-131298041D01*
X169043309Y-131298046D01*
X169219202Y-131370903D01*
X169285581Y-131398398D01*
X169538884Y-131466270D01*
X169798880Y-131500500D01*
X169798887Y-131500500D01*
X170061113Y-131500500D01*
X170061120Y-131500500D01*
X170321116Y-131466270D01*
X170574419Y-131398398D01*
X170816697Y-131298043D01*
X171043803Y-131166924D01*
X171251851Y-131007282D01*
X171251855Y-131007277D01*
X171251860Y-131007274D01*
X171437274Y-130821860D01*
X171437277Y-130821855D01*
X171437282Y-130821851D01*
X171596924Y-130613803D01*
X171728043Y-130386697D01*
X171731163Y-130379166D01*
X171775294Y-130272624D01*
X171828398Y-130144419D01*
X171896270Y-129891116D01*
X171930500Y-129631120D01*
X171930500Y-129368880D01*
X171896270Y-129108884D01*
X171828398Y-128855581D01*
X171823775Y-128844419D01*
X171728046Y-128613309D01*
X171728041Y-128613299D01*
X171596924Y-128386196D01*
X171437281Y-128178148D01*
X171437274Y-128178140D01*
X171251860Y-127992726D01*
X171251851Y-127992718D01*
X171043803Y-127833075D01*
X170816700Y-127701958D01*
X170816690Y-127701953D01*
X170574428Y-127601605D01*
X170574421Y-127601603D01*
X170574419Y-127601602D01*
X170321116Y-127533730D01*
X170239373Y-127522968D01*
X170061127Y-127499500D01*
X170061120Y-127499500D01*
X169798880Y-127499500D01*
X169798872Y-127499500D01*
X169567772Y-127529926D01*
X169538884Y-127533730D01*
X169301760Y-127597267D01*
X169285581Y-127601602D01*
X169285571Y-127601605D01*
X169043309Y-127701953D01*
X169043299Y-127701958D01*
X168816196Y-127833075D01*
X168608148Y-127992718D01*
X168422718Y-128178148D01*
X168263075Y-128386196D01*
X168131958Y-128613299D01*
X168131953Y-128613309D01*
X168031605Y-128855571D01*
X168031602Y-128855581D01*
X167967822Y-129093615D01*
X167963730Y-129108885D01*
X167929500Y-129368872D01*
X153524876Y-129368872D01*
X153430593Y-129274589D01*
X153430589Y-129274586D01*
X153275000Y-129170624D01*
X153274991Y-129170619D01*
X153102103Y-129099007D01*
X153102100Y-129099006D01*
X153075000Y-129093615D01*
X153075000Y-129845511D01*
X153065060Y-129828295D01*
X153009205Y-129772440D01*
X152940796Y-129732944D01*
X152864496Y-129712500D01*
X152785504Y-129712500D01*
X152709204Y-129732944D01*
X152640795Y-129772440D01*
X152584940Y-129828295D01*
X152575000Y-129845511D01*
X152575000Y-129093616D01*
X152574999Y-129093615D01*
X152547899Y-129099006D01*
X152547896Y-129099007D01*
X152375008Y-129170619D01*
X152374999Y-129170624D01*
X152219410Y-129274586D01*
X152219406Y-129274589D01*
X152087089Y-129406906D01*
X152087086Y-129406910D01*
X151983124Y-129562499D01*
X151983119Y-129562508D01*
X151911508Y-129735394D01*
X151911506Y-129735402D01*
X151875000Y-129918928D01*
X151875000Y-130162500D01*
X152525000Y-130162500D01*
X152525000Y-130662500D01*
X151875000Y-130662500D01*
X151875000Y-130906071D01*
X151911506Y-131089597D01*
X151911508Y-131089605D01*
X151983119Y-131262491D01*
X151983124Y-131262500D01*
X152087086Y-131418089D01*
X152087089Y-131418093D01*
X152219406Y-131550410D01*
X152219410Y-131550413D01*
X152374999Y-131654375D01*
X152375008Y-131654380D01*
X152547894Y-131725991D01*
X152547902Y-131725993D01*
X152688109Y-131753883D01*
X152750020Y-131786268D01*
X152784594Y-131846984D01*
X152780855Y-131916753D01*
X152739988Y-131973425D01*
X152674970Y-131999006D01*
X152663918Y-131999500D01*
X144336082Y-131999500D01*
X144269043Y-131979815D01*
X144223288Y-131927011D01*
X144213344Y-131857853D01*
X144242369Y-131794297D01*
X144301147Y-131756523D01*
X144311891Y-131753883D01*
X144452097Y-131725993D01*
X144452105Y-131725991D01*
X144624991Y-131654380D01*
X144625000Y-131654375D01*
X144780589Y-131550413D01*
X144780593Y-131550410D01*
X144912910Y-131418093D01*
X144912913Y-131418089D01*
X145016875Y-131262500D01*
X145016880Y-131262491D01*
X145088491Y-131089605D01*
X145088493Y-131089597D01*
X145124999Y-130906071D01*
X145125000Y-130906069D01*
X145125000Y-130662500D01*
X144475000Y-130662500D01*
X144475000Y-130162500D01*
X145125000Y-130162500D01*
X145125000Y-129918930D01*
X145124999Y-129918928D01*
X145088493Y-129735402D01*
X145088491Y-129735394D01*
X145016880Y-129562508D01*
X145016875Y-129562499D01*
X144912913Y-129406910D01*
X144912910Y-129406906D01*
X144780593Y-129274589D01*
X144780589Y-129274586D01*
X144625000Y-129170624D01*
X144624991Y-129170619D01*
X144452103Y-129099007D01*
X144452100Y-129099006D01*
X144425000Y-129093615D01*
X144425000Y-129845511D01*
X144415060Y-129828295D01*
X144359205Y-129772440D01*
X144290796Y-129732944D01*
X144214496Y-129712500D01*
X144135504Y-129712500D01*
X144059204Y-129732944D01*
X143990795Y-129772440D01*
X143934940Y-129828295D01*
X143925000Y-129845511D01*
X143925000Y-129093616D01*
X143924999Y-129093615D01*
X143897899Y-129099006D01*
X143897896Y-129099007D01*
X143725008Y-129170619D01*
X143724999Y-129170624D01*
X143569410Y-129274586D01*
X143569406Y-129274589D01*
X143437089Y-129406906D01*
X143437086Y-129406910D01*
X143333124Y-129562499D01*
X143333119Y-129562508D01*
X143261508Y-129735394D01*
X143261506Y-129735402D01*
X143225000Y-129918928D01*
X143225000Y-130162500D01*
X143875000Y-130162500D01*
X143875000Y-130662500D01*
X143225000Y-130662500D01*
X143225000Y-130906071D01*
X143261506Y-131089597D01*
X143261508Y-131089605D01*
X143333119Y-131262491D01*
X143333124Y-131262500D01*
X143437086Y-131418089D01*
X143437089Y-131418093D01*
X143569406Y-131550410D01*
X143569410Y-131550413D01*
X143724999Y-131654375D01*
X143725008Y-131654380D01*
X143897894Y-131725991D01*
X143897902Y-131725993D01*
X144038109Y-131753883D01*
X144100020Y-131786268D01*
X144134594Y-131846984D01*
X144130855Y-131916753D01*
X144089988Y-131973425D01*
X144024970Y-131999006D01*
X144013918Y-131999500D01*
X141556060Y-131999500D01*
X141489021Y-131979815D01*
X141443266Y-131927011D01*
X141433322Y-131857853D01*
X141462347Y-131794297D01*
X141481748Y-131776234D01*
X141507190Y-131757187D01*
X141593350Y-131642093D01*
X141593354Y-131642086D01*
X141643596Y-131507379D01*
X141643598Y-131507372D01*
X141649999Y-131447844D01*
X141650000Y-131447827D01*
X141650000Y-131250000D01*
X139850000Y-131250000D01*
X139850000Y-131447844D01*
X139856401Y-131507372D01*
X139856403Y-131507379D01*
X139906645Y-131642086D01*
X139906649Y-131642093D01*
X139992809Y-131757187D01*
X140018252Y-131776234D01*
X140060122Y-131832168D01*
X140065106Y-131901860D01*
X140031620Y-131963182D01*
X139970297Y-131996667D01*
X139943940Y-131999500D01*
X125933752Y-131999500D01*
X125926265Y-131999274D01*
X125636205Y-131981728D01*
X125621340Y-131979923D01*
X125339202Y-131928219D01*
X125324664Y-131924635D01*
X125050833Y-131839306D01*
X125036832Y-131833997D01*
X124775263Y-131716274D01*
X124762004Y-131709315D01*
X124516540Y-131560928D01*
X124504217Y-131552422D01*
X124437943Y-131500500D01*
X124278426Y-131375526D01*
X124267218Y-131365596D01*
X124064403Y-131162781D01*
X124054473Y-131151573D01*
X124023861Y-131112500D01*
X123877573Y-130925776D01*
X123869075Y-130913465D01*
X123720683Y-130667994D01*
X123713725Y-130654736D01*
X123596000Y-130393162D01*
X123590695Y-130379171D01*
X123505363Y-130105334D01*
X123501780Y-130090797D01*
X123458870Y-129856645D01*
X123450075Y-129808657D01*
X123448271Y-129793794D01*
X123434280Y-129562499D01*
X123430726Y-129503735D01*
X123430500Y-129496248D01*
X123430500Y-129368872D01*
X123929500Y-129368872D01*
X123929500Y-129631127D01*
X123950436Y-129790140D01*
X123963730Y-129891116D01*
X124031043Y-130142331D01*
X124031602Y-130144418D01*
X124031605Y-130144428D01*
X124131953Y-130386690D01*
X124131958Y-130386700D01*
X124263075Y-130613803D01*
X124422718Y-130821851D01*
X124422726Y-130821860D01*
X124608140Y-131007274D01*
X124608148Y-131007281D01*
X124816196Y-131166924D01*
X125043299Y-131298041D01*
X125043309Y-131298046D01*
X125219202Y-131370903D01*
X125285581Y-131398398D01*
X125538884Y-131466270D01*
X125798880Y-131500500D01*
X125798887Y-131500500D01*
X126061113Y-131500500D01*
X126061120Y-131500500D01*
X126321116Y-131466270D01*
X126574419Y-131398398D01*
X126816697Y-131298043D01*
X127043803Y-131166924D01*
X127251851Y-131007282D01*
X127251855Y-131007277D01*
X127251860Y-131007274D01*
X127437274Y-130821860D01*
X127437277Y-130821855D01*
X127437282Y-130821851D01*
X127596924Y-130613803D01*
X127728043Y-130386697D01*
X127731163Y-130379166D01*
X127775294Y-130272624D01*
X127828398Y-130144419D01*
X127896270Y-129891116D01*
X127930500Y-129631120D01*
X127930500Y-129368880D01*
X127896270Y-129108884D01*
X127828398Y-128855581D01*
X127823775Y-128844419D01*
X127728046Y-128613309D01*
X127728041Y-128613299D01*
X127596924Y-128386196D01*
X127530111Y-128299125D01*
X127529495Y-128298322D01*
X136275001Y-128298322D01*
X136285144Y-128397607D01*
X136338452Y-128558481D01*
X136338457Y-128558492D01*
X136427424Y-128702728D01*
X136427427Y-128702732D01*
X136547267Y-128822572D01*
X136547271Y-128822575D01*
X136691507Y-128911542D01*
X136691518Y-128911547D01*
X136852393Y-128964855D01*
X136951683Y-128974999D01*
X137500000Y-128974999D01*
X137548308Y-128974999D01*
X137548322Y-128974998D01*
X137647607Y-128964855D01*
X137808481Y-128911547D01*
X137808492Y-128911542D01*
X137952728Y-128822575D01*
X137952732Y-128822572D01*
X138072572Y-128702732D01*
X138072575Y-128702728D01*
X138161542Y-128558492D01*
X138161547Y-128558481D01*
X138214855Y-128397606D01*
X138224999Y-128298322D01*
X138225000Y-128298309D01*
X138225000Y-128275000D01*
X137500000Y-128275000D01*
X137500000Y-128974999D01*
X136951683Y-128974999D01*
X136999999Y-128974998D01*
X137000000Y-128974998D01*
X137000000Y-128275000D01*
X136275001Y-128275000D01*
X136275001Y-128298322D01*
X127529495Y-128298322D01*
X127437281Y-128178148D01*
X127437274Y-128178140D01*
X127251860Y-127992726D01*
X127251851Y-127992718D01*
X127043803Y-127833075D01*
X126816700Y-127701958D01*
X126816690Y-127701953D01*
X126574428Y-127601605D01*
X126574421Y-127601603D01*
X126574419Y-127601602D01*
X126321116Y-127533730D01*
X126239373Y-127522968D01*
X126061127Y-127499500D01*
X126061120Y-127499500D01*
X125798880Y-127499500D01*
X125798872Y-127499500D01*
X125567772Y-127529926D01*
X125538884Y-127533730D01*
X125301760Y-127597267D01*
X125285581Y-127601602D01*
X125285571Y-127601605D01*
X125043309Y-127701953D01*
X125043299Y-127701958D01*
X124816196Y-127833075D01*
X124608148Y-127992718D01*
X124422718Y-128178148D01*
X124263075Y-128386196D01*
X124131958Y-128613299D01*
X124131953Y-128613309D01*
X124031605Y-128855571D01*
X124031602Y-128855581D01*
X123967822Y-129093615D01*
X123963730Y-129108885D01*
X123929500Y-129368872D01*
X123430500Y-129368872D01*
X123430500Y-65503750D01*
X123430726Y-65496263D01*
X123448271Y-65206205D01*
X123450076Y-65191340D01*
X123501780Y-64909202D01*
X123505364Y-64894664D01*
X123590696Y-64620823D01*
X123595998Y-64606842D01*
X123692924Y-64391479D01*
X123738389Y-64338426D01*
X123805319Y-64318374D01*
X123872466Y-64337690D01*
G37*
%TD.AperFunction*%
%TA.AperFunction,Conductor*%
G36*
X144233039Y-121519685D02*
G01*
X144278794Y-121572489D01*
X144290000Y-121624000D01*
X144290000Y-122200000D01*
X144377828Y-122200000D01*
X144377844Y-122199999D01*
X144437372Y-122193598D01*
X144437379Y-122193596D01*
X144572086Y-122143354D01*
X144572089Y-122143352D01*
X144675271Y-122066110D01*
X144740735Y-122041692D01*
X144809008Y-122056543D01*
X144823888Y-122066105D01*
X144927076Y-122143352D01*
X144927668Y-122143795D01*
X144927671Y-122143797D01*
X144930288Y-122144773D01*
X145062517Y-122194091D01*
X145122127Y-122200500D01*
X145697872Y-122200499D01*
X145757483Y-122194091D01*
X145892331Y-122143796D01*
X145892333Y-122143793D01*
X145898058Y-122140669D01*
X145957487Y-122125500D01*
X146741607Y-122125500D01*
X146741607Y-122125499D01*
X146819526Y-122110001D01*
X146862451Y-122101463D01*
X146902399Y-122084916D01*
X146976285Y-122054312D01*
X147038611Y-122012666D01*
X147057109Y-122000305D01*
X147123787Y-121979428D01*
X147191167Y-121997913D01*
X147237857Y-122049891D01*
X147250000Y-122103408D01*
X147250000Y-122301000D01*
X147230315Y-122368039D01*
X147177511Y-122413794D01*
X147126000Y-122425000D01*
X146275001Y-122425000D01*
X146275001Y-122431582D01*
X146281408Y-122502102D01*
X146281409Y-122502107D01*
X146331981Y-122664396D01*
X146419927Y-122809877D01*
X146522015Y-122911965D01*
X146555500Y-122973288D01*
X146550516Y-123042980D01*
X146522015Y-123087327D01*
X146419531Y-123189810D01*
X146419530Y-123189811D01*
X146331522Y-123335393D01*
X146327787Y-123347379D01*
X146305633Y-123418478D01*
X146289257Y-123471031D01*
X146250519Y-123529179D01*
X146186494Y-123557153D01*
X146117509Y-123546072D01*
X146083190Y-123521822D01*
X145478421Y-122917052D01*
X145478414Y-122917046D01*
X145404729Y-122867812D01*
X145404729Y-122867813D01*
X145355491Y-122834913D01*
X145218917Y-122778343D01*
X145218907Y-122778340D01*
X145073920Y-122749500D01*
X145073918Y-122749500D01*
X143596871Y-122749500D01*
X143529832Y-122729815D01*
X143484077Y-122677011D01*
X143479165Y-122664505D01*
X143475227Y-122652620D01*
X143434815Y-122530666D01*
X143342713Y-122381344D01*
X143218657Y-122257288D01*
X143116195Y-122194089D01*
X143069337Y-122165187D01*
X143069332Y-122165185D01*
X143064944Y-122163731D01*
X142902798Y-122110001D01*
X142902796Y-122110000D01*
X142800011Y-122099500D01*
X140699999Y-122099500D01*
X140699982Y-122099501D01*
X140597204Y-122110000D01*
X140597197Y-122110002D01*
X140531016Y-122131932D01*
X140461187Y-122134333D01*
X140401146Y-122098601D01*
X140369954Y-122036080D01*
X140370395Y-121990037D01*
X140400500Y-121838692D01*
X140400500Y-121749500D01*
X140420185Y-121682461D01*
X140472989Y-121636706D01*
X140524500Y-121625500D01*
X143226000Y-121625500D01*
X143293039Y-121645185D01*
X143338794Y-121697989D01*
X143348927Y-121744568D01*
X143349540Y-121744536D01*
X143349644Y-121744525D01*
X143349644Y-121744530D01*
X143349823Y-121744521D01*
X143350000Y-121747844D01*
X143356401Y-121807372D01*
X143356403Y-121807379D01*
X143406645Y-121942086D01*
X143406649Y-121942093D01*
X143492809Y-122057187D01*
X143492812Y-122057190D01*
X143607906Y-122143350D01*
X143607913Y-122143354D01*
X143742620Y-122193596D01*
X143742627Y-122193598D01*
X143802155Y-122199999D01*
X143802172Y-122200000D01*
X143890000Y-122200000D01*
X143890000Y-121624000D01*
X143892550Y-121615314D01*
X143891262Y-121606353D01*
X143902240Y-121582312D01*
X143909685Y-121556961D01*
X143916525Y-121551033D01*
X143920287Y-121542797D01*
X143942521Y-121528507D01*
X143962489Y-121511206D01*
X143973003Y-121508918D01*
X143979065Y-121505023D01*
X144014000Y-121500000D01*
X144166000Y-121500000D01*
X144233039Y-121519685D01*
G37*
%TD.AperFunction*%
%TA.AperFunction,Conductor*%
G36*
X152132587Y-112021185D02*
G01*
X152153228Y-112037818D01*
X154514141Y-114398732D01*
X154514142Y-114398733D01*
X154563909Y-114448500D01*
X154601268Y-114485859D01*
X154649310Y-114517960D01*
X154698010Y-114550500D01*
X154698011Y-114550501D01*
X154703712Y-114554310D01*
X154703713Y-114554310D01*
X154703714Y-114554311D01*
X154817548Y-114601463D01*
X154938388Y-114625499D01*
X154938392Y-114625500D01*
X154938393Y-114625500D01*
X154938394Y-114625500D01*
X155291691Y-114625500D01*
X155358730Y-114645185D01*
X155379372Y-114661819D01*
X155385629Y-114668076D01*
X155385633Y-114668079D01*
X155385635Y-114668081D01*
X155527102Y-114751744D01*
X155568724Y-114763836D01*
X155684926Y-114797597D01*
X155684929Y-114797597D01*
X155684931Y-114797598D01*
X155721806Y-114800500D01*
X156888000Y-114800500D01*
X156896685Y-114803050D01*
X156905647Y-114801762D01*
X156929687Y-114812740D01*
X156955039Y-114820185D01*
X156960966Y-114827025D01*
X156969203Y-114830787D01*
X156983492Y-114853021D01*
X157000794Y-114872989D01*
X157003081Y-114883503D01*
X157006977Y-114889565D01*
X157012000Y-114924500D01*
X157012000Y-114976000D01*
X156992315Y-115043039D01*
X156939511Y-115088794D01*
X156888000Y-115100000D01*
X156625000Y-115100000D01*
X156625000Y-116700000D01*
X157028134Y-116700000D01*
X157028149Y-116699999D01*
X157064989Y-116697100D01*
X157064995Y-116697099D01*
X157222693Y-116651283D01*
X157222696Y-116651282D01*
X157364052Y-116567685D01*
X157364061Y-116567678D01*
X157412819Y-116518921D01*
X157474142Y-116485436D01*
X157543834Y-116490420D01*
X157599767Y-116532292D01*
X157624184Y-116597756D01*
X157624500Y-116606602D01*
X157624500Y-120825500D01*
X157604815Y-120892539D01*
X157552011Y-120938294D01*
X157500500Y-120949500D01*
X157421155Y-120949500D01*
X157266510Y-120980261D01*
X157266498Y-120980264D01*
X157120827Y-121040602D01*
X157120814Y-121040609D01*
X156989711Y-121128210D01*
X156989707Y-121128213D01*
X156878213Y-121239707D01*
X156878207Y-121239715D01*
X156790607Y-121370818D01*
X156790606Y-121370819D01*
X156780805Y-121394480D01*
X156753927Y-121434703D01*
X156482952Y-121705678D01*
X156421629Y-121739163D01*
X156351937Y-121734179D01*
X156307592Y-121705679D01*
X151203181Y-116601269D01*
X151203180Y-116601267D01*
X151116055Y-116514142D01*
X151059651Y-116476454D01*
X151053113Y-116472085D01*
X151013607Y-116445687D01*
X151013603Y-116445685D01*
X150925938Y-116409374D01*
X150925934Y-116409373D01*
X150917040Y-116405689D01*
X150899774Y-116398537D01*
X150798616Y-116378416D01*
X150796108Y-116377917D01*
X150796087Y-116377912D01*
X150778933Y-116374500D01*
X150778929Y-116374500D01*
X150778928Y-116374500D01*
X145412351Y-116374500D01*
X145345312Y-116354815D01*
X145343459Y-116353602D01*
X145315494Y-116334916D01*
X145315487Y-116334912D01*
X145178916Y-116278343D01*
X145178906Y-116278340D01*
X145033919Y-116249500D01*
X145033917Y-116249500D01*
X143862229Y-116249500D01*
X143832788Y-116240855D01*
X143802802Y-116234332D01*
X143797786Y-116230577D01*
X143795190Y-116229815D01*
X143774548Y-116213181D01*
X143773548Y-116212181D01*
X143740063Y-116150858D01*
X143740124Y-116150001D01*
X155140204Y-116150001D01*
X155140399Y-116152486D01*
X155186218Y-116310198D01*
X155269814Y-116451552D01*
X155269821Y-116451561D01*
X155385938Y-116567678D01*
X155385947Y-116567685D01*
X155527303Y-116651282D01*
X155527306Y-116651283D01*
X155685004Y-116697099D01*
X155685010Y-116697100D01*
X155721850Y-116699999D01*
X155721866Y-116700000D01*
X156125000Y-116700000D01*
X156125000Y-116150000D01*
X155140205Y-116150000D01*
X155140204Y-116150001D01*
X143740124Y-116150001D01*
X143745047Y-116081166D01*
X143786919Y-116025233D01*
X143852383Y-116000816D01*
X143861229Y-116000500D01*
X144135686Y-116000500D01*
X144135694Y-116000500D01*
X144172569Y-115997598D01*
X144172571Y-115997597D01*
X144172573Y-115997597D01*
X144214191Y-115985505D01*
X144330398Y-115951744D01*
X144471865Y-115868081D01*
X144471870Y-115868075D01*
X144478031Y-115863298D01*
X144479933Y-115865750D01*
X144528579Y-115839155D01*
X144598274Y-115844104D01*
X144630695Y-115864940D01*
X144631969Y-115863298D01*
X144638132Y-115868078D01*
X144638135Y-115868081D01*
X144779602Y-115951744D01*
X144821224Y-115963836D01*
X144937426Y-115997597D01*
X144937429Y-115997597D01*
X144937431Y-115997598D01*
X144974306Y-116000500D01*
X144974314Y-116000500D01*
X145405686Y-116000500D01*
X145405694Y-116000500D01*
X145442569Y-115997598D01*
X145442571Y-115997597D01*
X145442573Y-115997597D01*
X145484191Y-115985505D01*
X145600398Y-115951744D01*
X145741865Y-115868081D01*
X145741870Y-115868075D01*
X145748031Y-115863298D01*
X145749933Y-115865750D01*
X145798579Y-115839155D01*
X145868274Y-115844104D01*
X145900695Y-115864940D01*
X145901969Y-115863298D01*
X145908132Y-115868078D01*
X145908135Y-115868081D01*
X146049602Y-115951744D01*
X146091224Y-115963836D01*
X146207426Y-115997597D01*
X146207429Y-115997597D01*
X146207431Y-115997598D01*
X146244306Y-116000500D01*
X146244314Y-116000500D01*
X146675686Y-116000500D01*
X146675694Y-116000500D01*
X146712569Y-115997598D01*
X146712571Y-115997597D01*
X146712573Y-115997597D01*
X146754191Y-115985505D01*
X146870398Y-115951744D01*
X147011865Y-115868081D01*
X147011870Y-115868075D01*
X147018031Y-115863298D01*
X147019933Y-115865750D01*
X147068579Y-115839155D01*
X147138274Y-115844104D01*
X147170695Y-115864940D01*
X147171969Y-115863298D01*
X147178132Y-115868078D01*
X147178135Y-115868081D01*
X147319602Y-115951744D01*
X147361224Y-115963836D01*
X147477426Y-115997597D01*
X147477429Y-115997597D01*
X147477431Y-115997598D01*
X147514306Y-116000500D01*
X147514314Y-116000500D01*
X147945686Y-116000500D01*
X147945694Y-116000500D01*
X147982569Y-115997598D01*
X147982571Y-115997597D01*
X147982573Y-115997597D01*
X148024191Y-115985505D01*
X148140398Y-115951744D01*
X148281865Y-115868081D01*
X148281870Y-115868075D01*
X148288031Y-115863298D01*
X148289933Y-115865750D01*
X148338579Y-115839155D01*
X148408274Y-115844104D01*
X148440695Y-115864940D01*
X148441969Y-115863298D01*
X148448132Y-115868078D01*
X148448135Y-115868081D01*
X148589602Y-115951744D01*
X148631224Y-115963836D01*
X148747426Y-115997597D01*
X148747429Y-115997597D01*
X148747431Y-115997598D01*
X148784306Y-116000500D01*
X148784314Y-116000500D01*
X149215686Y-116000500D01*
X149215694Y-116000500D01*
X149252569Y-115997598D01*
X149252571Y-115997597D01*
X149252573Y-115997597D01*
X149294191Y-115985505D01*
X149410398Y-115951744D01*
X149551865Y-115868081D01*
X149551870Y-115868075D01*
X149558031Y-115863298D01*
X149559933Y-115865750D01*
X149608579Y-115839155D01*
X149678274Y-115844104D01*
X149710695Y-115864940D01*
X149711969Y-115863298D01*
X149718132Y-115868078D01*
X149718135Y-115868081D01*
X149859602Y-115951744D01*
X149901224Y-115963836D01*
X150017426Y-115997597D01*
X150017429Y-115997597D01*
X150017431Y-115997598D01*
X150054306Y-116000500D01*
X150054314Y-116000500D01*
X150485686Y-116000500D01*
X150485694Y-116000500D01*
X150522569Y-115997598D01*
X150522571Y-115997597D01*
X150522573Y-115997597D01*
X150564191Y-115985505D01*
X150680398Y-115951744D01*
X150821865Y-115868081D01*
X150821870Y-115868075D01*
X150828031Y-115863298D01*
X150829933Y-115865750D01*
X150878579Y-115839155D01*
X150948274Y-115844104D01*
X150980695Y-115864940D01*
X150981969Y-115863298D01*
X150988132Y-115868078D01*
X150988135Y-115868081D01*
X151129602Y-115951744D01*
X151171224Y-115963836D01*
X151287426Y-115997597D01*
X151287429Y-115997597D01*
X151287431Y-115997598D01*
X151324306Y-116000500D01*
X151324314Y-116000500D01*
X151755686Y-116000500D01*
X151755694Y-116000500D01*
X151792569Y-115997598D01*
X151792571Y-115997597D01*
X151792573Y-115997597D01*
X151830494Y-115986580D01*
X151881575Y-115971739D01*
X151950398Y-115951744D01*
X152091865Y-115868081D01*
X152208081Y-115751865D01*
X152268325Y-115649998D01*
X155140204Y-115649998D01*
X155140205Y-115650000D01*
X156125000Y-115650000D01*
X156125000Y-115100000D01*
X155721850Y-115100000D01*
X155685010Y-115102899D01*
X155685004Y-115102900D01*
X155527306Y-115148716D01*
X155527303Y-115148717D01*
X155385947Y-115232314D01*
X155385938Y-115232321D01*
X155269821Y-115348438D01*
X155269814Y-115348447D01*
X155186218Y-115489801D01*
X155140399Y-115647513D01*
X155140204Y-115649998D01*
X152268325Y-115649998D01*
X152291744Y-115610398D01*
X152337598Y-115452569D01*
X152340500Y-115415694D01*
X152340500Y-113634306D01*
X152337598Y-113597431D01*
X152335323Y-113589602D01*
X152291745Y-113439606D01*
X152291744Y-113439603D01*
X152291744Y-113439602D01*
X152208081Y-113298135D01*
X152208079Y-113298133D01*
X152208076Y-113298129D01*
X152091870Y-113181923D01*
X152091862Y-113181917D01*
X151950396Y-113098255D01*
X151950393Y-113098254D01*
X151792573Y-113052402D01*
X151792567Y-113052401D01*
X151755701Y-113049500D01*
X151755694Y-113049500D01*
X151324306Y-113049500D01*
X151324298Y-113049500D01*
X151287432Y-113052401D01*
X151287426Y-113052402D01*
X151129606Y-113098254D01*
X151129603Y-113098255D01*
X150988137Y-113181917D01*
X150981969Y-113186702D01*
X150980072Y-113184256D01*
X150931358Y-113210857D01*
X150861666Y-113205873D01*
X150829296Y-113185069D01*
X150828031Y-113186702D01*
X150821862Y-113181917D01*
X150680396Y-113098255D01*
X150680393Y-113098254D01*
X150522573Y-113052402D01*
X150522567Y-113052401D01*
X150485701Y-113049500D01*
X150485694Y-113049500D01*
X150054306Y-113049500D01*
X150054298Y-113049500D01*
X150017432Y-113052401D01*
X150017426Y-113052402D01*
X149859606Y-113098254D01*
X149859603Y-113098255D01*
X149718137Y-113181917D01*
X149711969Y-113186702D01*
X149710072Y-113184256D01*
X149661358Y-113210857D01*
X149591666Y-113205873D01*
X149559296Y-113185069D01*
X149558031Y-113186702D01*
X149551862Y-113181917D01*
X149410396Y-113098255D01*
X149410393Y-113098254D01*
X149300345Y-113066282D01*
X149241459Y-113028676D01*
X149212253Y-112965203D01*
X149216555Y-112910316D01*
X149219086Y-112902196D01*
X149225500Y-112831616D01*
X149225500Y-112168384D01*
X149222622Y-112136720D01*
X149236158Y-112068178D01*
X149284603Y-112017831D01*
X149346113Y-112001500D01*
X152065548Y-112001500D01*
X152132587Y-112021185D01*
G37*
%TD.AperFunction*%
%TA.AperFunction,Conductor*%
G36*
X141716587Y-117605185D02*
G01*
X141737229Y-117621819D01*
X142085404Y-117969994D01*
X142118889Y-118031317D01*
X142113905Y-118101009D01*
X142085404Y-118145356D01*
X141982321Y-118248438D01*
X141982314Y-118248447D01*
X141898717Y-118389803D01*
X141898716Y-118389806D01*
X141852900Y-118547504D01*
X141852899Y-118547510D01*
X141850000Y-118584350D01*
X141850000Y-119225000D01*
X142526000Y-119225000D01*
X142593039Y-119244685D01*
X142638794Y-119297489D01*
X142650000Y-119349000D01*
X142650000Y-119601000D01*
X142630315Y-119668039D01*
X142577511Y-119713794D01*
X142526000Y-119725000D01*
X141850000Y-119725000D01*
X141850000Y-120250500D01*
X141830315Y-120317539D01*
X141777511Y-120363294D01*
X141726000Y-120374500D01*
X127060453Y-120374500D01*
X126993414Y-120354815D01*
X126972772Y-120338181D01*
X126636818Y-120002227D01*
X126603333Y-119940904D01*
X126600499Y-119914546D01*
X126600499Y-118920452D01*
X126620184Y-118853413D01*
X126636818Y-118832771D01*
X126844089Y-118625500D01*
X127058797Y-118410791D01*
X127120118Y-118377308D01*
X127122128Y-118376889D01*
X127233497Y-118354737D01*
X127362102Y-118301467D01*
X127379172Y-118294397D01*
X127379172Y-118294396D01*
X127379179Y-118294394D01*
X127510289Y-118206789D01*
X127621789Y-118095289D01*
X127709394Y-117964179D01*
X127712142Y-117957546D01*
X127753587Y-117857486D01*
X127769737Y-117818497D01*
X127775121Y-117791432D01*
X127796231Y-117685308D01*
X127828616Y-117623397D01*
X127889332Y-117588823D01*
X127917848Y-117585500D01*
X141649548Y-117585500D01*
X141716587Y-117605185D01*
G37*
%TD.AperFunction*%
%TA.AperFunction,Conductor*%
G36*
X139418039Y-113594185D02*
G01*
X139463794Y-113646989D01*
X139475000Y-113698500D01*
X139475000Y-113750000D01*
X139601000Y-113750000D01*
X139668039Y-113769685D01*
X139713794Y-113822489D01*
X139725000Y-113874000D01*
X139725000Y-115126000D01*
X139705315Y-115193039D01*
X139652511Y-115238794D01*
X139601000Y-115250000D01*
X139475000Y-115250000D01*
X139475000Y-115376000D01*
X139455315Y-115443039D01*
X139402511Y-115488794D01*
X139351000Y-115500000D01*
X138525001Y-115500000D01*
X138525001Y-115548322D01*
X138535144Y-115647607D01*
X138588452Y-115808481D01*
X138588457Y-115808492D01*
X138677424Y-115952728D01*
X138677427Y-115952732D01*
X138797268Y-116072573D01*
X138849778Y-116104962D01*
X138896502Y-116156910D01*
X138907723Y-116225873D01*
X138879880Y-116289955D01*
X138821810Y-116328810D01*
X138784680Y-116334500D01*
X127059452Y-116334500D01*
X126992413Y-116314815D01*
X126946658Y-116262011D01*
X126936714Y-116192853D01*
X126965739Y-116129297D01*
X126971771Y-116122819D01*
X127651551Y-115443039D01*
X128142913Y-114951677D01*
X138525000Y-114951677D01*
X138525000Y-115000000D01*
X139225000Y-115000000D01*
X139225000Y-114000000D01*
X138525001Y-114000000D01*
X138525001Y-114048322D01*
X138535144Y-114147607D01*
X138588452Y-114308481D01*
X138588457Y-114308492D01*
X138666429Y-114434903D01*
X138684870Y-114502295D01*
X138666429Y-114565097D01*
X138588457Y-114691507D01*
X138588452Y-114691518D01*
X138535144Y-114852393D01*
X138525000Y-114951677D01*
X128142913Y-114951677D01*
X128508922Y-114585668D01*
X128570243Y-114552185D01*
X128572883Y-114551769D01*
X128572868Y-114551689D01*
X128659334Y-114534488D01*
X128733497Y-114519737D01*
X128879179Y-114459394D01*
X129010289Y-114371789D01*
X129121789Y-114260289D01*
X129209394Y-114129179D01*
X129269737Y-113983497D01*
X129300500Y-113828842D01*
X129300500Y-113698500D01*
X129320185Y-113631461D01*
X129372989Y-113585706D01*
X129424500Y-113574500D01*
X139351000Y-113574500D01*
X139418039Y-113594185D01*
G37*
%TD.AperFunction*%
%TA.AperFunction,Conductor*%
G36*
X168334685Y-114327050D02*
G01*
X168343647Y-114325762D01*
X168367687Y-114336740D01*
X168393039Y-114344185D01*
X168398966Y-114351025D01*
X168407203Y-114354787D01*
X168421492Y-114377021D01*
X168438794Y-114396989D01*
X168441081Y-114407503D01*
X168444977Y-114413565D01*
X168450000Y-114448500D01*
X168450000Y-114626000D01*
X168430315Y-114693039D01*
X168377511Y-114738794D01*
X168326000Y-114750000D01*
X167500001Y-114750000D01*
X167500001Y-114798322D01*
X167510144Y-114897607D01*
X167563452Y-115058481D01*
X167563457Y-115058492D01*
X167648115Y-115195742D01*
X167666556Y-115263134D01*
X167645634Y-115329798D01*
X167591992Y-115374567D01*
X167585911Y-115377021D01*
X167507669Y-115406203D01*
X167507664Y-115406206D01*
X167385355Y-115497768D01*
X167384370Y-115496452D01*
X167332039Y-115525022D01*
X167262348Y-115520031D01*
X167206418Y-115478154D01*
X167196859Y-115463278D01*
X167193794Y-115457666D01*
X167107547Y-115342455D01*
X167107544Y-115342452D01*
X166992335Y-115256206D01*
X166992328Y-115256202D01*
X166876767Y-115213101D01*
X166820833Y-115171230D01*
X166796416Y-115105766D01*
X166811268Y-115037493D01*
X166814546Y-115031848D01*
X166872003Y-114938697D01*
X166925349Y-114777708D01*
X166935500Y-114678345D01*
X166935499Y-114677254D01*
X166935566Y-114677026D01*
X166935660Y-114675196D01*
X166935820Y-114675204D01*
X166935824Y-114675204D01*
X166936097Y-114675218D01*
X166955168Y-114610214D01*
X166971809Y-114589557D01*
X167200550Y-114360816D01*
X167261872Y-114327334D01*
X167288230Y-114324500D01*
X168326000Y-114324500D01*
X168334685Y-114327050D01*
G37*
%TD.AperFunction*%
%TA.AperFunction,Conductor*%
G36*
X127518585Y-113594185D02*
G01*
X127564340Y-113646989D01*
X127574284Y-113716147D01*
X127545259Y-113779703D01*
X127539227Y-113786181D01*
X126691726Y-114633681D01*
X126630403Y-114667166D01*
X126604045Y-114670000D01*
X125683012Y-114670000D01*
X125715925Y-114612993D01*
X125750000Y-114485826D01*
X125750000Y-114354174D01*
X125715925Y-114227007D01*
X125683012Y-114170000D01*
X126577231Y-114170000D01*
X126566757Y-114103873D01*
X126566757Y-114103870D01*
X126501095Y-113901782D01*
X126426201Y-113754795D01*
X126413305Y-113686126D01*
X126439581Y-113621385D01*
X126496687Y-113581128D01*
X126536686Y-113574500D01*
X127451546Y-113574500D01*
X127518585Y-113594185D01*
G37*
%TD.AperFunction*%
%TA.AperFunction,Conductor*%
G36*
X155271685Y-111103050D02*
G01*
X155280647Y-111101762D01*
X155304687Y-111112740D01*
X155330039Y-111120185D01*
X155335966Y-111127025D01*
X155344203Y-111130787D01*
X155358492Y-111153021D01*
X155375794Y-111172989D01*
X155378081Y-111183503D01*
X155381977Y-111189565D01*
X155387000Y-111224500D01*
X155387000Y-111276000D01*
X155367315Y-111343039D01*
X155314511Y-111388794D01*
X155263000Y-111400000D01*
X155000000Y-111400000D01*
X155000000Y-111950000D01*
X155655685Y-111950000D01*
X155718806Y-111967268D01*
X155777102Y-112001744D01*
X155800497Y-112008541D01*
X155934926Y-112047597D01*
X155934929Y-112047597D01*
X155934931Y-112047598D01*
X155971806Y-112050500D01*
X155971814Y-112050500D01*
X157278186Y-112050500D01*
X157278194Y-112050500D01*
X157315069Y-112047598D01*
X157315076Y-112047595D01*
X157318699Y-112046935D01*
X157320750Y-112047150D01*
X157321386Y-112047101D01*
X157321395Y-112047218D01*
X157388184Y-112054249D01*
X157442685Y-112097968D01*
X157462604Y-112144723D01*
X157480261Y-112233491D01*
X157480264Y-112233501D01*
X157540602Y-112379172D01*
X157540609Y-112379184D01*
X157603602Y-112473459D01*
X157624480Y-112540136D01*
X157624500Y-112542350D01*
X157624500Y-113292691D01*
X157604815Y-113359730D01*
X157552011Y-113405485D01*
X157482853Y-113415429D01*
X157419297Y-113386404D01*
X157412819Y-113380372D01*
X157364370Y-113331923D01*
X157364362Y-113331917D01*
X157278365Y-113281059D01*
X157222898Y-113248256D01*
X157222897Y-113248255D01*
X157222896Y-113248255D01*
X157222893Y-113248254D01*
X157065073Y-113202402D01*
X157065067Y-113202401D01*
X157028201Y-113199500D01*
X157028194Y-113199500D01*
X155721806Y-113199500D01*
X155721798Y-113199500D01*
X155684932Y-113202401D01*
X155684926Y-113202402D01*
X155527106Y-113248254D01*
X155527103Y-113248255D01*
X155385637Y-113331917D01*
X155379469Y-113336702D01*
X155378792Y-113335830D01*
X155375382Y-113340386D01*
X155350622Y-113349620D01*
X155327430Y-113362285D01*
X155318400Y-113361639D01*
X155309918Y-113364803D01*
X155284097Y-113359186D01*
X155257738Y-113357301D01*
X155248684Y-113351482D01*
X155241645Y-113349951D01*
X155213391Y-113328800D01*
X155096272Y-113211681D01*
X155062787Y-113150358D01*
X155067771Y-113080666D01*
X155109643Y-113024733D01*
X155175107Y-113000316D01*
X155183953Y-113000000D01*
X155403134Y-113000000D01*
X155403149Y-112999999D01*
X155439989Y-112997100D01*
X155439995Y-112997099D01*
X155597693Y-112951283D01*
X155597696Y-112951282D01*
X155739052Y-112867685D01*
X155739061Y-112867678D01*
X155855178Y-112751561D01*
X155855185Y-112751552D01*
X155938781Y-112610198D01*
X155984600Y-112452486D01*
X155984795Y-112450001D01*
X155984795Y-112450000D01*
X154874000Y-112450000D01*
X154806961Y-112430315D01*
X154761206Y-112377511D01*
X154750000Y-112326000D01*
X154750000Y-112200000D01*
X154624000Y-112200000D01*
X154556961Y-112180315D01*
X154511206Y-112127511D01*
X154500000Y-112076000D01*
X154500000Y-111485953D01*
X154519685Y-111418914D01*
X154536319Y-111398272D01*
X154575648Y-111358943D01*
X154610858Y-111323733D01*
X154610858Y-111323731D01*
X154621059Y-111313531D01*
X154621062Y-111313526D01*
X154797772Y-111136816D01*
X154859095Y-111103334D01*
X154885452Y-111100500D01*
X155263000Y-111100500D01*
X155271685Y-111103050D01*
G37*
%TD.AperFunction*%
%TA.AperFunction,Conductor*%
G36*
X155399191Y-93145185D02*
G01*
X155444946Y-93197989D01*
X155453769Y-93225308D01*
X155480261Y-93358491D01*
X155480264Y-93358501D01*
X155540602Y-93504172D01*
X155540609Y-93504185D01*
X155628210Y-93635288D01*
X155628213Y-93635292D01*
X155739707Y-93746786D01*
X155739711Y-93746789D01*
X155870814Y-93834390D01*
X155870827Y-93834397D01*
X155937857Y-93862161D01*
X156016503Y-93894737D01*
X156127716Y-93916858D01*
X156189623Y-93949241D01*
X156191203Y-93950793D01*
X159803729Y-97563319D01*
X159837214Y-97624642D01*
X159832230Y-97694334D01*
X159790358Y-97750267D01*
X159725567Y-97774432D01*
X159725000Y-97775000D01*
X159725000Y-99724999D01*
X159748308Y-99724999D01*
X159748322Y-99724998D01*
X159847607Y-99714855D01*
X160008481Y-99661547D01*
X160008492Y-99661542D01*
X160152728Y-99572575D01*
X160152732Y-99572572D01*
X160272572Y-99452732D01*
X160272575Y-99452728D01*
X160361542Y-99308492D01*
X160361547Y-99308481D01*
X160382794Y-99244363D01*
X160422566Y-99186918D01*
X160487082Y-99160095D01*
X160555858Y-99172410D01*
X160607058Y-99219953D01*
X160624500Y-99283367D01*
X160624500Y-100642480D01*
X160604815Y-100709519D01*
X160552011Y-100755274D01*
X160482853Y-100765218D01*
X160419297Y-100736193D01*
X160388118Y-100694885D01*
X160386545Y-100691512D01*
X160297575Y-100547271D01*
X160297572Y-100547267D01*
X160177732Y-100427427D01*
X160177728Y-100427424D01*
X160033492Y-100338457D01*
X160033481Y-100338452D01*
X159872606Y-100285144D01*
X159773322Y-100275000D01*
X159750000Y-100275000D01*
X159750000Y-101654410D01*
X159772166Y-101695004D01*
X159775000Y-101721362D01*
X159775000Y-103724999D01*
X159781581Y-103724999D01*
X159852102Y-103718591D01*
X159852107Y-103718590D01*
X160014396Y-103668018D01*
X160159877Y-103580072D01*
X160280072Y-103459877D01*
X160368017Y-103314399D01*
X160382114Y-103269161D01*
X160420852Y-103211013D01*
X160484877Y-103183039D01*
X160553863Y-103194120D01*
X160605906Y-103240739D01*
X160624500Y-103306051D01*
X160624500Y-104707650D01*
X160604815Y-104774689D01*
X160603626Y-104776503D01*
X160590515Y-104796126D01*
X160540609Y-104870815D01*
X160540602Y-104870828D01*
X160480264Y-105016498D01*
X160480261Y-105016510D01*
X160449500Y-105171153D01*
X160449500Y-105328846D01*
X160480261Y-105483489D01*
X160480264Y-105483501D01*
X160540602Y-105629172D01*
X160540609Y-105629185D01*
X160628210Y-105760288D01*
X160628213Y-105760292D01*
X160653983Y-105786062D01*
X160687468Y-105847385D01*
X160682484Y-105917077D01*
X160653983Y-105961424D01*
X156226269Y-110389140D01*
X156202228Y-110413181D01*
X156140905Y-110446666D01*
X156114547Y-110449500D01*
X156112000Y-110449500D01*
X156089934Y-110443020D01*
X156071213Y-110441682D01*
X156062072Y-110434839D01*
X156044961Y-110429815D01*
X156025758Y-110407654D01*
X156015280Y-110399810D01*
X156012497Y-110392350D01*
X155999206Y-110377011D01*
X155988000Y-110325500D01*
X155988000Y-110084313D01*
X155987999Y-110084298D01*
X155985098Y-110047432D01*
X155985097Y-110047426D01*
X155939245Y-109889606D01*
X155939244Y-109889603D01*
X155939244Y-109889602D01*
X155855581Y-109748135D01*
X155855579Y-109748133D01*
X155855576Y-109748129D01*
X155739370Y-109631923D01*
X155739362Y-109631917D01*
X155597896Y-109548255D01*
X155597893Y-109548254D01*
X155440073Y-109502402D01*
X155440067Y-109502401D01*
X155403201Y-109499500D01*
X155403194Y-109499500D01*
X154096806Y-109499500D01*
X154096798Y-109499500D01*
X154059932Y-109502401D01*
X154059926Y-109502402D01*
X153902106Y-109548254D01*
X153902103Y-109548255D01*
X153760637Y-109631917D01*
X153760629Y-109631923D01*
X153644423Y-109748129D01*
X153644417Y-109748137D01*
X153560755Y-109889603D01*
X153560754Y-109889606D01*
X153514902Y-110047426D01*
X153514901Y-110047432D01*
X153512000Y-110084298D01*
X153512000Y-110175500D01*
X153492315Y-110242539D01*
X153439511Y-110288294D01*
X153388000Y-110299500D01*
X146141520Y-110299500D01*
X146074481Y-110279815D01*
X146053839Y-110263181D01*
X145960188Y-110169530D01*
X145814606Y-110081522D01*
X145705205Y-110047432D01*
X145652196Y-110030914D01*
X145652194Y-110030913D01*
X145652192Y-110030913D01*
X145602778Y-110026423D01*
X145581616Y-110024500D01*
X144918384Y-110024500D01*
X144899145Y-110026248D01*
X144847807Y-110030913D01*
X144685393Y-110081522D01*
X144539811Y-110169530D01*
X144419530Y-110289811D01*
X144331522Y-110435393D01*
X144280913Y-110597807D01*
X144278062Y-110629185D01*
X144274500Y-110668384D01*
X144274500Y-111181616D01*
X144275779Y-111195688D01*
X144280913Y-111252192D01*
X144280913Y-111252194D01*
X144280914Y-111252196D01*
X144331522Y-111414606D01*
X144415672Y-111553807D01*
X144419530Y-111560188D01*
X144521661Y-111662319D01*
X144555146Y-111723642D01*
X144550162Y-111793334D01*
X144521661Y-111837681D01*
X144419531Y-111939810D01*
X144419530Y-111939811D01*
X144331522Y-112085393D01*
X144280913Y-112247807D01*
X144277329Y-112287256D01*
X144274500Y-112318384D01*
X144274500Y-112831616D01*
X144276384Y-112852343D01*
X144280914Y-112902200D01*
X144281034Y-112902801D01*
X144281001Y-112903160D01*
X144281508Y-112908730D01*
X144280494Y-112908822D01*
X144274801Y-112972392D01*
X144231934Y-113027566D01*
X144166043Y-113050806D01*
X144149688Y-113050601D01*
X144135704Y-113049500D01*
X144135694Y-113049500D01*
X143704306Y-113049500D01*
X143704298Y-113049500D01*
X143667432Y-113052401D01*
X143667426Y-113052402D01*
X143559095Y-113083876D01*
X143489225Y-113083677D01*
X143430555Y-113045735D01*
X143401712Y-112982096D01*
X143400500Y-112964800D01*
X143400500Y-109124000D01*
X143420185Y-109056961D01*
X143472989Y-109011206D01*
X143524500Y-109000000D01*
X148450000Y-109000000D01*
X149183126Y-106556243D01*
X149221244Y-106497689D01*
X149254198Y-106477417D01*
X150204202Y-106081582D01*
X152975001Y-106081582D01*
X152981408Y-106152102D01*
X152981409Y-106152107D01*
X153031981Y-106314396D01*
X153119927Y-106459877D01*
X153240122Y-106580072D01*
X153385604Y-106668019D01*
X153385603Y-106668019D01*
X153547894Y-106718590D01*
X153547892Y-106718590D01*
X153618418Y-106724999D01*
X154200000Y-106724999D01*
X154281581Y-106724999D01*
X154352102Y-106718591D01*
X154352107Y-106718590D01*
X154514396Y-106668018D01*
X154635850Y-106594597D01*
X154703404Y-106576761D01*
X154764150Y-106594597D01*
X154885604Y-106668019D01*
X154885603Y-106668019D01*
X155047894Y-106718590D01*
X155047892Y-106718590D01*
X155118418Y-106724999D01*
X155700000Y-106724999D01*
X155781581Y-106724999D01*
X155852102Y-106718591D01*
X155852107Y-106718590D01*
X156014396Y-106668018D01*
X156159877Y-106580072D01*
X156280072Y-106459877D01*
X156368019Y-106314395D01*
X156418590Y-106152106D01*
X156425000Y-106081572D01*
X156425000Y-106075000D01*
X155700000Y-106075000D01*
X155700000Y-106724999D01*
X155118418Y-106724999D01*
X155199999Y-106724998D01*
X155200000Y-106724998D01*
X155200000Y-106075000D01*
X154200000Y-106075000D01*
X154200000Y-106724999D01*
X153618418Y-106724999D01*
X153699999Y-106724998D01*
X153700000Y-106724998D01*
X153700000Y-106075000D01*
X152975001Y-106075000D01*
X152975001Y-106081582D01*
X150204202Y-106081582D01*
X152200000Y-105250000D01*
X152200000Y-103004499D01*
X152219685Y-102937460D01*
X152272489Y-102891705D01*
X152324000Y-102880499D01*
X153057104Y-102880499D01*
X153124143Y-102900184D01*
X153163834Y-102941376D01*
X153183365Y-102974400D01*
X153246917Y-103081862D01*
X153246923Y-103081870D01*
X153288180Y-103123126D01*
X153302884Y-103150054D01*
X153319477Y-103175873D01*
X153320368Y-103182072D01*
X153321666Y-103184449D01*
X153324500Y-103210808D01*
X153324500Y-103298397D01*
X153304815Y-103365436D01*
X153264652Y-103404513D01*
X153239813Y-103419529D01*
X153239811Y-103419530D01*
X153119530Y-103539811D01*
X153031522Y-103685393D01*
X152980913Y-103847807D01*
X152975782Y-103904275D01*
X152974500Y-103918384D01*
X152974500Y-104431616D01*
X152976423Y-104452778D01*
X152980913Y-104502192D01*
X152980913Y-104502194D01*
X152980914Y-104502196D01*
X153031522Y-104664606D01*
X153099189Y-104776541D01*
X153119530Y-104810188D01*
X153222015Y-104912673D01*
X153255500Y-104973996D01*
X153250516Y-105043688D01*
X153222015Y-105088035D01*
X153119928Y-105190121D01*
X153119927Y-105190122D01*
X153031980Y-105335604D01*
X152981409Y-105497893D01*
X152975000Y-105568427D01*
X152975000Y-105575000D01*
X156424999Y-105575000D01*
X156424999Y-105568417D01*
X156418591Y-105497897D01*
X156418590Y-105497892D01*
X156368018Y-105335603D01*
X156280072Y-105190122D01*
X156177984Y-105088034D01*
X156144499Y-105026711D01*
X156149483Y-104957019D01*
X156177983Y-104912673D01*
X156280472Y-104810185D01*
X156368478Y-104664606D01*
X156419086Y-104502196D01*
X156425500Y-104431616D01*
X156425500Y-103918384D01*
X156419086Y-103847804D01*
X156368478Y-103685394D01*
X156280472Y-103539815D01*
X156280470Y-103539813D01*
X156280469Y-103539811D01*
X156160186Y-103419528D01*
X156130198Y-103401400D01*
X156111261Y-103380721D01*
X156090065Y-103362373D01*
X156086595Y-103353787D01*
X156083010Y-103349872D01*
X156075388Y-103330275D01*
X156073817Y-103324937D01*
X156051463Y-103212548D01*
X156017063Y-103129500D01*
X156004312Y-103098715D01*
X156001864Y-103095051D01*
X155999276Y-103091177D01*
X155978397Y-103024500D01*
X155995645Y-102959165D01*
X156006744Y-102940398D01*
X156046750Y-102802697D01*
X156052597Y-102782573D01*
X156052598Y-102782567D01*
X156055499Y-102745701D01*
X156055500Y-102745694D01*
X156055500Y-102314306D01*
X156052598Y-102277431D01*
X156047820Y-102260986D01*
X156006745Y-102119606D01*
X156006744Y-102119603D01*
X156006744Y-102119602D01*
X155995087Y-102099892D01*
X155977905Y-102032169D01*
X156000065Y-101965906D01*
X156054531Y-101922143D01*
X156124011Y-101914774D01*
X156186446Y-101946138D01*
X156189501Y-101949091D01*
X156938181Y-102697771D01*
X156971666Y-102759094D01*
X156974500Y-102785452D01*
X156974500Y-103081616D01*
X156974523Y-103081865D01*
X156980913Y-103152192D01*
X156980913Y-103152194D01*
X156980914Y-103152196D01*
X157031522Y-103314606D01*
X157113535Y-103450272D01*
X157119530Y-103460188D01*
X157239811Y-103580469D01*
X157239813Y-103580470D01*
X157239815Y-103580472D01*
X157385394Y-103668478D01*
X157547804Y-103719086D01*
X157618384Y-103725500D01*
X157618387Y-103725500D01*
X158131613Y-103725500D01*
X158131616Y-103725500D01*
X158202196Y-103719086D01*
X158364606Y-103668478D01*
X158510185Y-103580472D01*
X158612673Y-103477983D01*
X158673994Y-103444499D01*
X158743685Y-103449483D01*
X158788034Y-103477984D01*
X158890122Y-103580072D01*
X159035604Y-103668019D01*
X159035603Y-103668019D01*
X159197894Y-103718590D01*
X159197893Y-103718590D01*
X159268408Y-103724998D01*
X159268426Y-103724999D01*
X159274999Y-103724998D01*
X159275000Y-103724998D01*
X159275000Y-102345589D01*
X159252834Y-102304996D01*
X159250000Y-102278638D01*
X159250000Y-100274999D01*
X159226693Y-100275000D01*
X159226674Y-100275001D01*
X159127392Y-100285144D01*
X158966518Y-100338452D01*
X158966507Y-100338457D01*
X158822271Y-100427424D01*
X158822265Y-100427428D01*
X158813031Y-100436663D01*
X158751707Y-100470146D01*
X158682015Y-100465159D01*
X158637672Y-100436660D01*
X158628044Y-100427032D01*
X158628040Y-100427029D01*
X158483705Y-100338001D01*
X158483699Y-100337998D01*
X158483697Y-100337997D01*
X158441203Y-100323916D01*
X158322709Y-100284651D01*
X158223346Y-100274500D01*
X157676662Y-100274500D01*
X157676644Y-100274501D01*
X157577292Y-100284650D01*
X157577289Y-100284651D01*
X157416305Y-100337996D01*
X157416294Y-100338001D01*
X157271959Y-100427029D01*
X157271955Y-100427032D01*
X157152031Y-100546956D01*
X157140535Y-100565596D01*
X157088588Y-100612321D01*
X157034996Y-100624500D01*
X156091605Y-100624500D01*
X156024566Y-100604815D01*
X155978811Y-100552011D01*
X155968867Y-100482853D01*
X155984871Y-100437382D01*
X156006744Y-100400398D01*
X156024874Y-100337997D01*
X156052597Y-100242573D01*
X156052598Y-100242567D01*
X156055499Y-100205701D01*
X156055500Y-100205694D01*
X156055500Y-99774306D01*
X156052598Y-99737431D01*
X156049132Y-99725500D01*
X156006746Y-99579607D01*
X156006744Y-99579605D01*
X156006744Y-99579602D01*
X155996700Y-99562618D01*
X155979518Y-99494898D01*
X156001677Y-99428635D01*
X156056143Y-99384872D01*
X156103433Y-99375500D01*
X157009996Y-99375500D01*
X157077035Y-99395185D01*
X157115535Y-99434404D01*
X157127031Y-99453043D01*
X157246955Y-99572967D01*
X157246959Y-99572970D01*
X157391294Y-99661998D01*
X157391297Y-99661999D01*
X157391303Y-99662003D01*
X157552292Y-99715349D01*
X157651655Y-99725500D01*
X158198344Y-99725499D01*
X158198352Y-99725498D01*
X158198355Y-99725498D01*
X158252760Y-99719940D01*
X158297708Y-99715349D01*
X158458697Y-99662003D01*
X158603044Y-99572968D01*
X158612668Y-99563343D01*
X158673987Y-99529856D01*
X158743679Y-99534835D01*
X158788034Y-99563339D01*
X158797267Y-99572572D01*
X158797271Y-99572575D01*
X158941507Y-99661542D01*
X158941518Y-99661547D01*
X159102393Y-99714855D01*
X159201683Y-99724999D01*
X159225000Y-99724998D01*
X159225000Y-97774999D01*
X159201693Y-97775000D01*
X159201674Y-97775001D01*
X159102392Y-97785144D01*
X158941518Y-97838452D01*
X158941507Y-97838457D01*
X158797271Y-97927424D01*
X158797265Y-97927428D01*
X158788031Y-97936663D01*
X158726707Y-97970146D01*
X158657015Y-97965159D01*
X158612672Y-97936660D01*
X158603044Y-97927032D01*
X158603040Y-97927029D01*
X158458705Y-97838001D01*
X158458699Y-97837998D01*
X158458697Y-97837997D01*
X158430686Y-97828715D01*
X158297709Y-97784651D01*
X158198346Y-97774500D01*
X157651662Y-97774500D01*
X157651644Y-97774501D01*
X157552292Y-97784650D01*
X157552289Y-97784651D01*
X157391305Y-97837996D01*
X157391294Y-97838001D01*
X157246959Y-97927029D01*
X157246955Y-97927032D01*
X157127031Y-98046956D01*
X157115535Y-98065596D01*
X157063588Y-98112321D01*
X157009996Y-98124500D01*
X155930808Y-98124500D01*
X155863769Y-98104815D01*
X155843126Y-98088180D01*
X155806870Y-98051923D01*
X155806862Y-98051917D01*
X155665396Y-97968255D01*
X155665393Y-97968254D01*
X155507573Y-97922402D01*
X155507567Y-97922401D01*
X155470701Y-97919500D01*
X155470694Y-97919500D01*
X153699306Y-97919500D01*
X153699298Y-97919500D01*
X153662432Y-97922401D01*
X153662426Y-97922402D01*
X153504606Y-97968254D01*
X153504603Y-97968255D01*
X153363137Y-98051917D01*
X153363129Y-98051923D01*
X153246923Y-98168129D01*
X153246916Y-98168138D01*
X153163836Y-98308621D01*
X153112767Y-98356304D01*
X153057104Y-98369500D01*
X152324000Y-98369500D01*
X152256961Y-98349815D01*
X152211206Y-98297011D01*
X152200000Y-98245500D01*
X152200000Y-97000000D01*
X147950002Y-95750000D01*
X147950000Y-95750000D01*
X147904277Y-95750000D01*
X147837238Y-95730315D01*
X147791483Y-95677511D01*
X147781539Y-95608353D01*
X147786571Y-95586996D01*
X147814505Y-95502697D01*
X147814506Y-95502690D01*
X147824999Y-95399986D01*
X147825000Y-95399973D01*
X147825000Y-95275000D01*
X145025001Y-95275000D01*
X145025001Y-95399989D01*
X145026917Y-95418737D01*
X145014147Y-95487430D01*
X144966266Y-95538314D01*
X144898476Y-95555234D01*
X144864556Y-95549044D01*
X144822608Y-95535144D01*
X144723322Y-95525000D01*
X144675000Y-95525000D01*
X144675000Y-96351000D01*
X144655315Y-96418039D01*
X144602511Y-96463794D01*
X144551000Y-96475000D01*
X144425000Y-96475000D01*
X144425000Y-96601000D01*
X144405315Y-96668039D01*
X144352511Y-96713794D01*
X144301000Y-96725000D01*
X143450001Y-96725000D01*
X143450001Y-96748322D01*
X143460144Y-96847607D01*
X143513452Y-97008481D01*
X143513457Y-97008492D01*
X143583455Y-97121975D01*
X143601896Y-97189367D01*
X143580974Y-97256031D01*
X143527332Y-97300800D01*
X143500099Y-97309072D01*
X141071682Y-97750602D01*
X141002202Y-97743227D01*
X140947740Y-97699460D01*
X140925585Y-97633196D01*
X140925500Y-97628602D01*
X140925500Y-97089004D01*
X140896659Y-96944017D01*
X140896658Y-96944016D01*
X140896658Y-96944012D01*
X140840084Y-96807430D01*
X140804192Y-96753713D01*
X140804192Y-96753712D01*
X140757950Y-96684506D01*
X140359653Y-96286209D01*
X140275121Y-96201677D01*
X143450000Y-96201677D01*
X143450000Y-96225000D01*
X144175000Y-96225000D01*
X144175000Y-95525000D01*
X144174999Y-95524999D01*
X144126693Y-95525000D01*
X144126675Y-95525001D01*
X144027392Y-95535144D01*
X143866518Y-95588452D01*
X143866507Y-95588457D01*
X143722271Y-95677424D01*
X143722267Y-95677427D01*
X143602427Y-95797267D01*
X143602424Y-95797271D01*
X143513457Y-95941507D01*
X143513452Y-95941518D01*
X143460144Y-96102393D01*
X143450000Y-96201677D01*
X140275121Y-96201677D01*
X138874256Y-94800813D01*
X138840771Y-94739490D01*
X138845755Y-94669798D01*
X138860566Y-94650013D01*
X145025000Y-94650013D01*
X145025000Y-94775000D01*
X146175000Y-94775000D01*
X146675000Y-94775000D01*
X147824999Y-94775000D01*
X147824999Y-94650028D01*
X147824998Y-94650013D01*
X147814505Y-94547302D01*
X147759358Y-94380880D01*
X147759356Y-94380875D01*
X147667315Y-94231654D01*
X147543345Y-94107684D01*
X147394124Y-94015643D01*
X147394119Y-94015641D01*
X147227697Y-93960494D01*
X147227690Y-93960493D01*
X147124986Y-93950000D01*
X146675000Y-93950000D01*
X146675000Y-94775000D01*
X146175000Y-94775000D01*
X146175000Y-93950000D01*
X145725028Y-93950000D01*
X145725012Y-93950001D01*
X145622302Y-93960494D01*
X145455880Y-94015641D01*
X145455875Y-94015643D01*
X145306654Y-94107684D01*
X145182684Y-94231654D01*
X145090643Y-94380875D01*
X145090641Y-94380880D01*
X145035494Y-94547302D01*
X145035493Y-94547309D01*
X145025000Y-94650013D01*
X138860566Y-94650013D01*
X138887627Y-94613865D01*
X138953091Y-94589448D01*
X138961937Y-94589132D01*
X140847976Y-94589132D01*
X140847976Y-94589131D01*
X140940696Y-94570689D01*
X140968820Y-94565095D01*
X141019675Y-94544030D01*
X141023934Y-94542266D01*
X141047988Y-94532303D01*
X141055755Y-94529085D01*
X141082654Y-94517944D01*
X141148537Y-94473921D01*
X141185101Y-94449490D01*
X141272226Y-94362365D01*
X141272226Y-94362363D01*
X141282434Y-94352156D01*
X141282436Y-94352153D01*
X141808797Y-93825791D01*
X141870118Y-93792308D01*
X141872128Y-93791889D01*
X141983497Y-93769737D01*
X142129179Y-93709394D01*
X142260289Y-93621789D01*
X142371789Y-93510289D01*
X142459394Y-93379179D01*
X142519737Y-93233497D01*
X142521365Y-93225308D01*
X142553750Y-93163399D01*
X142614465Y-93128824D01*
X142642983Y-93125500D01*
X155332152Y-93125500D01*
X155399191Y-93145185D01*
G37*
%TD.AperFunction*%
%TA.AperFunction,Conductor*%
G36*
X135964038Y-95145185D02*
G01*
X135965890Y-95146398D01*
X136096521Y-95233683D01*
X136096534Y-95233690D01*
X136196267Y-95275000D01*
X136242210Y-95294030D01*
X136396860Y-95324792D01*
X136396863Y-95324793D01*
X136396865Y-95324793D01*
X136554551Y-95324793D01*
X136554552Y-95324792D01*
X136709204Y-95294030D01*
X136854886Y-95233687D01*
X136854891Y-95233683D01*
X136854894Y-95233682D01*
X136905622Y-95199786D01*
X136967798Y-95158241D01*
X137034473Y-95137363D01*
X137101854Y-95155847D01*
X137124369Y-95173662D01*
X139388181Y-97437474D01*
X139421666Y-97498797D01*
X139424500Y-97525155D01*
X139424500Y-100323918D01*
X139449939Y-100451808D01*
X139443712Y-100521400D01*
X139400849Y-100576577D01*
X139334960Y-100599822D01*
X139328322Y-100600000D01*
X139225000Y-100600000D01*
X139225000Y-105899999D01*
X139349972Y-105899999D01*
X139349986Y-105899998D01*
X139452697Y-105889505D01*
X139619119Y-105834358D01*
X139619129Y-105834353D01*
X139625766Y-105830260D01*
X139693157Y-105811817D01*
X139759822Y-105832737D01*
X139804593Y-105886378D01*
X139814866Y-105935796D01*
X139814866Y-106689195D01*
X140199999Y-108999999D01*
X140200000Y-109000000D01*
X141775500Y-109000000D01*
X141842539Y-109019685D01*
X141888294Y-109072489D01*
X141899500Y-109124000D01*
X141899500Y-112413769D01*
X141879815Y-112480808D01*
X141827011Y-112526563D01*
X141757853Y-112536507D01*
X141694297Y-112507482D01*
X141687819Y-112501450D01*
X141427420Y-112241051D01*
X141416120Y-112233501D01*
X141350583Y-112189711D01*
X141350582Y-112189710D01*
X141304501Y-112158919D01*
X141304488Y-112158912D01*
X141167917Y-112102343D01*
X141167907Y-112102340D01*
X141022920Y-112073500D01*
X141022918Y-112073500D01*
X133424500Y-112073500D01*
X133357461Y-112053815D01*
X133311706Y-112001011D01*
X133300500Y-111949500D01*
X133300500Y-111921155D01*
X133300499Y-111921153D01*
X133269738Y-111766510D01*
X133269737Y-111766503D01*
X133209394Y-111620821D01*
X133185513Y-111585081D01*
X133164637Y-111518405D01*
X133164617Y-111516192D01*
X133164617Y-105199986D01*
X137900001Y-105199986D01*
X137910494Y-105302697D01*
X137965641Y-105469119D01*
X137965643Y-105469124D01*
X138057684Y-105618345D01*
X138181654Y-105742315D01*
X138330875Y-105834356D01*
X138330880Y-105834358D01*
X138497302Y-105889505D01*
X138497309Y-105889506D01*
X138600019Y-105899999D01*
X138724999Y-105899999D01*
X138725000Y-105899998D01*
X138725000Y-104750000D01*
X137900001Y-104750000D01*
X137900001Y-105199986D01*
X133164617Y-105199986D01*
X133164617Y-103800013D01*
X137900000Y-103800013D01*
X137900000Y-104250000D01*
X138725000Y-104250000D01*
X138725000Y-102250000D01*
X137900001Y-102250000D01*
X137900001Y-102699986D01*
X137910494Y-102802697D01*
X137965641Y-102969119D01*
X137965643Y-102969124D01*
X138057684Y-103118345D01*
X138101658Y-103162319D01*
X138135143Y-103223642D01*
X138130159Y-103293334D01*
X138101658Y-103337681D01*
X138057684Y-103381654D01*
X137965643Y-103530875D01*
X137965641Y-103530880D01*
X137910494Y-103697302D01*
X137910493Y-103697309D01*
X137900000Y-103800013D01*
X133164617Y-103800013D01*
X133164617Y-101300013D01*
X137900000Y-101300013D01*
X137900000Y-101750000D01*
X138725000Y-101750000D01*
X138725000Y-100600000D01*
X138600027Y-100600000D01*
X138600012Y-100600001D01*
X138497302Y-100610494D01*
X138330880Y-100665641D01*
X138330875Y-100665643D01*
X138181654Y-100757684D01*
X138057684Y-100881654D01*
X137965643Y-101030875D01*
X137965641Y-101030880D01*
X137910494Y-101197302D01*
X137910493Y-101197309D01*
X137900000Y-101300013D01*
X133164617Y-101300013D01*
X133164617Y-95798870D01*
X133184302Y-95731831D01*
X133185515Y-95729979D01*
X133202238Y-95704951D01*
X133248511Y-95635699D01*
X133308854Y-95490017D01*
X133339617Y-95335362D01*
X133339617Y-95249500D01*
X133359302Y-95182461D01*
X133412106Y-95136706D01*
X133463617Y-95125500D01*
X135896999Y-95125500D01*
X135964038Y-95145185D01*
G37*
%TD.AperFunction*%
%TA.AperFunction,Conductor*%
G36*
X151242585Y-74660185D02*
G01*
X151288340Y-74712989D01*
X151298284Y-74782147D01*
X151269259Y-74845703D01*
X151263227Y-74852181D01*
X150530016Y-75585393D01*
X149851269Y-76264140D01*
X149851267Y-76264142D01*
X149808556Y-76306853D01*
X149764140Y-76351268D01*
X149745715Y-76378844D01*
X149695687Y-76453715D01*
X149671918Y-76511099D01*
X149671916Y-76511103D01*
X149668897Y-76518394D01*
X149648537Y-76567548D01*
X149640465Y-76608130D01*
X149627456Y-76673535D01*
X149626624Y-76677714D01*
X149626619Y-76677735D01*
X149624500Y-76688389D01*
X149624500Y-80189547D01*
X149604815Y-80256586D01*
X149588181Y-80277228D01*
X144274246Y-85591164D01*
X144212923Y-85624649D01*
X144186565Y-85627483D01*
X142301299Y-85627483D01*
X142234260Y-85607798D01*
X142232408Y-85606585D01*
X142138133Y-85543592D01*
X142138121Y-85543585D01*
X141992450Y-85483247D01*
X141992438Y-85483244D01*
X141837794Y-85452483D01*
X141837791Y-85452483D01*
X141749500Y-85452483D01*
X141682461Y-85432798D01*
X141636706Y-85379994D01*
X141625500Y-85328483D01*
X141625500Y-79138452D01*
X141645185Y-79071413D01*
X141661819Y-79050771D01*
X146035772Y-74676819D01*
X146097095Y-74643334D01*
X146123453Y-74640500D01*
X151175546Y-74640500D01*
X151242585Y-74660185D01*
G37*
%TD.AperFunction*%
%TA.AperFunction,Conductor*%
G36*
X165783809Y-70099185D02*
G01*
X165804451Y-70115819D01*
X169379824Y-73691191D01*
X169413309Y-73752514D01*
X169414616Y-73798270D01*
X169399500Y-73893707D01*
X169399500Y-74106286D01*
X169432753Y-74316239D01*
X169498444Y-74518414D01*
X169594951Y-74707820D01*
X169719890Y-74879786D01*
X169870213Y-75030109D01*
X170042182Y-75155050D01*
X170050946Y-75159516D01*
X170101742Y-75207491D01*
X170118536Y-75275312D01*
X170095998Y-75341447D01*
X170050946Y-75380484D01*
X170042182Y-75384949D01*
X169870213Y-75509890D01*
X169719890Y-75660213D01*
X169594949Y-75832182D01*
X169565060Y-75890842D01*
X169550574Y-75906179D01*
X169539998Y-75924429D01*
X169522751Y-75935638D01*
X169517085Y-75941638D01*
X169511215Y-75944855D01*
X169506706Y-75947169D01*
X169413714Y-75985689D01*
X169359988Y-76021588D01*
X169354071Y-76025540D01*
X169354068Y-76025543D01*
X169311263Y-76054144D01*
X166831720Y-78533687D01*
X166770397Y-78567172D01*
X166700705Y-78562188D01*
X166675148Y-78549108D01*
X166562243Y-78473667D01*
X166562230Y-78473660D01*
X166416559Y-78413322D01*
X166416547Y-78413319D01*
X166261903Y-78382558D01*
X166261900Y-78382558D01*
X166114329Y-78382558D01*
X166090138Y-78380175D01*
X166078967Y-78377953D01*
X166061608Y-78374500D01*
X166061607Y-78374500D01*
X166061606Y-78374500D01*
X165072453Y-78374500D01*
X165005414Y-78354815D01*
X164984772Y-78338181D01*
X157966818Y-71320227D01*
X157933333Y-71258904D01*
X157930499Y-71232546D01*
X157930499Y-71002129D01*
X157930498Y-71002123D01*
X157930497Y-71002116D01*
X157924091Y-70942517D01*
X157911073Y-70907616D01*
X157906090Y-70837926D01*
X157911075Y-70820949D01*
X157923597Y-70787375D01*
X157923598Y-70787372D01*
X157929999Y-70727844D01*
X157930000Y-70727827D01*
X157930000Y-70480000D01*
X156804000Y-70480000D01*
X156795314Y-70477449D01*
X156786353Y-70478738D01*
X156762312Y-70467759D01*
X156736961Y-70460315D01*
X156731033Y-70453474D01*
X156722797Y-70449713D01*
X156708507Y-70427478D01*
X156691206Y-70407511D01*
X156688918Y-70396996D01*
X156685023Y-70390935D01*
X156680000Y-70356000D01*
X156680000Y-70203500D01*
X156699685Y-70136461D01*
X156752489Y-70090706D01*
X156804000Y-70079500D01*
X165716770Y-70079500D01*
X165783809Y-70099185D01*
G37*
%TD.AperFunction*%
%TD*%
M02*
